<svg xmlns="http://www.w3.org/2000/svg" xmlns:xlink="http://www.w3.org/1999/xlink" width="820" height="213" viewBox="0 0 820 213">
  <defs>
    <clipPath id="clip-path">
      <rect id="Rect치ngulo_375097" data-name="Rect치ngulo 375097" width="142.137" height="121.072" transform="translate(0 0)" fill="none" stroke="#707070" stroke-width="2.5"/>
    </clipPath>
  </defs>
  <g id="Grupo_1073378" data-name="Grupo 1073378" transform="translate(-390 -3727)">
    <rect id="Rect치ngulo_375098" data-name="Rect치ngulo 375098" width="820" height="213" rx="8" transform="translate(390 3727)" fill="#6e40fc"/>
    <g id="Grupo_1067342" data-name="Grupo 1067342" transform="translate(437.863 3787.811)">
      <g id="Grupo_1067339" data-name="Grupo 1067339" transform="translate(0 -0.003)" clip-path="url(#clip-path)">
        <path id="Trazado_802299" data-name="Trazado 802299" d="M3377.406,32.387a32.946,32.946,0,0,1,19.18,33.527" transform="translate(-3255.916 -31.222)" fill="none" stroke="#000" stroke-miterlimit="10" stroke-width="2.5"/>
        <path id="Trazado_802300" data-name="Trazado 802300" d="M3303.414,193.959a26.548,26.548,0,0,1,15.482,27.063" transform="translate(-3184.586 -186.982)" fill="none" stroke="#000" stroke-miterlimit="10" stroke-width="2.5"/>
        <path id="Trazado_802301" data-name="Trazado 802301" d="M3229.425,355.519a20.154,20.154,0,0,1,11.786,20.6" transform="translate(-3113.258 -342.73)" fill="none" stroke="#000" stroke-miterlimit="10" stroke-width="2.5"/>
        <path id="Trazado_802302" data-name="Trazado 802302" d="M3155.411,517.125a13.77,13.77,0,0,1,8.087,14.136" transform="translate(-3041.906 -498.523)" fill="none" stroke="#000" stroke-miterlimit="10" stroke-width="2.5"/>
        <path id="Trazado_802303" data-name="Trazado 802303" d="M3081.422,678.685a7.379,7.379,0,0,1,4.39,7.674" transform="translate(-2970.579 -654.272)" fill="none" stroke="#000" stroke-miterlimit="10" stroke-width="2.5"/>
        <path id="Trazado_802304" data-name="Trazado 802304" d="M35.545,476.78a32.944,32.944,0,0,1,21.968-31.77" transform="translate(-34.259 -429.002)" fill="none" stroke="#000" stroke-miterlimit="10" stroke-width="2.5"/>
        <path id="Trazado_802305" data-name="Trazado 802305" d="M213.251,637.933a26.549,26.549,0,0,1,17.733-25.646" transform="translate(-205.573 -590.262)" fill="none" stroke="#000" stroke-miterlimit="10" stroke-width="2.5"/>
        <path id="Trazado_802306" data-name="Trazado 802306" d="M390.942,799.086a20.155,20.155,0,0,1,13.5-19.522" transform="translate(-376.873 -751.522)" fill="none" stroke="#000" stroke-miterlimit="10" stroke-width="2.5"/>
        <path id="Trazado_802307" data-name="Trazado 802307" d="M568.685,960.285a13.77,13.77,0,0,1,9.263-13.4" transform="translate(-548.223 -912.828)" fill="none" stroke="#000" stroke-miterlimit="10" stroke-width="2.5"/>
        <path id="Trazado_802308" data-name="Trazado 802308" d="M746.351,1121.439a7.379,7.379,0,0,1,5.028-7.272" transform="translate(-719.498 -1074.089)" fill="none" stroke="#000" stroke-miterlimit="10" stroke-width="2.5"/>
        <path id="Trazado_802309" data-name="Trazado 802309" d="M987.216,528.559l38.614-103.49,38.692,102.608" transform="translate(-951.705 -409.778)" fill="none" stroke="#000" stroke-linecap="round" stroke-miterlimit="10" stroke-width="2.5"/>
        <path id="Trazado_802310" data-name="Trazado 802310" d="M1078.27,816.745l64.584-17.155-52.688-14.728,41.133-15.916-29.631-14.91,19.651-11.555-11.845-9.366" transform="translate(-1039.483 -706.743)" fill="none" stroke="#000" stroke-linejoin="round" stroke-width="2.5"/>
        <path id="Trazado_802311" data-name="Trazado 802311" d="M1897.23,117.653a6.377,6.377,0,1,1-6.377-6.377,6.377,6.377,0,0,1,6.377,6.377" transform="translate(-1816.688 -107.273)" fill="#fff" stroke="#707070" stroke-width="2.5"/>
        <circle id="Elipse_8590" data-name="Elipse 8590" cx="6.377" cy="6.377" r="6.377" transform="translate(67.787 4.003)" fill="none" stroke="#000" stroke-linejoin="round" stroke-width="2.5"/>
        <path id="Trazado_802312" data-name="Trazado 802312" d="M2674,849.736l-.572-.941a.865.865,0,0,1,.289-1.186l10.182-6.193a.865.865,0,0,1,1.186.289l.572.941a.865.865,0,0,1-.289,1.186l-10.182,6.193a.866.866,0,0,1-1.186-.289" transform="translate(-2577.136 -811.029)" fill="#fff" stroke="#707070" stroke-width="2.5"/>
        <path id="Trazado_802313" data-name="Trazado 802313" d="M2674,849.736l-.572-.941a.865.865,0,0,1,.289-1.186l10.182-6.193a.865.865,0,0,1,1.186.289l.572.941a.865.865,0,0,1-.289,1.186l-10.182,6.193A.866.866,0,0,1,2674,849.736Z" transform="translate(-2577.136 -811.029)" fill="none" stroke="#000" stroke-linejoin="round" stroke-width="2.5"/>
        <path id="Trazado_802314" data-name="Trazado 802314" d="M2298.961,393.777a26.681,26.681,0,0,1-26.855-44.155Z" transform="translate(-2183.07 -337.046)" fill="#fff" stroke="#707070" stroke-width="2.5"/>
        <path id="Trazado_802315" data-name="Trazado 802315" d="M2298.961,393.777a26.681,26.681,0,0,1-26.855-44.155Z" transform="translate(-2183.07 -337.046)" fill="none" stroke="#000" stroke-linejoin="round" stroke-width="2.5"/>
        <path id="Trazado_802316" data-name="Trazado 802316" d="M2958.095,778.151a2.827,2.827,0,1,1,.947-3.884,2.827,2.827,0,0,1-.947,3.884" transform="translate(-2847.546 -745.105)" fill="#fff" stroke="#707070" stroke-width="2.5"/>
        <path id="Trazado_802317" data-name="Trazado 802317" d="M2958.095,778.151a2.827,2.827,0,1,1,.947-3.884A2.827,2.827,0,0,1,2958.095,778.151Z" transform="translate(-2847.546 -745.105)" fill="none" stroke="#000" stroke-linejoin="round" stroke-width="2.5"/>
        <path id="Trazado_802318" data-name="Trazado 802318" d="M960.036,1282.468l.572-.941a.866.866,0,0,0-.289-1.186l-10.182-6.193a.865.865,0,0,0-1.186.289l-.572.941a.865.865,0,0,0,.289,1.186l10.182,6.193a.865.865,0,0,0,1.186-.289" transform="translate(-914.144 -1228.195)" fill="#fff" stroke="#707070" stroke-width="2.5"/>
        <path id="Trazado_802319" data-name="Trazado 802319" d="M960.036,1282.468l.572-.941a.866.866,0,0,0-.289-1.186l-10.182-6.193a.865.865,0,0,0-1.186.289l-.572.941a.865.865,0,0,0,.289,1.186l10.182,6.193A.865.865,0,0,0,960.036,1282.468Z" transform="translate(-914.144 -1228.195)" fill="none" stroke="#000" stroke-linejoin="round" stroke-width="2.5"/>
        <path id="Trazado_802320" data-name="Trazado 802320" d="M746.706,826.509a26.681,26.681,0,0,0,26.855-44.155Z" transform="translate(-719.846 -754.212)" fill="#fff" stroke="#707070" stroke-width="2.5"/>
        <path id="Trazado_802321" data-name="Trazado 802321" d="M746.706,826.509a26.681,26.681,0,0,0,26.855-44.155Z" transform="translate(-719.846 -754.212)" fill="none" stroke="#000" stroke-linejoin="round" stroke-width="2.5"/>
        <path id="Trazado_802322" data-name="Trazado 802322" d="M858.822,1210.882a2.827,2.827,0,1,0-.946-3.885,2.827,2.827,0,0,0,.946,3.885" transform="translate(-826.619 -1162.271)" fill="#fff" stroke="#707070" stroke-width="2.5"/>
        <path id="Trazado_802323" data-name="Trazado 802323" d="M858.822,1210.882a2.827,2.827,0,1,0-.946-3.885A2.827,2.827,0,0,0,858.822,1210.882Z" transform="translate(-826.619 -1162.271)" fill="none" stroke="#000" stroke-linejoin="round" stroke-width="2.5"/>
      </g>
    </g>
    <g id="Grupo_1067343" data-name="Grupo 1067343" transform="translate(1020 3787.811)">
      <g id="Grupo_1067339-2" data-name="Grupo 1067339" transform="translate(0 -0.003)" clip-path="url(#clip-path)">
        <path id="Trazado_802299-2" data-name="Trazado 802299" d="M3377.406,32.387a32.946,32.946,0,0,1,19.18,33.527" transform="translate(-3255.916 -31.222)" fill="none" stroke="#000" stroke-miterlimit="10" stroke-width="2.5"/>
        <path id="Trazado_802300-2" data-name="Trazado 802300" d="M3303.414,193.959a26.548,26.548,0,0,1,15.482,27.063" transform="translate(-3184.586 -186.982)" fill="none" stroke="#000" stroke-miterlimit="10" stroke-width="2.5"/>
        <path id="Trazado_802301-2" data-name="Trazado 802301" d="M3229.425,355.519a20.154,20.154,0,0,1,11.786,20.6" transform="translate(-3113.258 -342.73)" fill="none" stroke="#000" stroke-miterlimit="10" stroke-width="2.5"/>
        <path id="Trazado_802302-2" data-name="Trazado 802302" d="M3155.411,517.125a13.77,13.77,0,0,1,8.087,14.136" transform="translate(-3041.906 -498.523)" fill="none" stroke="#000" stroke-miterlimit="10" stroke-width="2.5"/>
        <path id="Trazado_802303-2" data-name="Trazado 802303" d="M3081.422,678.685a7.379,7.379,0,0,1,4.39,7.674" transform="translate(-2970.579 -654.272)" fill="none" stroke="#000" stroke-miterlimit="10" stroke-width="2.5"/>
        <path id="Trazado_802304-2" data-name="Trazado 802304" d="M35.545,476.78a32.944,32.944,0,0,1,21.968-31.77" transform="translate(-34.259 -429.002)" fill="none" stroke="#000" stroke-miterlimit="10" stroke-width="2.5"/>
        <path id="Trazado_802305-2" data-name="Trazado 802305" d="M213.251,637.933a26.549,26.549,0,0,1,17.733-25.646" transform="translate(-205.573 -590.262)" fill="none" stroke="#000" stroke-miterlimit="10" stroke-width="2.5"/>
        <path id="Trazado_802306-2" data-name="Trazado 802306" d="M390.942,799.086a20.155,20.155,0,0,1,13.5-19.522" transform="translate(-376.873 -751.522)" fill="none" stroke="#000" stroke-miterlimit="10" stroke-width="2.5"/>
        <path id="Trazado_802307-2" data-name="Trazado 802307" d="M568.685,960.285a13.77,13.77,0,0,1,9.263-13.4" transform="translate(-548.223 -912.828)" fill="none" stroke="#000" stroke-miterlimit="10" stroke-width="2.5"/>
        <path id="Trazado_802308-2" data-name="Trazado 802308" d="M746.351,1121.439a7.379,7.379,0,0,1,5.028-7.272" transform="translate(-719.498 -1074.089)" fill="none" stroke="#000" stroke-miterlimit="10" stroke-width="2.5"/>
        <path id="Trazado_802309-2" data-name="Trazado 802309" d="M987.216,528.559l38.614-103.49,38.692,102.608" transform="translate(-951.705 -409.778)" fill="none" stroke="#000" stroke-linecap="round" stroke-miterlimit="10" stroke-width="2.5"/>
        <path id="Trazado_802310-2" data-name="Trazado 802310" d="M1078.27,816.745l64.584-17.155-52.688-14.728,41.133-15.916-29.631-14.91,19.651-11.555-11.845-9.366" transform="translate(-1039.483 -706.743)" fill="none" stroke="#000" stroke-linejoin="round" stroke-width="2.5"/>
        <path id="Trazado_802311-2" data-name="Trazado 802311" d="M1897.23,117.653a6.377,6.377,0,1,1-6.377-6.377,6.377,6.377,0,0,1,6.377,6.377" transform="translate(-1816.688 -107.273)" fill="#fff" stroke="#707070" stroke-width="2.5"/>
        <circle id="Elipse_8590-2" data-name="Elipse 8590" cx="6.377" cy="6.377" r="6.377" transform="translate(67.787 4.003)" fill="none" stroke="#000" stroke-linejoin="round" stroke-width="2.5"/>
        <path id="Trazado_802312-2" data-name="Trazado 802312" d="M2674,849.736l-.572-.941a.865.865,0,0,1,.289-1.186l10.182-6.193a.865.865,0,0,1,1.186.289l.572.941a.865.865,0,0,1-.289,1.186l-10.182,6.193a.866.866,0,0,1-1.186-.289" transform="translate(-2577.136 -811.029)" fill="#fff" stroke="#707070" stroke-width="2.5"/>
        <path id="Trazado_802313-2" data-name="Trazado 802313" d="M2674,849.736l-.572-.941a.865.865,0,0,1,.289-1.186l10.182-6.193a.865.865,0,0,1,1.186.289l.572.941a.865.865,0,0,1-.289,1.186l-10.182,6.193A.866.866,0,0,1,2674,849.736Z" transform="translate(-2577.136 -811.029)" fill="none" stroke="#000" stroke-linejoin="round" stroke-width="2.5"/>
        <path id="Trazado_802314-2" data-name="Trazado 802314" d="M2298.961,393.777a26.681,26.681,0,0,1-26.855-44.155Z" transform="translate(-2183.07 -337.046)" fill="#fff" stroke="#707070" stroke-width="2.5"/>
        <path id="Trazado_802315-2" data-name="Trazado 802315" d="M2298.961,393.777a26.681,26.681,0,0,1-26.855-44.155Z" transform="translate(-2183.07 -337.046)" fill="none" stroke="#000" stroke-linejoin="round" stroke-width="2.5"/>
        <path id="Trazado_802316-2" data-name="Trazado 802316" d="M2958.095,778.151a2.827,2.827,0,1,1,.947-3.884,2.827,2.827,0,0,1-.947,3.884" transform="translate(-2847.546 -745.105)" fill="#fff" stroke="#707070" stroke-width="2.5"/>
        <path id="Trazado_802317-2" data-name="Trazado 802317" d="M2958.095,778.151a2.827,2.827,0,1,1,.947-3.884A2.827,2.827,0,0,1,2958.095,778.151Z" transform="translate(-2847.546 -745.105)" fill="none" stroke="#000" stroke-linejoin="round" stroke-width="2.5"/>
        <path id="Trazado_802318-2" data-name="Trazado 802318" d="M960.036,1282.468l.572-.941a.866.866,0,0,0-.289-1.186l-10.182-6.193a.865.865,0,0,0-1.186.289l-.572.941a.865.865,0,0,0,.289,1.186l10.182,6.193a.865.865,0,0,0,1.186-.289" transform="translate(-914.144 -1228.195)" fill="#fff" stroke="#707070" stroke-width="2.5"/>
        <path id="Trazado_802319-2" data-name="Trazado 802319" d="M960.036,1282.468l.572-.941a.866.866,0,0,0-.289-1.186l-10.182-6.193a.865.865,0,0,0-1.186.289l-.572.941a.865.865,0,0,0,.289,1.186l10.182,6.193A.865.865,0,0,0,960.036,1282.468Z" transform="translate(-914.144 -1228.195)" fill="none" stroke="#000" stroke-linejoin="round" stroke-width="2.5"/>
        <path id="Trazado_802320-2" data-name="Trazado 802320" d="M746.706,826.509a26.681,26.681,0,0,0,26.855-44.155Z" transform="translate(-719.846 -754.212)" fill="#fff" stroke="#707070" stroke-width="2.5"/>
        <path id="Trazado_802321-2" data-name="Trazado 802321" d="M746.706,826.509a26.681,26.681,0,0,0,26.855-44.155Z" transform="translate(-719.846 -754.212)" fill="none" stroke="#000" stroke-linejoin="round" stroke-width="2.5"/>
        <path id="Trazado_802322-2" data-name="Trazado 802322" d="M858.822,1210.882a2.827,2.827,0,1,0-.946-3.885,2.827,2.827,0,0,0,.946,3.885" transform="translate(-826.619 -1162.271)" fill="#fff" stroke="#707070" stroke-width="2.5"/>
        <path id="Trazado_802323-2" data-name="Trazado 802323" d="M858.822,1210.882a2.827,2.827,0,1,0-.946-3.885A2.827,2.827,0,0,0,858.822,1210.882Z" transform="translate(-826.619 -1162.271)" fill="none" stroke="#000" stroke-linejoin="round" stroke-width="2.5"/>
      </g>
    </g>
    <path id="Trazado_802328" data-name="Trazado 802328" d="M-8341-8435.389s191.988-69.716,400,0" transform="translate(8941 12247.889)" fill="none" stroke="#fff" stroke-width="1" stroke-dasharray="6"/>
    <path id="Trazado_819457" data-name="Trazado 819457" d="M10.07-5.32A7.037,7.037,0,0,1,9.508-2.4,4.261,4.261,0,0,1,7.914-.5,4.385,4.385,0,0,1,5.508.156,4.347,4.347,0,0,1,3.125-.5,4.363,4.363,0,0,1,1.512-2.387a6.752,6.752,0,0,1-.59-2.832v-.82a6.953,6.953,0,0,1,.57-2.9,4.347,4.347,0,0,1,1.613-1.926,4.329,4.329,0,0,1,2.387-.668,4.41,4.41,0,0,1,2.41.66A4.253,4.253,0,0,1,9.508-8.957a7.071,7.071,0,0,1,.563,2.918ZM8.578-6.055A5.1,5.1,0,0,0,7.766-9.16a2.68,2.68,0,0,0-2.273-1.082A2.651,2.651,0,0,0,3.254-9.16a5,5,0,0,0-.84,3v.836a5.107,5.107,0,0,0,.824,3.082,2.662,2.662,0,0,0,2.27,1.121,2.652,2.652,0,0,0,2.25-1.059,5.079,5.079,0,0,0,.82-3.035Zm4.883-2.4.047,1.063a3.08,3.08,0,0,1,2.531-1.219q2.68,0,2.7,3.023V0H17.3V-5.594a1.946,1.946,0,0,0-.418-1.352A1.675,1.675,0,0,0,15.6-7.383a2.086,2.086,0,0,0-1.234.375,2.546,2.546,0,0,0-.828.984V0H12.094V-8.453ZM20.57-4.3a4.952,4.952,0,0,1,.922-3.129,2.915,2.915,0,0,1,2.414-1.184,2.932,2.932,0,0,1,2.352,1.016V-12H27.7V0H26.375L26.3-.906A2.943,2.943,0,0,1,23.891.156a2.887,2.887,0,0,1-2.395-1.2,5.008,5.008,0,0,1-.926-3.141Zm1.445.164a3.749,3.749,0,0,0,.594,2.25,1.92,1.92,0,0,0,1.641.813A2.108,2.108,0,0,0,26.258-2.3V-6.187a2.125,2.125,0,0,0-1.992-1.2,1.929,1.929,0,0,0-1.656.82A4.128,4.128,0,0,0,22.016-4.133ZM35.164,0a3.036,3.036,0,0,1-.2-.891A3.225,3.225,0,0,1,32.555.156,2.984,2.984,0,0,1,30.5-.551a2.287,2.287,0,0,1-.8-1.793,2.39,2.39,0,0,1,1-2.051,4.733,4.733,0,0,1,2.824-.73h1.406v-.664A1.623,1.623,0,0,0,34.484-7a1.821,1.821,0,0,0-1.336-.449,2.107,2.107,0,0,0-1.3.391,1.151,1.151,0,0,0-.523.945H29.875a2,2,0,0,1,.449-1.223,3.066,3.066,0,0,1,1.219-.934,4.1,4.1,0,0,1,1.691-.344,3.342,3.342,0,0,1,2.289.73,2.635,2.635,0,0,1,.859,2.012v3.891a4.757,4.757,0,0,0,.3,1.852V0Zm-2.4-1.1a2.54,2.54,0,0,0,1.289-.352,2.127,2.127,0,0,0,.883-.914V-4.1H33.8q-2.656,0-2.656,1.555A1.316,1.316,0,0,0,31.6-1.484,1.742,1.742,0,0,0,32.766-1.1Zm16.5-4.156h-4.93v4.031h5.727V0H42.836V-11.375h7.148v1.227H44.336v3.664h4.93ZM53.273,0H51.828V-12h1.445Zm5.82.156A3.693,3.693,0,0,1,56.3-.973a4.19,4.19,0,0,1-1.078-3.02v-.266A5.073,5.073,0,0,1,55.7-6.5a3.748,3.748,0,0,1,1.344-1.547,3.378,3.378,0,0,1,1.871-.559,3.166,3.166,0,0,1,2.563,1.086,4.7,4.7,0,0,1,.914,3.109v.6H56.664a3,3,0,0,0,.73,2.02,2.3,2.3,0,0,0,1.777.77,2.517,2.517,0,0,0,1.3-.312,3.259,3.259,0,0,0,.93-.828l.883.688A3.55,3.55,0,0,1,59.094.156Zm-.18-7.578a1.928,1.928,0,0,0-1.469.637A3.1,3.1,0,0,0,56.711-5h4.234v-.109a2.753,2.753,0,0,0-.594-1.707A1.815,1.815,0,0,0,58.914-7.422Zm8.539,6.4A2.082,2.082,0,0,0,68.8-1.492a1.649,1.649,0,0,0,.641-1.172h1.367a2.621,2.621,0,0,1-.5,1.383,3.293,3.293,0,0,1-1.23,1.047,3.55,3.55,0,0,1-1.629.391A3.482,3.482,0,0,1,64.707-1a4.59,4.59,0,0,1-1.02-3.152v-.242a5.089,5.089,0,0,1,.453-2.2,3.451,3.451,0,0,1,1.3-1.492,3.7,3.7,0,0,1,2-.531,3.39,3.39,0,0,1,2.363.852,3.043,3.043,0,0,1,1,2.211H69.445a1.992,1.992,0,0,0-.621-1.348,1.932,1.932,0,0,0-1.379-.527,2.023,2.023,0,0,0-1.707.793,3.724,3.724,0,0,0-.605,2.293v.273a3.65,3.65,0,0,0,.6,2.25A2.033,2.033,0,0,0,67.453-1.023ZM74.4-10.5v2.047h1.578v1.117H74.4v5.249a1.173,1.173,0,0,0,.211.763.888.888,0,0,0,.719.254,3.5,3.5,0,0,0,.688-.094V0a4.215,4.215,0,0,1-1.109.155A1.8,1.8,0,0,1,73.445-.43a2.517,2.517,0,0,1-.492-1.664V-7.336H71.414V-8.453h1.539V-10.5ZM81.75-7.156a4.331,4.331,0,0,0-.711-.055A1.9,1.9,0,0,0,79.109-6V0H77.664V-8.453H79.07l.023.977a2.251,2.251,0,0,1,2.016-1.133,1.477,1.477,0,0,1,.641.109ZM82.539-4.3a4.993,4.993,0,0,1,.488-2.234A3.643,3.643,0,0,1,84.387-8.07a3.7,3.7,0,0,1,1.988-.539,3.565,3.565,0,0,1,2.793,1.2,4.6,4.6,0,0,1,1.066,3.18v.1a5.036,5.036,0,0,1-.473,2.215A3.589,3.589,0,0,1,88.41-.391a3.743,3.743,0,0,1-2.02.547,3.556,3.556,0,0,1-2.785-1.2A4.575,4.575,0,0,1,82.539-4.2Zm1.453.172a3.616,3.616,0,0,0,.652,2.258,2.088,2.088,0,0,0,1.746.852,2.075,2.075,0,0,0,1.75-.863A3.955,3.955,0,0,0,88.789-4.3a3.61,3.61,0,0,0-.66-2.254,2.1,2.1,0,0,0-1.754-.863,2.075,2.075,0,0,0-1.727.852A3.925,3.925,0,0,0,83.992-4.133Zm9.414-4.32.039.938a3.122,3.122,0,0,1,2.508-1.094A2.417,2.417,0,0,1,98.367-7.25a3.2,3.2,0,0,1,1.1-.984,3.242,3.242,0,0,1,1.6-.375q2.781,0,2.828,2.945V0h-1.445V-5.578a1.941,1.941,0,0,0-.414-1.355,1.823,1.823,0,0,0-1.391-.449A1.916,1.916,0,0,0,99.3-6.9a1.949,1.949,0,0,0-.617,1.293V0H97.234V-5.539a1.613,1.613,0,0,0-1.8-1.844,1.934,1.934,0,0,0-1.945,1.211V0H92.039V-8.453ZM111.289,0a3.036,3.036,0,0,1-.2-.891A3.225,3.225,0,0,1,108.68.156a2.984,2.984,0,0,1-2.051-.707,2.288,2.288,0,0,1-.8-1.793,2.39,2.39,0,0,1,1-2.051,4.733,4.733,0,0,1,2.824-.73h1.406v-.664A1.623,1.623,0,0,0,110.609-7a1.821,1.821,0,0,0-1.336-.449,2.108,2.108,0,0,0-1.3.391,1.151,1.151,0,0,0-.523.945H106a2,2,0,0,1,.449-1.223,3.066,3.066,0,0,1,1.219-.934,4.1,4.1,0,0,1,1.691-.344,3.342,3.342,0,0,1,2.289.73,2.635,2.635,0,0,1,.859,2.012v3.891a4.757,4.757,0,0,0,.3,1.852V0Zm-2.4-1.1a2.54,2.54,0,0,0,1.289-.352,2.127,2.127,0,0,0,.883-.914V-4.1H109.93q-2.656,0-2.656,1.555a1.316,1.316,0,0,0,.453,1.063A1.742,1.742,0,0,0,108.891-1.1Zm5.539-3.2a4.968,4.968,0,0,1,.914-3.145,2.923,2.923,0,0,1,2.422-1.168,2.908,2.908,0,0,1,2.414,1.094l.07-.937h1.32V-.2a3.439,3.439,0,0,1-.973,2.586,3.589,3.589,0,0,1-2.613.945,4.348,4.348,0,0,1-1.789-.391,3.08,3.08,0,0,1-1.336-1.07l.75-.867a2.826,2.826,0,0,0,2.273,1.148,2.214,2.214,0,0,0,1.645-.594,2.269,2.269,0,0,0,.59-1.672V-.844a2.971,2.971,0,0,1-2.367,1,2.887,2.887,0,0,1-2.4-1.2A5.224,5.224,0,0,1,114.43-4.3Zm1.453.164a3.79,3.79,0,0,0,.586,2.246,1.9,1.9,0,0,0,1.641.816,2.117,2.117,0,0,0,2.008-1.242V-6.172a2.142,2.142,0,0,0-1.992-1.211,1.921,1.921,0,0,0-1.648.82A4.128,4.128,0,0,0,115.883-4.133Zm9.234-4.32.047,1.063A3.08,3.08,0,0,1,127.7-8.609q2.68,0,2.7,3.023V0h-1.445V-5.594a1.946,1.946,0,0,0-.418-1.352,1.675,1.675,0,0,0-1.277-.437,2.086,2.086,0,0,0-1.234.375,2.546,2.546,0,0,0-.828.984V0H123.75V-8.453ZM136.086.156a3.693,3.693,0,0,1-2.8-1.129,4.19,4.19,0,0,1-1.078-3.02v-.266a5.073,5.073,0,0,1,.48-2.246,3.748,3.748,0,0,1,1.344-1.547,3.378,3.378,0,0,1,1.871-.559,3.166,3.166,0,0,1,2.563,1.086,4.7,4.7,0,0,1,.914,3.109v.6h-5.727a3,3,0,0,0,.73,2.02,2.3,2.3,0,0,0,1.777.77,2.517,2.517,0,0,0,1.3-.312,3.258,3.258,0,0,0,.93-.828l.883.688A3.55,3.55,0,0,1,136.086.156Zm-.18-7.578a1.928,1.928,0,0,0-1.469.637A3.1,3.1,0,0,0,133.7-5h4.234v-.109a2.753,2.753,0,0,0-.594-1.707A1.815,1.815,0,0,0,135.906-7.422Zm.7-4.562h1.75l-2.094,2.3-1.164,0Zm6.406,1.484v2.047h1.578v1.117h-1.578v5.249a1.173,1.173,0,0,0,.211.763.888.888,0,0,0,.719.254,3.5,3.5,0,0,0,.688-.094V0a4.215,4.215,0,0,1-1.109.155,1.8,1.8,0,0,1-1.461-.586,2.517,2.517,0,0,1-.492-1.664V-7.336h-1.539V-8.453h1.539V-10.5ZM147.852,0h-1.445V-8.453h1.445Zm-1.562-10.7a.863.863,0,0,1,.215-.594.807.807,0,0,1,.637-.242.819.819,0,0,1,.641.242A.854.854,0,0,1,148-10.7a.826.826,0,0,1-.219.586.834.834,0,0,1-.641.234.821.821,0,0,1-.637-.234A.834.834,0,0,1,146.289-10.7Zm7.266,9.672a2.082,2.082,0,0,0,1.352-.469,1.649,1.649,0,0,0,.641-1.172h1.367a2.621,2.621,0,0,1-.5,1.383,3.293,3.293,0,0,1-1.23,1.047,3.55,3.55,0,0,1-1.629.391A3.482,3.482,0,0,1,150.809-1a4.59,4.59,0,0,1-1.02-3.152v-.242a5.089,5.089,0,0,1,.453-2.2,3.451,3.451,0,0,1,1.3-1.492,3.7,3.7,0,0,1,2-.531,3.39,3.39,0,0,1,2.363.852,3.043,3.043,0,0,1,1,2.211h-1.367a1.992,1.992,0,0,0-.621-1.348,1.932,1.932,0,0,0-1.379-.527,2.023,2.023,0,0,0-1.707.793,3.724,3.724,0,0,0-.605,2.293v.273a3.65,3.65,0,0,0,.6,2.25A2.033,2.033,0,0,0,153.555-1.023ZM163.758,0a3.036,3.036,0,0,1-.2-.891A3.225,3.225,0,0,1,161.148.156,2.984,2.984,0,0,1,159.1-.551a2.287,2.287,0,0,1-.8-1.793,2.39,2.39,0,0,1,1-2.051,4.733,4.733,0,0,1,2.824-.73h1.406v-.664A1.623,1.623,0,0,0,163.078-7a1.821,1.821,0,0,0-1.336-.449,2.107,2.107,0,0,0-1.3.391,1.151,1.151,0,0,0-.523.945h-1.453a2,2,0,0,1,.449-1.223,3.066,3.066,0,0,1,1.219-.934,4.1,4.1,0,0,1,1.691-.344,3.342,3.342,0,0,1,2.289.73,2.635,2.635,0,0,1,.859,2.012v3.891a4.757,4.757,0,0,0,.3,1.852V0Zm-2.4-1.1a2.54,2.54,0,0,0,1.289-.352,2.127,2.127,0,0,0,.883-.914V-4.1H162.4q-2.656,0-2.656,1.555a1.316,1.316,0,0,0,.453,1.063A1.742,1.742,0,0,0,161.359-1.1Z" transform="translate(705 3818)" fill="#fff"/>
    <path id="Trazado_802329" data-name="Trazado 802329" d="M-7941-8466.373s-191.988,69.716-400,0" transform="translate(8941 12328.373)" fill="none" stroke="#fff" stroke-width="1" stroke-dasharray="6"/>
    <path id="Trazado_819456" data-name="Trazado 819456" d="M3.133-4.219V0H1.156V-11.375H5.508a4.4,4.4,0,0,1,3.027.993A3.34,3.34,0,0,1,9.656-7.754a3.229,3.229,0,0,1-1.1,2.6,4.613,4.613,0,0,1-3.074.931Zm0-1.594H5.508a2.339,2.339,0,0,0,1.609-.5,1.823,1.823,0,0,0,.555-1.434,1.967,1.967,0,0,0-.562-1.473,2.168,2.168,0,0,0-1.547-.566H3.133ZM16.32-.828a2.944,2.944,0,0,1-2.375.984,2.624,2.624,0,0,1-2.082-.8,3.423,3.423,0,0,1-.707-2.328V-8.453h1.9V-3q0,1.609,1.336,1.609a1.876,1.876,0,0,0,1.867-.992v-6.07h1.9V0H16.367Zm5.531-7.625.055.977a3.039,3.039,0,0,1,2.461-1.133q2.641,0,2.688,3.023V0h-1.9V-5.477a1.741,1.741,0,0,0-.348-1.191,1.462,1.462,0,0,0-1.137-.387,1.829,1.829,0,0,0-1.711,1.039V0h-1.9V-8.453Zm9.516-2.055v2.055h1.492v1.406H31.367v4.719a1.039,1.039,0,0,0,.191.7.888.888,0,0,0,.684.215,2.924,2.924,0,0,0,.664-.078V-.023a4.676,4.676,0,0,1-1.25.18q-2.188,0-2.187-2.414V-7.047H28.078V-8.453h1.391v-2.055Zm2.352,6.2a4.984,4.984,0,0,1,.492-2.238,3.6,3.6,0,0,1,1.383-1.531,3.9,3.9,0,0,1,2.047-.535,3.692,3.692,0,0,1,2.777,1.1A4.333,4.333,0,0,1,41.57-4.586l.008.445a5.029,5.029,0,0,1-.48,2.234A3.551,3.551,0,0,1,39.723-.383a3.925,3.925,0,0,1-2.066.539,3.667,3.667,0,0,1-2.863-1.191,4.563,4.563,0,0,1-1.074-3.176Zm1.9.164A3.406,3.406,0,0,0,36.156-2.1a1.752,1.752,0,0,0,1.5.738,1.733,1.733,0,0,0,1.5-.75,3.762,3.762,0,0,0,.535-2.2,3.362,3.362,0,0,0-.551-2.031,1.759,1.759,0,0,0-1.5-.75,1.743,1.743,0,0,0-1.477.738A3.691,3.691,0,0,0,35.617-4.141ZM49.4,1.492H42.234V0H49.4Zm2.789-9.945.055.883A3.042,3.042,0,0,1,54.68-8.609,2.337,2.337,0,0,1,57-7.312a3,3,0,0,1,2.594-1.3,2.636,2.636,0,0,1,2.082.773,3.405,3.405,0,0,1,.7,2.281V0h-1.9V-5.5a1.681,1.681,0,0,0-.352-1.18,1.539,1.539,0,0,0-1.164-.375,1.581,1.581,0,0,0-1.059.348,1.833,1.833,0,0,0-.574.91L57.336,0h-1.9V-5.562a1.354,1.354,0,0,0-1.523-1.492,1.671,1.671,0,0,0-1.617.93V0H50.4V-8.453ZM69.375,0a2.93,2.93,0,0,1-.219-.789,2.955,2.955,0,0,1-2.219.945A2.982,2.982,0,0,1,64.859-.57a2.325,2.325,0,0,1-.8-1.8,2.4,2.4,0,0,1,1-2.074,4.865,4.865,0,0,1,2.871-.723h1.164v-.555a1.481,1.481,0,0,0-.367-1.051,1.456,1.456,0,0,0-1.117-.395,1.672,1.672,0,0,0-1.062.324,1,1,0,0,0-.414.824h-1.9a2.107,2.107,0,0,1,.461-1.3,3.071,3.071,0,0,1,1.254-.949,4.4,4.4,0,0,1,1.77-.344,3.547,3.547,0,0,1,2.367.746,2.661,2.661,0,0,1,.906,2.1v3.813a4.321,4.321,0,0,0,.32,1.82V0ZM67.289-1.367a2.159,2.159,0,0,0,1.059-.273,1.827,1.827,0,0,0,.746-.734V-3.969H68.07a2.8,2.8,0,0,0-1.586.367,1.189,1.189,0,0,0-.531,1.039,1.109,1.109,0,0,0,.363.871A1.407,1.407,0,0,0,67.289-1.367Zm8.727-4.3,1.609-2.781h2.109L77.148-4.289,79.82,0H77.727L76.039-2.891,74.359,0H72.25l2.672-4.289L72.344-8.453h2.094Z" transform="translate(750 3762)" fill="#fff"/>
    <path id="Trazado_819458" data-name="Trazado 819458" d="M3.133-4.219V0H1.156V-11.375H5.508a4.4,4.4,0,0,1,3.027.993A3.34,3.34,0,0,1,9.656-7.754a3.229,3.229,0,0,1-1.1,2.6,4.613,4.613,0,0,1-3.074.931Zm0-1.594H5.508a2.339,2.339,0,0,0,1.609-.5,1.823,1.823,0,0,0,.555-1.434,1.967,1.967,0,0,0-.562-1.473,2.168,2.168,0,0,0-1.547-.566H3.133ZM16.32-.828a2.944,2.944,0,0,1-2.375.984,2.624,2.624,0,0,1-2.082-.8,3.423,3.423,0,0,1-.707-2.328V-8.453h1.9V-3q0,1.609,1.336,1.609a1.876,1.876,0,0,0,1.867-.992v-6.07h1.9V0H16.367Zm5.531-7.625.055.977a3.039,3.039,0,0,1,2.461-1.133q2.641,0,2.688,3.023V0h-1.9V-5.477a1.741,1.741,0,0,0-.348-1.191,1.462,1.462,0,0,0-1.137-.387,1.829,1.829,0,0,0-1.711,1.039V0h-1.9V-8.453Zm9.516-2.055v2.055h1.492v1.406H31.367v4.719a1.039,1.039,0,0,0,.191.7.888.888,0,0,0,.684.215,2.924,2.924,0,0,0,.664-.078V-.023a4.676,4.676,0,0,1-1.25.18q-2.188,0-2.187-2.414V-7.047H28.078V-8.453h1.391v-2.055Zm2.352,6.2a4.984,4.984,0,0,1,.492-2.238,3.6,3.6,0,0,1,1.383-1.531,3.9,3.9,0,0,1,2.047-.535,3.692,3.692,0,0,1,2.777,1.1A4.333,4.333,0,0,1,41.57-4.586l.008.445a5.029,5.029,0,0,1-.48,2.234A3.551,3.551,0,0,1,39.723-.383a3.925,3.925,0,0,1-2.066.539,3.667,3.667,0,0,1-2.863-1.191,4.563,4.563,0,0,1-1.074-3.176Zm1.9.164A3.406,3.406,0,0,0,36.156-2.1a1.752,1.752,0,0,0,1.5.738,1.733,1.733,0,0,0,1.5-.75,3.762,3.762,0,0,0,.535-2.2,3.362,3.362,0,0,0-.551-2.031,1.759,1.759,0,0,0-1.5-.75,1.743,1.743,0,0,0-1.477.738A3.691,3.691,0,0,0,35.617-4.141ZM49.4,1.492H42.234V0H49.4Zm2.789-9.945.055.883A3.042,3.042,0,0,1,54.68-8.609,2.337,2.337,0,0,1,57-7.312a3,3,0,0,1,2.594-1.3,2.636,2.636,0,0,1,2.082.773,3.405,3.405,0,0,1,.7,2.281V0h-1.9V-5.5a1.681,1.681,0,0,0-.352-1.18,1.539,1.539,0,0,0-1.164-.375,1.581,1.581,0,0,0-1.059.348,1.833,1.833,0,0,0-.574.91L57.336,0h-1.9V-5.562a1.354,1.354,0,0,0-1.523-1.492,1.671,1.671,0,0,0-1.617.93V0H50.4V-8.453ZM66.344,0h-1.9V-8.453h1.9ZM64.328-10.656a1.02,1.02,0,0,1,.277-.732,1.043,1.043,0,0,1,.793-.291,1.056,1.056,0,0,1,.8.291,1.012,1.012,0,0,1,.281.732.988.988,0,0,1-.281.72,1.064,1.064,0,0,1-.8.287,1.051,1.051,0,0,1-.793-.287A1,1,0,0,1,64.328-10.656Zm5.844,2.2.055.977a3.039,3.039,0,0,1,2.461-1.133q2.641,0,2.688,3.023V0h-1.9V-5.477a1.741,1.741,0,0,0-.348-1.191,1.462,1.462,0,0,0-1.137-.387,1.829,1.829,0,0,0-1.711,1.039V0h-1.9V-8.453Z" transform="translate(750 3917)" fill="#fff"/>
  </g>
</svg>
