<svg xmlns="http://www.w3.org/2000/svg" width="321" height="121" viewBox="0 0 321 121">
  <g id="Grupo_1073379" data-name="Grupo 1073379" transform="translate(-640 -4038)">
    <rect id="Rectángulo_375099" data-name="Rectángulo 375099" width="321" height="121" rx="8" transform="translate(640 4038)" fill="#6e40fc"/>
    <g id="Grupo_1067345" data-name="Grupo 1067345" transform="translate(12.105 94)">
      <g id="Grupo_1067344" data-name="Grupo 1067344" transform="translate(150 -24.875)">
        <path id="Trazado_819461" data-name="Trazado 819461" d="M3.469-5.586A6.511,6.511,0,0,1,4.941-7.109a2.515,2.515,0,0,1,1.434-.484,4.445,4.445,0,0,1,.953.086l-.375,1.75h-.8a1.808,1.808,0,0,0-.133-.508.563.563,0,0,0-.2-.25.569.569,0,0,0-.3-.07,1.067,1.067,0,0,0-.613.242,4.2,4.2,0,0,0-.746.758,6.006,6.006,0,0,0-.66.992,5.079,5.079,0,0,0-.41,1.211L2.344,0H.992L2.125-4.953a7.315,7.315,0,0,0,.141-.727,3.686,3.686,0,0,0,.031-.43.787.787,0,0,0-.1-.453.368.368,0,0,0-.32-.141.874.874,0,0,0-.512.2,5.607,5.607,0,0,0-.738.723L.18-6.219a7.51,7.51,0,0,1,1.2-1.066A1.916,1.916,0,0,1,2.453-7.6a.982.982,0,0,1,.777.324,1.236,1.236,0,0,1,.285.848,2.378,2.378,0,0,1-.148.8Zm12.508-.242H8.992V-7.672h6.984Zm0,3.383H8.992V-4.289h6.984ZM23.344,0H21.086V-8.715l-2.7.832V-9.7L23.1-11.391h.242Zm11.43-10.115L30.375,0H27.992L32.4-9.555H26.742v-1.82h8.031ZM36.43-1.109a1.137,1.137,0,0,1,.363-.875,1.289,1.289,0,0,1,.91-.336,1.3,1.3,0,0,1,.918.336,1.137,1.137,0,0,1,.363.875,1.121,1.121,0,0,1-.359.863A1.305,1.305,0,0,1,37.7.086a1.294,1.294,0,0,1-.914-.332A1.121,1.121,0,0,1,36.43-1.109Zm6.734-5.578h1.2a1.7,1.7,0,0,0,1.273-.43,1.574,1.574,0,0,0,.414-1.141,1.392,1.392,0,0,0-.41-1.07,1.59,1.59,0,0,0-1.129-.383,1.666,1.666,0,0,0-1.086.355,1.137,1.137,0,0,0-.437.926H40.734a2.777,2.777,0,0,1,.48-1.6,3.2,3.2,0,0,1,1.344-1.105,4.485,4.485,0,0,1,1.9-.4,4.253,4.253,0,0,1,2.828.863,2.945,2.945,0,0,1,1.023,2.379,2.394,2.394,0,0,1-.477,1.438,3.1,3.1,0,0,1-1.25,1.008A2.826,2.826,0,0,1,48.02-4.812a2.8,2.8,0,0,1,.473,1.625,2.994,2.994,0,0,1-1.105,2.43,4.445,4.445,0,0,1-2.926.914,4.214,4.214,0,0,1-2.785-.9,2.934,2.934,0,0,1-1.082-2.375h2.258a1.308,1.308,0,0,0,.48,1.047,1.771,1.771,0,0,0,1.184.406,1.779,1.779,0,0,0,1.262-.426,1.47,1.47,0,0,0,.457-1.129q0-1.7-1.875-1.7h-1.2ZM57.844,0h-7.8V-1.547l3.68-3.922a9.078,9.078,0,0,0,1.121-1.445,2.322,2.322,0,0,0,.363-1.172,1.738,1.738,0,0,0-.383-1.191,1.382,1.382,0,0,0-1.094-.434,1.49,1.49,0,0,0-1.207.527A2.089,2.089,0,0,0,52.086-7.8H49.82a3.729,3.729,0,0,1,.5-1.9,3.5,3.5,0,0,1,1.4-1.348,4.262,4.262,0,0,1,2.055-.488,4.036,4.036,0,0,1,2.73.844A2.985,2.985,0,0,1,57.477-8.3a3.825,3.825,0,0,1-.437,1.719,9.551,9.551,0,0,1-1.5,2.039L52.953-1.82h4.891Z" transform="translate(555 4039)" fill="#fff"/>
        <path id="Trazado_802330" data-name="Trazado 802330" d="M-8333.51-7651.111l8.113,17.3,8.334-71.318h96.852" transform="translate(8941 11700)" fill="none" stroke="#fff" stroke-width="2"/>
        <path id="Trazado_819459" data-name="Trazado 819459" d="M.516-4.289A5.094,5.094,0,0,1,1.4-7.437,2.877,2.877,0,0,1,3.828-8.609a2.589,2.589,0,0,1,2.039.922V-12H8.133V0H6.094L5.984-.9A2.657,2.657,0,0,1,3.813.156,2.869,2.869,0,0,1,1.418-1.02,5.258,5.258,0,0,1,.516-4.289Zm2.258.161A3.355,3.355,0,0,0,3.188-2.3a1.348,1.348,0,0,0,1.2.636,1.51,1.51,0,0,0,1.477-.887V-5.9a1.489,1.489,0,0,0-1.461-.887Q2.773-6.789,2.773-4.128Zm7.211-.5a11.99,11.99,0,0,1,.477-3.406,8.989,8.989,0,0,1,1.406-2.863,5.251,5.251,0,0,1,2.016-1.73l.438,1.219A5.438,5.438,0,0,0,12.539-8.8,12.082,12.082,0,0,0,11.9-4.672v.242a12.313,12.313,0,0,0,.633,4.141A5.544,5.544,0,0,0,14.32,2.359l-.437,1.2A5.253,5.253,0,0,1,11.9,1.871,8.838,8.838,0,0,1,10.5-.914a11.918,11.918,0,0,1-.516-3.3Zm9.227.063L17.992-3.25V0H15.648V-11.375h2.344v5.156l1.031-1.414,2.9-3.742H24.8L20.766-6.32,24.922,0H22.133Zm8.563-3.891.07.945a2.971,2.971,0,0,1,2.43-1.1A2.255,2.255,0,0,1,32.516-7.32a2.9,2.9,0,0,1,2.539-1.289,2.521,2.521,0,0,1,2.047.8,3.681,3.681,0,0,1,.672,2.41V0H35.508V-5.4a1.616,1.616,0,0,0-.281-1.053,1.245,1.245,0,0,0-.992-.333,1.409,1.409,0,0,0-1.406.971L32.836,0H30.578V-5.4a1.6,1.6,0,0,0-.289-1.065,1.257,1.257,0,0,0-.984-.329,1.463,1.463,0,0,0-1.391.8V0H25.656V-8.453Zm14.438-2.078v2.078h1.445V-6.8H42.211v4.219a1.007,1.007,0,0,0,.18.672.9.9,0,0,0,.688.2,3.6,3.6,0,0,0,.664-.055V-.047a4.648,4.648,0,0,1-1.367.2,2.156,2.156,0,0,1-2.422-2.4V-6.8H38.719V-8.453h1.234v-2.078ZM48.8-4.445a11.377,11.377,0,0,1-.508,3.4,9.225,9.225,0,0,1-1.461,2.883A5.264,5.264,0,0,1,44.8,3.555l-.437-1.2a5.494,5.494,0,0,0,1.75-2.578,11.939,11.939,0,0,0,.664-4.008v-.414a12.208,12.208,0,0,0-.637-4.117,5.727,5.727,0,0,0-1.777-2.672l.438-1.2a5.265,5.265,0,0,1,2,1.672,9.106,9.106,0,0,1,1.461,2.82A11.3,11.3,0,0,1,48.8-4.8Z" transform="translate(635 4026)" fill="#fff"/>
        <path id="Trazado_802331" data-name="Trazado 802331" d="M-8312.99-7669.466H-8236" transform="translate(8941 11703)" fill="none" stroke="#fff" stroke-width="2"/>
        <path id="Trazado_819460" data-name="Trazado 819460" d="M7.453-4.281H8.742v1.82H7.453V0H5.2V-2.461H.531L.43-3.883l4.742-7.492H7.453Zm-4.773,0H5.2V-8.3l-.148.258ZM10.664,0V-6.8H9.406V-8.453h1.258v-.719a2.918,2.918,0,0,1,.816-2.207,3.162,3.162,0,0,1,2.285-.785,5.321,5.321,0,0,1,1.148.155l-.023,1.736a2.878,2.878,0,0,0-.687-.07q-1.273,0-1.273,1.205v.685h1.68V-6.8H12.93V0Zm5.219-4.625a11.99,11.99,0,0,1,.477-3.406,8.989,8.989,0,0,1,1.406-2.863,5.251,5.251,0,0,1,2.016-1.73l.438,1.219A5.438,5.438,0,0,0,18.438-8.8,12.082,12.082,0,0,0,17.8-4.672v.242A12.313,12.313,0,0,0,18.43-.289a5.544,5.544,0,0,0,1.789,2.648l-.437,1.2A5.253,5.253,0,0,1,17.8,1.871,8.838,8.838,0,0,1,16.4-.914a11.918,11.918,0,0,1-.516-3.3ZM30.547-1.437A4.068,4.068,0,0,1,28.758-.262,7.492,7.492,0,0,1,26.2.156a5.076,5.076,0,0,1-2.59-.645,4.3,4.3,0,0,1-1.719-1.871,6.585,6.585,0,0,1-.621-2.883v-.773a6.994,6.994,0,0,1,.574-2.949A4.248,4.248,0,0,1,23.5-10.871a4.771,4.771,0,0,1,2.535-.66,4.751,4.751,0,0,1,3.164.965,4.123,4.123,0,0,1,1.352,2.809H28.266a2.268,2.268,0,0,0-.691-1.43A2.208,2.208,0,0,0,26.1-9.641a2.078,2.078,0,0,0-1.82.9,4.724,4.724,0,0,0-.633,2.672v.727a4.5,4.5,0,0,0,.68,2.7,2.327,2.327,0,0,0,1.992.914A2.6,2.6,0,0,0,28.2-2.289V-4.25H26.07V-5.977h4.477ZM34.5-7.531a2.818,2.818,0,0,1,2.258-1.078q2.75,0,2.789,3.2V0H37.289V-5.364a1.577,1.577,0,0,0-.312-1.077,1.338,1.338,0,0,0-1.039-.348,1.536,1.536,0,0,0-1.437.767V0H32.242V-12H34.5ZM43.844-1.82h4.133V0H40.961V-1.375l3.977-5.258H41.078v-1.82h6.773v1.33Zm9.438-2.625a11.377,11.377,0,0,1-.508,3.4,9.225,9.225,0,0,1-1.461,2.883,5.264,5.264,0,0,1-2.039,1.719l-.437-1.2a5.494,5.494,0,0,0,1.75-2.578,11.939,11.939,0,0,0,.664-4.008v-.414a12.208,12.208,0,0,0-.637-4.117,5.727,5.727,0,0,0-1.777-2.672l.438-1.2a5.265,5.265,0,0,1,2,1.672,9.106,9.106,0,0,1,1.461,2.82A11.3,11.3,0,0,1,53.281-4.8Z" transform="translate(635 4052)" fill="#fff"/>
      </g>
    </g>
  </g>
</svg>
