<svg xmlns="http://www.w3.org/2000/svg" width="321" height="121" viewBox="0 0 321 121">
  <g id="Grupo_1067376" data-name="Grupo 1067376" transform="translate(-640 -4038)">
    <rect id="Rectángulo_375099" data-name="Rectángulo 375099" width="321" height="121" rx="8" transform="translate(640 4038)" fill="#6e40fc"/>
    <g id="Grupo_1067345" data-name="Grupo 1067345" transform="translate(12.105 94)">
      <g id="Grupo_1067344" data-name="Grupo 1067344" transform="translate(150 -24.875)">
        <path id="Trazado_802360" data-name="Trazado 802360" d="M2.576-4.144l.816-3.472H3.04L.816-7.44v.432s.32-.032.5-.032c.448,0,.528.176.528.48a5.3,5.3,0,0,1-.144.992L.512,0h1.36l.48-2.24c.256-.64,1.7-4.08,2.464-4.08.048,0,.208.592.72.592.416,0,.848-.3.848-1.008a.841.841,0,0,0-.9-.928c-1.28,0-2.24,2.448-2.752,3.52ZM14.639-5.828H7.655V-7.672h6.984Zm0,3.383H7.655V-4.289h6.984ZM22.006,0H19.748V-8.7l-2.7.836V-9.7l4.711-1.687h.242Zm11.43-10.109L29.037,0H26.654l4.406-9.547H25.4v-1.828h8.031Zm1.656,9a1.137,1.137,0,0,1,.363-.875,1.289,1.289,0,0,1,.91-.336,1.3,1.3,0,0,1,.918.336,1.137,1.137,0,0,1,.363.875,1.121,1.121,0,0,1-.359.863,1.305,1.305,0,0,1-.922.332,1.294,1.294,0,0,1-.914-.332A1.121,1.121,0,0,1,35.092-1.109Zm6.734-5.578h1.2a1.7,1.7,0,0,0,1.273-.43,1.574,1.574,0,0,0,.414-1.141,1.392,1.392,0,0,0-.41-1.07,1.59,1.59,0,0,0-1.129-.383,1.666,1.666,0,0,0-1.086.355,1.137,1.137,0,0,0-.437.926H39.4a2.777,2.777,0,0,1,.48-1.6,3.2,3.2,0,0,1,1.344-1.105,4.485,4.485,0,0,1,1.9-.4,4.253,4.253,0,0,1,2.828.863,2.945,2.945,0,0,1,1.023,2.379A2.394,2.394,0,0,1,46.5-6.852a3.1,3.1,0,0,1-1.25,1.008,2.826,2.826,0,0,1,1.434,1.031,2.8,2.8,0,0,1,.473,1.625,2.994,2.994,0,0,1-1.105,2.43,4.445,4.445,0,0,1-2.926.914,4.214,4.214,0,0,1-2.785-.9,2.934,2.934,0,0,1-1.082-2.375h2.258a1.308,1.308,0,0,0,.48,1.047,1.771,1.771,0,0,0,1.184.406A1.779,1.779,0,0,0,44.44-2.09,1.47,1.47,0,0,0,44.9-3.219q0-1.7-1.875-1.7h-1.2ZM56.506,0h-7.8V-1.547l3.68-3.922A9.078,9.078,0,0,0,53.51-6.914a2.322,2.322,0,0,0,.363-1.172,1.738,1.738,0,0,0-.383-1.191A1.382,1.382,0,0,0,52.4-9.711a1.49,1.49,0,0,0-1.207.527A2.089,2.089,0,0,0,50.748-7.8H48.483a3.729,3.729,0,0,1,.5-1.9,3.5,3.5,0,0,1,1.4-1.348,4.262,4.262,0,0,1,2.055-.488,4.036,4.036,0,0,1,2.73.844A2.985,2.985,0,0,1,56.139-8.3,3.825,3.825,0,0,1,55.7-6.586a9.551,9.551,0,0,1-1.5,2.039L51.615-1.82h4.891Z" transform="translate(555 4039)" fill="#fff"/>
        <path id="Trazado_802330" data-name="Trazado 802330" d="M-8333.51-7651.111l8.113,17.3,8.334-71.318h96.852" transform="translate(8941 11700)" fill="none" stroke="#fff" stroke-width="2"/>
        <path id="Trazado_802358" data-name="Trazado 802358" d="M.516-4.289A5.094,5.094,0,0,1,1.4-7.437,2.877,2.877,0,0,1,3.828-8.609a2.589,2.589,0,0,1,2.039.922V-12H8.133V0H6.094L5.984-.9A2.657,2.657,0,0,1,3.813.156,2.869,2.869,0,0,1,1.418-1.02,5.258,5.258,0,0,1,.516-4.289Zm2.258.164A3.328,3.328,0,0,0,3.188-2.3a1.349,1.349,0,0,0,1.2.633,1.511,1.511,0,0,0,1.477-.883V-5.891a1.489,1.489,0,0,0-1.461-.883Q2.773-6.773,2.773-4.125Zm7.211-.5a11.99,11.99,0,0,1,.477-3.406,8.989,8.989,0,0,1,1.406-2.863,5.251,5.251,0,0,1,2.016-1.73l.438,1.219A5.438,5.438,0,0,0,12.539-8.8,12.082,12.082,0,0,0,11.9-4.672v.242a12.313,12.313,0,0,0,.633,4.141A5.544,5.544,0,0,0,14.32,2.359l-.437,1.2A5.253,5.253,0,0,1,11.9,1.871,8.838,8.838,0,0,1,10.5-.914a11.918,11.918,0,0,1-.516-3.3ZM18.57-3.391l-.812.813V0H15.5V-12h2.258v6.648l.438-.562,2.164-2.539H23.07L20.016-4.93,23.336,0H20.742Zm7.594-5.062.07.945a2.971,2.971,0,0,1,2.43-1.1A2.255,2.255,0,0,1,30.906-7.32a2.9,2.9,0,0,1,2.539-1.289,2.521,2.521,0,0,1,2.047.8,3.681,3.681,0,0,1,.672,2.41V0H33.9V-5.391a1.61,1.61,0,0,0-.281-1.051,1.246,1.246,0,0,0-.992-.332,1.409,1.409,0,0,0-1.406.969L31.227,0H28.969V-5.383a1.59,1.59,0,0,0-.289-1.062,1.259,1.259,0,0,0-.984-.328,1.463,1.463,0,0,0-1.391.8V0H24.047V-8.453ZM41.789-4.445a11.377,11.377,0,0,1-.508,3.4A9.225,9.225,0,0,1,39.82,1.836a5.264,5.264,0,0,1-2.039,1.719l-.437-1.2a5.494,5.494,0,0,0,1.75-2.578,11.939,11.939,0,0,0,.664-4.008v-.414a12.208,12.208,0,0,0-.637-4.117,5.727,5.727,0,0,0-1.777-2.672l.438-1.2a5.265,5.265,0,0,1,2,1.672,9.106,9.106,0,0,1,1.461,2.82A11.3,11.3,0,0,1,41.789-4.8Z" transform="translate(635 4026)" fill="#fff"/>
        <path id="Trazado_802331" data-name="Trazado 802331" d="M-8312.99-7669.466H-8236" transform="translate(8941 11703)" fill="none" stroke="#fff" stroke-width="2"/>
        <path id="Trazado_802359" data-name="Trazado 802359" d="M7.453-4.281H8.742v1.82H7.453V0H5.2V-2.461H.531L.43-3.883l4.742-7.492H7.453Zm-4.773,0H5.2V-8.3l-.148.258ZM10.664,0V-6.8H9.406V-8.453h1.258v-.719a2.918,2.918,0,0,1,.816-2.207,3.162,3.162,0,0,1,2.285-.785,5.278,5.278,0,0,1,1.148.156l-.023,1.75a2.878,2.878,0,0,0-.687-.07q-1.273,0-1.273,1.2v.68h1.68V-6.8H12.93V0Zm5.219-4.625a11.99,11.99,0,0,1,.477-3.406,8.989,8.989,0,0,1,1.406-2.863,5.251,5.251,0,0,1,2.016-1.73l.438,1.219A5.438,5.438,0,0,0,18.438-8.8,12.082,12.082,0,0,0,17.8-4.672v.242A12.313,12.313,0,0,0,18.43-.289a5.544,5.544,0,0,0,1.789,2.648l-.437,1.2A5.253,5.253,0,0,1,17.8,1.871,8.838,8.838,0,0,1,16.4-.914a11.918,11.918,0,0,1-.516-3.3ZM30.547-1.437A4.068,4.068,0,0,1,28.758-.262,7.492,7.492,0,0,1,26.2.156a5.076,5.076,0,0,1-2.59-.645,4.3,4.3,0,0,1-1.719-1.871,6.585,6.585,0,0,1-.621-2.883v-.773a6.994,6.994,0,0,1,.574-2.949A4.248,4.248,0,0,1,23.5-10.871a4.771,4.771,0,0,1,2.535-.66,4.751,4.751,0,0,1,3.164.965,4.123,4.123,0,0,1,1.352,2.809H28.266a2.268,2.268,0,0,0-.691-1.43A2.208,2.208,0,0,0,26.1-9.641a2.078,2.078,0,0,0-1.82.9,4.724,4.724,0,0,0-.633,2.672v.727a4.5,4.5,0,0,0,.68,2.7,2.327,2.327,0,0,0,1.992.914A2.6,2.6,0,0,0,28.2-2.289V-4.25H26.07V-5.977h4.477ZM41.7,0H39.359V-4.875h-4.57V0H32.445V-11.375h2.344v4.609h4.57v-4.609H41.7ZM46.2-1.82h4.133V0H43.313V-1.375l3.977-5.25H43.43V-8.453H50.2v1.336Zm9.438-2.625a11.377,11.377,0,0,1-.508,3.4,9.225,9.225,0,0,1-1.461,2.883,5.264,5.264,0,0,1-2.039,1.719l-.437-1.2a5.494,5.494,0,0,0,1.75-2.578A11.939,11.939,0,0,0,53.6-4.227v-.414a12.208,12.208,0,0,0-.637-4.117,5.727,5.727,0,0,0-1.777-2.672l.438-1.2a5.265,5.265,0,0,1,2,1.672,9.106,9.106,0,0,1,1.461,2.82A11.3,11.3,0,0,1,55.633-4.8Z" transform="translate(635 4052)" fill="#fff"/>
      </g>
    </g>
  </g>
</svg>
