<svg xmlns="http://www.w3.org/2000/svg" width="43" height="43" viewBox="0 0 43 43">
  <g id="Grupo_1073383" data-name="Grupo 1073383" transform="translate(-1716 5981)">
    <circle id="Elipse_9684" data-name="Elipse 9684" cx="21.5" cy="21.5" r="21.5" transform="translate(1716 -5981)" fill="#bab7fc"/>
    <path id="Trazado_819464" data-name="Trazado 819464" d="M4.652-10.184H6.516A1.937,1.937,0,0,0,8.73-12.352,1.875,1.875,0,0,0,8.2-13.729a2,2,0,0,0-1.488-.533A2.141,2.141,0,0,0,5.35-13.8a1.394,1.394,0,0,0-.58,1.137H.82a4.043,4.043,0,0,1,.75-2.4,4.953,4.953,0,0,1,2.08-1.646,7.112,7.112,0,0,1,2.924-.592,6.988,6.988,0,0,1,4.477,1.3,4.324,4.324,0,0,1,1.629,3.574,3.6,3.6,0,0,1-.674,2.08,4.8,4.8,0,0,1-1.963,1.588,4.587,4.587,0,0,1,2.133,1.494,3.935,3.935,0,0,1,.773,2.479,4.4,4.4,0,0,1-1.758,3.656A7.3,7.3,0,0,1,6.574.234,7.567,7.567,0,0,1,3.463-.4a4.875,4.875,0,0,1-2.174-1.77A4.6,4.6,0,0,1,.551-4.746H4.523a1.778,1.778,0,0,0,.633,1.359,2.234,2.234,0,0,0,1.559.574,2.34,2.34,0,0,0,1.664-.58A1.939,1.939,0,0,0,9-4.875,2.267,2.267,0,0,0,8.355-6.7a2.694,2.694,0,0,0-1.781-.539H4.652Z" transform="translate(1730.449 -5950.691)" fill="#fff"/>
  </g>
</svg>
