<svg xmlns="http://www.w3.org/2000/svg" xmlns:xlink="http://www.w3.org/1999/xlink" width="190" height="219" viewBox="0 0 190 219">
  <defs>
    <clipPath id="clip-path">
      <rect id="Rect치ngulo_381920" data-name="Rect치ngulo 381920" width="120" height="125" transform="translate(1037 415.99)" fill="#fff" stroke="#707070" stroke-width="1"/>
    </clipPath>
  </defs>
  <g id="Grupo_1072691" data-name="Grupo 1072691" transform="translate(-1230 -5238)">
    <g id="Grupo_1072676" data-name="Grupo 1072676">
      <g id="Grupo_1072005" data-name="Grupo 1072005" transform="translate(85 3191)">
        <rect id="Rect치ngulo_381506" data-name="Rect치ngulo 381506" width="190" height="219" rx="28" transform="translate(1145 2047)" fill="#e9e2fe"/>
      </g>
      <g id="Enmascarar_grupo_1059121" data-name="Enmascarar grupo 1059121" transform="translate(193 4916.01)" clip-path="url(#clip-path)">
        <path id="Elipse_9678" data-name="Elipse 9678" d="M74.524,41.076a33.448,33.448,0,1,0,33.448,33.448A33.486,33.486,0,0,0,74.524,41.076M74.524,0A74.524,74.524,0,1,1,0,74.524,74.524,74.524,0,0,1,74.524,0Z" transform="translate(977.733 446.514)" fill="#6e40fb" opacity="0.856"/>
      </g>
      <g id="Grupo_1072675" data-name="Grupo 1072675" transform="translate(1256.5 5268.971)">
        <path id="Trazado_813500" data-name="Trazado 813500" d="M68,0a68,68,0,1,0,68,68A68,68,0,0,0,68,0Z" transform="translate(0.5 11.029)" fill="#1e5af9"/>
      </g>
    </g>
    <g id="internet" transform="translate(1284 5269.887)">
      <g id="Grupo_1072678" data-name="Grupo 1072678" transform="translate(1.194 55.102)">
        <g id="Grupo_1072677" data-name="Grupo 1072677" transform="translate(0 0)">
          <path id="Trazado_819214" data-name="Trazado 819214" d="M8.292,125.724,7.5,127.151V168.4a4.929,4.929,0,0,0,4.929,4.929H81.683a4.929,4.929,0,0,0,4.929-4.929V127.151l-.792-1.427H8.292Z" transform="translate(-7.5 -125.724)" fill="#ddeafb"/>
        </g>
      </g>
      <g id="Grupo_1072680" data-name="Grupo 1072680" transform="translate(1.194 55.102)">
        <g id="Grupo_1072679" data-name="Grupo 1072679" transform="translate(0 0)">
          <path id="Trazado_819215" data-name="Trazado 819215" d="M78.541,125.724v34.609a4.929,4.929,0,0,1-4.929,4.929H7.5V168.4a4.929,4.929,0,0,0,4.929,4.929H81.683a4.929,4.929,0,0,0,4.929-4.929V127.151l-.792-1.427H78.541Z" transform="translate(-7.5 -125.724)" fill="#cbe2ff"/>
        </g>
      </g>
      <g id="Grupo_1072682" data-name="Grupo 1072682" transform="translate(1.194 42.926)">
        <g id="Grupo_1072681" data-name="Grupo 1072681" transform="translate(0 0)">
          <path id="Trazado_819216" data-name="Trazado 819216" d="M81.683,49.232H12.429A4.929,4.929,0,0,0,7.5,54.161v8.674H86.612V54.161A4.929,4.929,0,0,0,81.683,49.232Z" transform="translate(-7.5 -49.232)" fill="#698ed5"/>
        </g>
      </g>
      <g id="Grupo_1072684" data-name="Grupo 1072684" transform="translate(72.235 42.926)">
        <g id="Grupo_1072683" data-name="Grupo 1072683" transform="translate(0 0)">
          <path id="Trazado_819217" data-name="Trazado 819217" d="M456.937,49.232h-3.142v13.6h8.071V54.161A4.929,4.929,0,0,0,456.937,49.232Z" transform="translate(-453.795 -49.232)" fill="#4073c8"/>
        </g>
      </g>
      <g id="Grupo_1072689" data-name="Grupo 1072689" transform="translate(23.1 86.111)">
        <g id="Grupo_1072685" data-name="Grupo 1072685" transform="translate(12.792 12.792)">
          <path id="Trazado_819218" data-name="Trazado 819218" d="M235.1,406.847l-5.955-5.955-3.663,3.663,5.955,5.955a.8.8,0,0,0,1.126,0l2.537-2.537a.8.8,0,0,0,0-1.126Z" transform="translate(-225.479 -400.892)" fill="#f6f1f1"/>
        </g>
        <g id="Grupo_1072686" data-name="Grupo 1072686" transform="translate(12.792 14.798)">
          <path id="Trazado_819219" data-name="Trazado 819219" d="M234,416.351l-1.443,1.443a.8.8,0,0,1-1.126,0l-4.3-4.3-1.656,1.656,5.955,5.955a.8.8,0,0,0,1.126,0l2.537-2.537a.8.8,0,0,0,0-1.126Z" transform="translate(-225.48 -413.496)" fill="#efe7e4"/>
        </g>
        <g id="Grupo_1072687" data-name="Grupo 1072687" transform="translate(0 0)">
          <path id="Trazado_819220" data-name="Trazado 819220" d="M146.194,320.584l21.034,7.828a.637.637,0,0,1,.228,1.047l-13.41,13.41a.637.637,0,0,1-1.047-.228l-7.828-21.034A.8.8,0,0,1,146.194,320.584Z" transform="translate(-145.119 -320.532)" fill="#f6f1f1"/>
        </g>
        <g id="Grupo_1072688" data-name="Grupo 1072688" transform="translate(0 0)">
          <path id="Trazado_819221" data-name="Trazado 819221" d="M167.229,328.412l-2.74-1.02-8.961,8.961a.637.637,0,0,1-1.047-.228l-5.381-14.46-2.9-1.081a.8.8,0,0,0-1.024,1.024L153,342.641a.637.637,0,0,0,1.047.228l13.41-13.41a.637.637,0,0,0-.228-1.047Z" transform="translate(-145.12 -320.532)" fill="#efe7e4"/>
        </g>
      </g>
      <g id="Grupo_1072690" data-name="Grupo 1072690" transform="translate(0 41.732)">
        <path id="Trazado_819222" data-name="Trazado 819222" d="M59.2,255.243H43.857l-1.606-1.606,4.03-4.03a1.831,1.831,0,0,0-.656-3.01l-21.034-7.828a1.99,1.99,0,0,0-2.559,2.559l5.179,13.915H6.123a3.739,3.739,0,0,1-3.735-3.735V225.754a1.194,1.194,0,0,0-2.388,0v25.754a6.13,6.13,0,0,0,6.123,6.123H28.1l1.761,4.731a1.83,1.83,0,0,0,3.01.656l4.03-4.029,4.1,4.1a1.993,1.993,0,0,0,2.814,0l2.537-2.537a1.992,1.992,0,0,0,0-2.814h0l-.108-.108H59.2a1.194,1.194,0,0,0,0-2.388Zm-16.8,5.877-4.665-4.665a1.194,1.194,0,0,0-1.689,0l-4.26,4.26-7.222-19.405,19.405,7.222-4.26,4.26a1.194,1.194,0,0,0,0,1.688l4.665,4.664Z" transform="translate(0 -195.457)"/>
        <path id="Trazado_819223" data-name="Trazado 819223" d="M75.377,41.732H71.2a1.194,1.194,0,0,0,0,2.388h4.174a3.739,3.739,0,0,1,3.735,3.735v7.48H2.388v-7.48A3.739,3.739,0,0,1,6.123,44.12H65.682a1.194,1.194,0,0,0,0-2.388H6.123A6.13,6.13,0,0,0,0,47.855v18.8a1.194,1.194,0,0,0,2.388,0V57.723H79.112V97.782a3.739,3.739,0,0,1-3.735,3.735H64.925a1.194,1.194,0,0,0,0,2.388H75.377A6.13,6.13,0,0,0,81.5,97.782V47.855A6.13,6.13,0,0,0,75.377,41.732Z" transform="translate(0 -41.732)"/>
        <path id="Trazado_819224" data-name="Trazado 819224" d="M49.7,80.28a2.211,2.211,0,1,0,2.211-2.211A2.211,2.211,0,0,0,49.7,80.28Z" transform="translate(-41.787 -72.285)"/>
        <path id="Trazado_819225" data-name="Trazado 819225" d="M92.434,80.28a2.211,2.211,0,1,0,2.211-2.211A2.211,2.211,0,0,0,92.434,80.28Z" transform="translate(-77.72 -72.285)"/>
        <path id="Trazado_819226" data-name="Trazado 819226" d="M135.17,80.28a2.211,2.211,0,1,0,2.211-2.211A2.211,2.211,0,0,0,135.17,80.28Z" transform="translate(-113.654 -72.285)"/>
        <path id="Trazado_819227" data-name="Trazado 819227" d="M64.8,233.915h.007a1.194,1.194,0,0,0,1.124-.793l2.957-8.3,2.826,8.283a1.194,1.194,0,0,0,1.125.808h0a1.194,1.194,0,0,0,1.127-.8l4.009-11.436a1.194,1.194,0,0,0-2.254-.79l-2.867,8.178-2.816-8.256a1.2,1.2,0,0,0-2.254-.015l-2.961,8.31-2.817-8.2a1.194,1.194,0,0,0-2.258.776l3.925,11.423a1.194,1.194,0,0,0,1.122.806Z" transform="translate(-50.187 -191.64)"/>
        <path id="Trazado_819228" data-name="Trazado 819228" d="M203.568,233.914h.007a1.194,1.194,0,0,0,1.124-.793l2.957-8.3,2.826,8.283a1.194,1.194,0,0,0,1.125.808h0a1.194,1.194,0,0,0,1.127-.8l4.009-11.436a1.194,1.194,0,0,0-2.254-.79l-2.867,8.178-2.816-8.256a1.2,1.2,0,0,0-2.254-.015l-2.961,8.31-2.817-8.2a1.194,1.194,0,1,0-2.258.776l3.925,11.423A1.194,1.194,0,0,0,203.568,233.914Z" transform="translate(-166.865 -191.64)"/>
        <path id="Trazado_819229" data-name="Trazado 819229" d="M340.084,233.915h.007a1.194,1.194,0,0,0,1.124-.793l2.957-8.3L347,233.106a1.194,1.194,0,0,0,1.125.808h0a1.194,1.194,0,0,0,1.127-.8l4.009-11.436a1.194,1.194,0,1,0-2.254-.79l-2.867,8.178-2.816-8.256a1.2,1.2,0,0,0-2.254-.015l-2.961,8.31-2.817-8.2a1.194,1.194,0,1,0-2.258.776l3.926,11.423a1.194,1.194,0,0,0,1.122.806Z" transform="translate(-281.65 -191.64)"/>
      </g>
    </g>
  </g>
</svg>
