<svg xmlns="http://www.w3.org/2000/svg" xmlns:xlink="http://www.w3.org/1999/xlink" width="85" height="79.459" viewBox="0 0 85 79.459">
  <defs>
    <clipPath id="clip-path">
      <path id="path1833" d="M0-682.665H71.125v71.125H0Z" transform="translate(0 682.665)"/>
    </clipPath>
  </defs>
  <g id="Grupo_1072741" data-name="Grupo 1072741" transform="translate(-180 -6592.541)">
    <rect id="Rectángulo_381858" data-name="Rectángulo 381858" width="85" height="67" rx="7" transform="translate(180 6605)" fill="#ccbcfd"/>
    <g id="g1827" transform="translate(187 7275.206)">
      <g id="g1829" transform="translate(0 -682.665)">
        <g id="g1831" clip-path="url(#clip-path)">
          <g id="g1837" transform="translate(1.042 37.329)">
            <path id="path1839" d="M-554.209-263.368h-59.872a4.584,4.584,0,0,1-4.584-4.584v-21.462A4.584,4.584,0,0,1-614.081-294h59.872a4.584,4.584,0,0,1,4.584,4.584v21.462a4.584,4.584,0,0,1-4.584,4.584" transform="translate(618.665 293.999)" fill="#0573ce"/>
          </g>
          <g id="g1841" transform="translate(33.68 43.235)">
            <path id="path1843" d="M-16.125,0A1.875,1.875,0,0,0-18,1.875V17.006a1.875,1.875,0,0,0,1.875,1.875,1.875,1.875,0,0,0,1.875-1.875V1.875A1.875,1.875,0,0,0-16.125,0" transform="translate(18)" fill="#ececec"/>
          </g>
          <g id="g1845" transform="translate(44.052 43.173)">
            <path id="path1847" d="M-78.469-32.249a1.875,1.875,0,0,0,1.875-1.875A1.875,1.875,0,0,0-78.469-36H-85.72A1.875,1.875,0,0,0-87.6-34.125v15.131a1.875,1.875,0,0,0,1.875,1.875,1.875,1.875,0,0,0,1.875-1.875v-6.734h5.376A1.875,1.875,0,0,0-76.594-27.6a1.875,1.875,0,0,0-1.875-1.875h-5.376v-2.771Z" transform="translate(87.596 36)" fill="#ececec"/>
          </g>
          <g id="g1849" transform="translate(60.104 43.173)">
            <path id="path1851" d="M-16.125,0A1.875,1.875,0,0,0-18,1.875V17.006a1.875,1.875,0,0,0,1.875,1.875,1.875,1.875,0,0,0,1.875-1.875V1.875A1.875,1.875,0,0,0-16.125,0" transform="translate(18)" fill="#ececec"/>
          </g>
          <g id="g1853" transform="translate(7.131 43.375)">
            <path id="path1855" d="M-171.316-.518A1.876,1.876,0,0,0-173.6.827l-2.77,10.7-2.65-3.919a1.875,1.875,0,0,0-1.553-.825,1.875,1.875,0,0,0-1.554.825l-2.65,3.919-2.77-10.7a1.876,1.876,0,0,0-2.286-1.346,1.876,1.876,0,0,0-1.346,2.286l3.812,14.724a1.876,1.876,0,0,0,1.5,1.378,1.877,1.877,0,0,0,.319.027A1.876,1.876,0,0,0-184,17.072l3.424-5.064,3.424,5.064a1.876,1.876,0,0,0,1.872.8,1.875,1.875,0,0,0,1.5-1.378l3.812-14.724a1.875,1.875,0,0,0-1.346-2.286" transform="translate(191.241 0.579)" fill="#ececec"/>
          </g>
          <g id="g1857" transform="translate(27.764 23.212)">
            <path id="path1859" d="M-8.006-57.259h0a2.112,2.112,0,0,0,2.776-.083,6.1,6.1,0,0,1,4.023-1.565,6.1,6.1,0,0,1,4.038,1.527,2.112,2.112,0,0,0,2.777.057,2.663,2.663,0,0,0,.069-3.95A10.361,10.361,0,0,0-1.23-63.918a10.361,10.361,0,0,0-6.883,2.71,2.663,2.663,0,0,0,.106,3.949" transform="translate(8.937 63.918)" fill="#838383"/>
          </g>
          <g id="g1861" transform="translate(20.355 13.188)">
            <path id="path1863" d="M-7.973-91.616h0a2.125,2.125,0,0,0,3-.315,14.871,14.871,0,0,1,11.19-5.329A14.87,14.87,0,0,1,17.46-92.035a2.126,2.126,0,0,0,3,.287h0a2.679,2.679,0,0,0,.268-3.751A19.206,19.206,0,0,0,6.2-102.271,19.208,19.208,0,0,0-8.275-95.364a2.679,2.679,0,0,0,.3,3.748" transform="translate(8.9 102.271)" fill="#5a5a5a"/>
          </g>
          <g id="g1865" transform="translate(13.024 3.165)">
            <path id="path1867" d="M-7.991-126.55l0,0a2.111,2.111,0,0,0,3.039-.363,23.685,23.685,0,0,1,18.463-9.345,23.683,23.683,0,0,1,18.549,9.171,2.111,2.111,0,0,0,3.042.335l0,0a2.676,2.676,0,0,0,.342-3.662A28.04,28.04,0,0,0,13.49-141.268,28.043,28.043,0,0,0-8.367-130.208a2.676,2.676,0,0,0,.376,3.658" transform="translate(8.92 141.268)" fill="#444"/>
          </g>
          <g id="g1869" transform="translate(32.666 33.86)">
            <path id="path1871" d="M-24.305-48.806a2.836,2.836,0,0,1-2.827-2.838,2.836,2.836,0,0,1,2.827-2.838,2.836,2.836,0,0,1,2.827,2.838,2.836,2.836,0,0,1-2.827,2.838" transform="translate(27.132 54.483)" fill="#444"/>
          </g>
          <g id="g1873" transform="translate(60.379 37.329)">
            <path id="path1875" d="M-44.015,0h-5.119A4.584,4.584,0,0,1-44.55,4.584V26.047a4.584,4.584,0,0,1-4.584,4.584h5.119a4.584,4.584,0,0,0,4.584-4.584V4.584A4.584,4.584,0,0,0-44.015,0" transform="translate(49.135)" fill="#0067c5"/>
          </g>
          <g id="g1877" transform="translate(32.638 42.224)">
            <path id="path1879" d="M-17.916-155.18V-170.31a.834.834,0,0,1,.833-.833.834.834,0,0,1,.833.833v15.131a.834.834,0,0,1-.833.833.834.834,0,0,1-.833-.833m3.751,0V-170.31a2.921,2.921,0,0,0-2.917-2.917A2.921,2.921,0,0,0-20-170.31v15.131a2.921,2.921,0,0,0,2.917,2.917,2.921,2.921,0,0,0,2.917-2.917" transform="translate(20 173.228)"/>
          </g>
          <g id="g1881" transform="translate(43.01 42.162)">
            <path id="path1883" d="M-41.207-73.988h5.376a.834.834,0,0,1,.833.833.834.834,0,0,1-.833.833h-5.376a1.042,1.042,0,0,0-1.042,1.042v6.734a.834.834,0,0,1-.833.833.834.834,0,0,1-.833-.833V-79.676a.834.834,0,0,1,.833-.833h7.251a.834.834,0,0,1,.833.833.834.834,0,0,1-.833.833h-5.376A1.042,1.042,0,0,0-42.249-77.8v2.771a1.042,1.042,0,0,0,1.042,1.042m5.376-2.771a2.921,2.921,0,0,0,2.917-2.917,2.921,2.921,0,0,0-2.917-2.917h-7.251A2.921,2.921,0,0,0-46-79.676v15.131a2.921,2.921,0,0,0,2.917,2.917,2.921,2.921,0,0,0,2.917-2.917v-5.692h4.334a2.921,2.921,0,0,0,2.917-2.917,2.921,2.921,0,0,0-2.917-2.917h-4.334v-.687Z" transform="translate(46 82.593)"/>
          </g>
          <g id="g1885" transform="translate(59.062 42.162)">
            <path id="path1887" d="M-17.916-155.18V-170.31a.834.834,0,0,1,.833-.833.834.834,0,0,1,.833.833v15.131a.834.834,0,0,1-.833.833.834.834,0,0,1-.833-.833m3.751,0V-170.31a2.921,2.921,0,0,0-2.917-2.917A2.921,2.921,0,0,0-20-170.31v15.131a2.921,2.921,0,0,0,2.917,2.917,2.921,2.921,0,0,0,2.917-2.917" transform="translate(20 173.228)"/>
          </g>
          <g id="g1889" transform="translate(6.089 42.364)">
            <path id="path1891" d="M-23.289-18.154a.833.833,0,0,1,.209-.027.835.835,0,0,1,.807.625l2.77,10.7a1.042,1.042,0,0,0,.832.766,1.042,1.042,0,0,0,1.04-.443l2.65-3.92a.834.834,0,0,1,1.381,0l2.65,3.92a1.042,1.042,0,0,0,1.04.443,1.042,1.042,0,0,0,.832-.766l2.77-10.7a.835.835,0,0,1,1.016-.6.834.834,0,0,1,.6,1.016L-8.506-2.415a.835.835,0,0,1-.665.612A.836.836,0,0,1-10-2.157l-3.424-5.064a1.042,1.042,0,0,0-1.726,0l-3.424,5.064a.837.837,0,0,1-.832.354.835.835,0,0,1-.665-.612l-3.812-14.724a.835.835,0,0,1,.6-1.016M-19.764.251A2.914,2.914,0,0,0-16.852-.99l2.561-3.788L-11.73-.989A2.922,2.922,0,0,0-8.818.251,2.922,2.922,0,0,0-6.489-1.892l3.812-14.724A2.921,2.921,0,0,0-4.77-20.172h0a2.92,2.92,0,0,0-3.555,2.093l-2.192,8.466-1.357-2.007a2.918,2.918,0,0,0-4.833,0l-1.357,2.007-2.192-8.466A2.9,2.9,0,0,0-21.6-19.861a2.9,2.9,0,0,0-2.211-.31A2.92,2.92,0,0,0-25.9-16.616l3.812,14.724A2.923,2.923,0,0,0-19.764.251" transform="translate(25.998 20.266)"/>
          </g>
          <g id="g1893" transform="translate(26.722 22.17)">
            <path id="path1895" d="M-22.023-38.939a9.262,9.262,0,0,1,6.237-2.445A9.263,9.263,0,0,1-9.614-39a1.622,1.622,0,0,1-.046,2.364,1.068,1.068,0,0,1-1.432-.041,7.188,7.188,0,0,0-4.692-1.781,7.183,7.183,0,0,0-4.74,1.825,1.068,1.068,0,0,1-1.432.055h0a1.622,1.622,0,0,1-.068-2.363m2.877,3.871a4.985,4.985,0,0,1,6.69-.031,3.146,3.146,0,0,0,4.122.072,3.7,3.7,0,0,0,.093-5.537,11.452,11.452,0,0,0-7.6-2.9,11.467,11.467,0,0,0-7.572,2.975,3.7,3.7,0,0,0,.145,5.535h0a3.146,3.146,0,0,0,4.122-.111" transform="translate(24.584 43.468)"/>
          </g>
          <g id="g1897" transform="translate(19.314 12.146)">
            <path id="path1899" d="M-35.97-92.015a1.088,1.088,0,0,1-1.559.186,1.639,1.639,0,0,1-.169-2.259,18.045,18.045,0,0,1,13.771-6.545,18.068,18.068,0,0,1,13.666,6.416,1.639,1.639,0,0,1-.15,2.261,1.085,1.085,0,0,1-1.559-.172,15.812,15.812,0,0,0-11.953-5.577,15.807,15.807,0,0,0-12.047,5.69m22.436,1.264a3.16,3.16,0,0,0,4.452.4A3.722,3.722,0,0,0-8.7-95.592a20.121,20.121,0,0,0-15.231-7.126,20.11,20.11,0,0,0-15.351,7.269,3.722,3.722,0,0,0,.436,5.238h0a3.16,3.16,0,0,0,4.446-.444,13.755,13.755,0,0,1,10.47-4.969,13.758,13.758,0,0,1,10.389,4.871" transform="translate(40.153 102.717)"/>
          </g>
          <g id="g1901" transform="translate(11.982 2.123)">
            <path id="path1903" d="M-11.008-140.61l.011.009a3.154,3.154,0,0,0,4.518-.485,22.715,22.715,0,0,1,17.733-8.782,21.846,21.846,0,0,1,12.732,4.218,1.042,1.042,0,0,0,1.455-.235,1.042,1.042,0,0,0-.235-1.455,23.919,23.919,0,0,0-13.943-4.612A24.79,24.79,0,0,0-8.1-142.392a1.07,1.07,0,0,1-1.561.19l-.009-.007a1.636,1.636,0,0,1-.194-2.205,27.091,27.091,0,0,1,21.143-10.465,27.071,27.071,0,0,1,21.044,10.663,1.635,1.635,0,0,1-.216,2.205,1.071,1.071,0,0,1-1.566-.2c-.488-.618-1.007-1.22-1.541-1.789a1.042,1.042,0,0,0-1.473-.046,1.042,1.042,0,0,0-.046,1.473c.494.526.973,1.082,1.424,1.654a3.152,3.152,0,0,0,4.515.526,3.715,3.715,0,0,0,.538-5.114,29.142,29.142,0,0,0-22.668-11.456,29.164,29.164,0,0,0-22.777,11.242,3.716,3.716,0,0,0,.481,5.111" transform="translate(12.288 156.963)"/>
          </g>
          <g id="g1905" transform="translate(0 32.818)">
            <path id="path1907" d="M-305.173-48.806a1.8,1.8,0,0,1-1.785-1.8,1.793,1.793,0,0,1,1.785-1.8,1.793,1.793,0,0,1,1.785,1.8,1.8,1.8,0,0,1-1.785,1.8m30.006-2.208h-26.159a3.878,3.878,0,0,0-3.847-3.469,3.878,3.878,0,0,0-3.847,3.469h-26.02a5.632,5.632,0,0,0-5.626,5.626v7.073a1.042,1.042,0,0,0,1.042,1.042,1.042,1.042,0,0,0,1.042-1.042v-7.073a3.546,3.546,0,0,1,3.542-3.542h26.376l0,.007a3.856,3.856,0,0,0,3.487,2.2,3.858,3.858,0,0,0,3.491-2.207h26.515a3.546,3.546,0,0,1,3.542,3.542v21.462a3.546,3.546,0,0,1-3.542,3.542H-335.04a3.546,3.546,0,0,1-3.542-3.542v-9.527a1.042,1.042,0,0,0-1.042-1.042,1.042,1.042,0,0,0-1.042,1.042v9.527A5.632,5.632,0,0,0-335.04-18.3h59.872a5.632,5.632,0,0,0,5.626-5.626V-45.388a5.632,5.632,0,0,0-5.626-5.626" transform="translate(340.666 54.483)"/>
          </g>
        </g>
      </g>
    </g>
  </g>
</svg>
