<svg xmlns="http://www.w3.org/2000/svg" width="113" height="113" viewBox="0 0 113 113">
  <g id="Grupo_1072740" data-name="Grupo 1072740" transform="translate(-332 -5967)">
    <rect id="Rectángulo_381849" data-name="Rectángulo 381849" width="113" height="113" rx="7" transform="translate(332 5967)" fill="#fff"/>
    <g id="wifi" transform="translate(344.774 5981)">
      <g id="Grupo_1072738" data-name="Grupo 1072738" transform="translate(3.459 1.233)">
        <g id="Grupo_1072703" data-name="Grupo 1072703" transform="translate(8.439 14.873)">
          <g id="Grupo_1072696" data-name="Grupo 1072696" transform="translate(59.112)">
            <g id="Grupo_1072695" data-name="Grupo 1072695">
              <path id="Trazado_819238" data-name="Trazado 819238" d="M425.6,141.8h-4.987V98.284a.315.315,0,0,1,.524-.238l.084.076a13.239,13.239,0,0,1,4.379,9.851Z" transform="translate(-420.609 -97.966)" fill="#5b5c6c"/>
            </g>
          </g>
          <g id="Grupo_1072698" data-name="Grupo 1072698" transform="translate(0)">
            <g id="Grupo_1072697" data-name="Grupo 1072697">
              <path id="Trazado_819239" data-name="Trazado 819239" d="M66.042,141.8H61.055V98.284a.314.314,0,0,1,.524-.238l.084.076a13.239,13.239,0,0,1,4.379,9.851Z" transform="translate(-61.055 -97.966)" fill="#5b5c6c"/>
            </g>
          </g>
          <g id="Grupo_1072700" data-name="Grupo 1072700" transform="translate(59.103)">
            <g id="Grupo_1072699" data-name="Grupo 1072699">
              <path id="Trazado_819240" data-name="Trazado 819240" d="M421.162,98.122l-.085-.076a.314.314,0,0,0-.524.238v1.928a13.271,13.271,0,0,1,2.5,7.761V141.8h2.485V107.973A13.239,13.239,0,0,0,421.162,98.122Z" transform="translate(-420.554 -97.966)" fill="#464655"/>
            </g>
          </g>
          <g id="Grupo_1072702" data-name="Grupo 1072702">
            <g id="Grupo_1072701" data-name="Grupo 1072701">
              <path id="Trazado_819241" data-name="Trazado 819241" d="M61.663,98.122l-.084-.076a.314.314,0,0,0-.524.238v1.928a13.271,13.271,0,0,1,2.5,7.761V141.8h2.485V107.973A13.24,13.24,0,0,0,61.663,98.122Z" transform="translate(-61.055 -97.966)" fill="#464655"/>
            </g>
          </g>
        </g>
        <g id="Grupo_1072708" data-name="Grupo 1072708" transform="translate(5.863 76.809)">
          <g id="Grupo_1072705" data-name="Grupo 1072705" transform="translate(0 0.1)">
            <g id="Grupo_1072704" data-name="Grupo 1072704">
              <path id="Trazado_819242" data-name="Trazado 819242" d="M55.033,480.106H45.856a.465.465,0,0,1-.465-.465v-4.335H55.5v4.335A.465.465,0,0,1,55.033,480.106Z" transform="translate(-45.391 -475.306)" fill="#5b5c6c"/>
            </g>
          </g>
          <g id="Grupo_1072707" data-name="Grupo 1072707" transform="translate(59.144)">
            <g id="Grupo_1072706" data-name="Grupo 1072706">
              <path id="Trazado_819243" data-name="Trazado 819243" d="M414.779,479.5H405.6a.465.465,0,0,1-.465-.465V474.7h10.106v4.335A.465.465,0,0,1,414.779,479.5Z" transform="translate(-405.137 -474.698)" fill="#5b5c6c"/>
            </g>
          </g>
        </g>
        <g id="Grupo_1072713" data-name="Grupo 1072713" transform="translate(5.863 76.809)">
          <g id="Grupo_1072710" data-name="Grupo 1072710" transform="translate(0 0.049)">
            <g id="Grupo_1072709" data-name="Grupo 1072709">
              <path id="Trazado_819244" data-name="Trazado 819244" d="M55.033,477.347H45.856a.465.465,0,0,1-.465-.465V475H55.5v1.886A.465.465,0,0,1,55.033,477.347Z" transform="translate(-45.391 -474.996)" fill="#464655"/>
            </g>
          </g>
          <g id="Grupo_1072712" data-name="Grupo 1072712" transform="translate(59.144)">
            <g id="Grupo_1072711" data-name="Grupo 1072711">
              <path id="Trazado_819245" data-name="Trazado 819245" d="M414.779,477.049H405.6a.465.465,0,0,1-.465-.465V474.7h10.106v1.886A.465.465,0,0,1,414.779,477.049Z" transform="translate(-405.137 -474.698)" fill="#464655"/>
            </g>
          </g>
        </g>
        <g id="Grupo_1072715" data-name="Grupo 1072715" transform="translate(0 58.365)">
          <g id="Grupo_1072714" data-name="Grupo 1072714">
            <path id="Trazado_819246" data-name="Trazado 819246" d="M87.537,381.183H12.892a3.166,3.166,0,0,1-3.166-3.166V365.675a3.166,3.166,0,0,1,3.166-3.166H87.537a3.166,3.166,0,0,1,3.166,3.166v12.341A3.166,3.166,0,0,1,87.537,381.183Z" transform="translate(-9.726 -362.509)" fill="#707384"/>
          </g>
        </g>
        <g id="Grupo_1072717" data-name="Grupo 1072717" transform="translate(68.14 58.365)">
          <g id="Grupo_1072716" data-name="Grupo 1072716">
            <path id="Trazado_819247" data-name="Trazado 819247" d="M433.864,362.508h-9.67a3.166,3.166,0,0,1,3.167,3.166v12.342a3.166,3.166,0,0,1-3.167,3.166h9.67a3.167,3.167,0,0,0,3.167-3.166V365.674A3.167,3.167,0,0,0,433.864,362.508Z" transform="translate(-424.194 -362.508)" fill="#5b5c6c"/>
          </g>
        </g>
        <g id="Grupo_1072719" data-name="Grupo 1072719" transform="translate(34.228 58.365)">
          <g id="Grupo_1072718" data-name="Grupo 1072718" transform="translate(0)">
            <path id="Trazado_819248" data-name="Trazado 819248" d="M229.024,367.083h-9.688a1.417,1.417,0,0,1-1.417-1.417v-3.158h12.522v3.158A1.417,1.417,0,0,1,229.024,367.083Z" transform="translate(-217.919 -362.508)" fill="#7de6c4"/>
          </g>
        </g>
        <g id="Grupo_1072728" data-name="Grupo 1072728" transform="translate(18.79)">
          <g id="Grupo_1072721" data-name="Grupo 1072721" transform="translate(19.196 29.915)">
            <g id="Grupo_1072720" data-name="Grupo 1072720" transform="translate(0 0)">
              <path id="Trazado_819249" data-name="Trazado 819249" d="M245.765,191.938a2.494,2.494,0,1,1-.739-1.758A2.493,2.493,0,0,1,245.765,191.938Z" transform="translate(-240.778 -189.458)" fill="#54a1ff"/>
            </g>
          </g>
          <g id="Grupo_1072723" data-name="Grupo 1072723" transform="translate(14.174 19.943)">
            <g id="Grupo_1072722" data-name="Grupo 1072722">
              <path id="Trazado_819250" data-name="Trazado 819250" d="M217.687,128.8a12.41,12.41,0,0,0-6.212,1.689,2.49,2.49,0,0,0-.525,3.9l.011.011a2.5,2.5,0,0,0,3.034.391,7.491,7.491,0,0,1,7.518.007,2.491,2.491,0,0,0,3.027-.393l.011-.011a2.491,2.491,0,0,0-.53-3.907A12.413,12.413,0,0,0,217.687,128.8Z" transform="translate(-210.232 -128.804)" fill="#54a1ff"/>
            </g>
          </g>
          <g id="Grupo_1072725" data-name="Grupo 1072725" transform="translate(7.046 9.972)">
            <g id="Grupo_1072724" data-name="Grupo 1072724">
              <path id="Trazado_819251" data-name="Trazado 819251" d="M181.409,68.153a22.35,22.35,0,0,0-13.579,4.654,2.48,2.48,0,0,0-.234,3.706l.01.01a2.481,2.481,0,0,0,3.274.23,17.465,17.465,0,0,1,21.292.011,2.479,2.479,0,0,0,3.27-.231l.009-.009a2.482,2.482,0,0,0-.234-3.708A22.348,22.348,0,0,0,181.409,68.153Z" transform="translate(-166.875 -68.152)" fill="#54a1ff"/>
            </g>
          </g>
          <g id="Grupo_1072727" data-name="Grupo 1072727">
            <g id="Grupo_1072726" data-name="Grupo 1072726">
              <path id="Trazado_819252" data-name="Trazado 819252" d="M145.549,7.5a32.294,32.294,0,0,0-20.639,7.545,2.488,2.488,0,0,0-.175,3.659l.009.009a2.5,2.5,0,0,0,3.383.142,27.437,27.437,0,0,1,35.2.034,2.483,2.483,0,0,0,3.358-.159l.009-.009a2.489,2.489,0,0,0-.174-3.661A32.3,32.3,0,0,0,145.549,7.5Z" transform="translate(-124.017 -7.5)" fill="#54a1ff"/>
            </g>
          </g>
        </g>
        <g id="Grupo_1072737" data-name="Grupo 1072737" transform="translate(18.791 2.824)">
          <g id="Grupo_1072730" data-name="Grupo 1072730" transform="translate(19.195 28.494)">
            <g id="Grupo_1072729" data-name="Grupo 1072729">
              <path id="Trazado_819253" data-name="Trazado 819253" d="M243.276,199.414a2.492,2.492,0,0,1-2.252-1.4,2.494,2.494,0,1,0,4.489-.018A2.492,2.492,0,0,1,243.276,199.414Z" transform="translate(-240.779 -197.993)" fill="#4a7fdd"/>
            </g>
          </g>
          <g id="Grupo_1072732" data-name="Grupo 1072732" transform="translate(14.175 19.881)">
            <g id="Grupo_1072731" data-name="Grupo 1072731">
              <path id="Trazado_819254" data-name="Trazado 819254" d="M224.549,146.279l-.011.011a2.491,2.491,0,0,1-3.027.393,7.491,7.491,0,0,0-7.518-.007,2.5,2.5,0,0,1-3.034-.391l-.011-.011a2.479,2.479,0,0,1-.464-.656,2.478,2.478,0,0,0,.473,2.818l.011.011a2.5,2.5,0,0,0,3.034.391,7.491,7.491,0,0,1,7.518.007,2.49,2.49,0,0,0,3.027-.393l.011-.011a2.476,2.476,0,0,0,.465-2.835A2.47,2.47,0,0,1,224.549,146.279Z" transform="translate(-210.241 -145.605)" fill="#4a7fdd"/>
            </g>
          </g>
          <g id="Grupo_1072734" data-name="Grupo 1072734" transform="translate(7.047 9.972)">
            <g id="Grupo_1072733" data-name="Grupo 1072733">
              <path id="Trazado_819255" data-name="Trazado 819255" d="M195.453,88.716l-.009.009a2.479,2.479,0,0,1-3.27.231,17.465,17.465,0,0,0-21.292-.011,2.481,2.481,0,0,1-3.274-.23l-.01-.01a2.489,2.489,0,0,1-.469-.66,2.491,2.491,0,0,0,.478,2.822l.01.01a2.481,2.481,0,0,0,3.274.23,17.465,17.465,0,0,1,21.292.011,2.479,2.479,0,0,0,3.27-.231l.009-.009a2.491,2.491,0,0,0,.47-2.843A2.49,2.49,0,0,1,195.453,88.716Z" transform="translate(-166.887 -85.331)" fill="#4a7fdd"/>
            </g>
          </g>
          <g id="Grupo_1072736" data-name="Grupo 1072736">
            <g id="Grupo_1072735" data-name="Grupo 1072735">
              <path id="Trazado_819256" data-name="Trazado 819256" d="M167.166,30.235a2.481,2.481,0,0,1-.477.68l-.009.009a2.483,2.483,0,0,1-3.358.159,27.437,27.437,0,0,0-35.2-.034,2.5,2.5,0,0,1-3.383-.142l-.009-.009a2.483,2.483,0,0,1-.467-.658,2.486,2.486,0,0,0,.476,2.82l.009.009a2.5,2.5,0,0,0,3.383.142,27.437,27.437,0,0,1,35.2.034,2.483,2.483,0,0,0,3.358-.159l.009-.009A2.486,2.486,0,0,0,167.166,30.235Z" transform="translate(-124.022 -24.678)" fill="#4a7fdd"/>
            </g>
          </g>
        </g>
      </g>
      <g id="Grupo_1072739" data-name="Grupo 1072739" transform="translate(2.226)">
        <path id="Trazado_819257" data-name="Trazado 819257" d="M81.27,133.963H77.23V101.607a14.286,14.286,0,0,0-4.793-10.67l-.084-.075a1.548,1.548,0,0,0-2.576,1.157v41.943h-4.21a1.233,1.233,0,1,0,0,2.466h15.7a1.936,1.936,0,0,1,1.933,1.933V150.7a1.936,1.936,0,0,1-1.933,1.933H6.625A1.936,1.936,0,0,1,4.692,150.7V138.362a1.936,1.936,0,0,1,1.933-1.933H36.454v3.342A1.233,1.233,0,0,0,37.687,141H50.208a1.233,1.233,0,0,0,1.233-1.233v-3.342h8.947a1.233,1.233,0,0,0,0-2.466H18.118V101.607a14.285,14.285,0,0,0-4.793-10.67l-.084-.074a1.548,1.548,0,0,0-2.576,1.157V123.6a1.233,1.233,0,1,0,2.466,0V94.316a11.818,11.818,0,0,1,2.521,7.292v32.242H13.131v-4.9a1.233,1.233,0,0,0-2.466,0v5.016H6.625a4.4,4.4,0,0,0-4.4,4.4V150.7a4.4,4.4,0,0,0,4.4,4.4H8.089v2.973a1.7,1.7,0,0,0,1.7,1.7h9.177a1.7,1.7,0,0,0,1.7-1.7V155.1H67.233v2.877a1.7,1.7,0,0,0,1.7,1.7h9.177a1.7,1.7,0,0,0,1.7-1.7V155.1h1.464a4.4,4.4,0,0,0,4.4-4.4V138.362A4.4,4.4,0,0,0,81.27,133.963ZM72.243,94.316a11.818,11.818,0,0,1,2.521,7.292v32.242H72.243ZM48.975,136.429v2.109H38.92v-2.109ZM18.2,157.307h-7.64V155.2H18.2v2.109Zm59.144-.1H69.7V155.1h7.64Z" transform="translate(-2.226 -75.598)"/>
        <path id="Trazado_819258" data-name="Trazado 819258" d="M236.986,181.957a3.726,3.726,0,0,0,.018,7.452h.018a3.731,3.731,0,0,0,3.709-3.744h0a3.727,3.727,0,0,0-3.745-3.708Zm.024,4.986H237a1.262,1.262,0,0,1-1.26-1.254A1.263,1.263,0,0,1,237,184.423H237a1.261,1.261,0,0,1,1.26,1.254A1.262,1.262,0,0,1,237.011,186.942Z" transform="translate(-195.292 -152.042)"/>
        <path id="Trazado_819259" data-name="Trazado 819259" d="M219.158,129a3.724,3.724,0,0,0-.785-5.84,13.69,13.69,0,0,0-6.894-1.858h-.067a13.7,13.7,0,0,0-6.827,1.857,3.727,3.727,0,1,0,3.76,6.435,6.258,6.258,0,0,1,6.278.006,3.728,3.728,0,0,0,4.534-.6Zm-3.292-1.529a8.711,8.711,0,0,0-4.386-1.183h-.043a8.717,8.717,0,0,0-4.33,1.175,1.271,1.271,0,0,1-1.548-.2,1.241,1.241,0,0,1-.351-1.042,1.26,1.26,0,0,1,.62-.929,11.255,11.255,0,0,1,11.3,0,1.27,1.27,0,0,1,.626.936,1.233,1.233,0,0,1-.361,1.05A1.258,1.258,0,0,1,215.866,127.474Z" transform="translate(-169.767 -101.362)"/>
        <path id="Trazado_819260" data-name="Trazado 819260" d="M187.4,72.237a3.741,3.741,0,0,0,3.732-3.984,3.7,3.7,0,0,0-1.428-2.681,23.687,23.687,0,0,0-28.892-.009,3.692,3.692,0,0,0-1.428,2.676,3.733,3.733,0,0,0,5.982,3.223,16.232,16.232,0,0,1,19.787.01A3.671,3.671,0,0,0,187.4,72.237Zm-12.239-6.6a18.524,18.524,0,0,0-11.3,3.87,1.251,1.251,0,0,1-1.655-.13,1.264,1.264,0,0,1-.362-.973,1.209,1.209,0,0,1,.472-.889,21.222,21.222,0,0,1,25.881.008,1.214,1.214,0,0,1,.474.893,1.266,1.266,0,0,1-2.013,1.1,18.509,18.509,0,0,0-11.4-3.882Z" transform="translate(-133.54 -50.681)"/>
        <path id="Trazado_819261" data-name="Trazado 819261" d="M122.652,13.536A26.253,26.253,0,0,1,147.136,8.6a1.233,1.233,0,1,0,.723-2.358,28.659,28.659,0,0,0-8.417-1.257H139.3a28.7,28.7,0,0,0-18.229,6.657,1.264,1.264,0,0,1-1.726-.073,1.256,1.256,0,0,1,.089-1.846,31.234,31.234,0,0,1,19.853-7.258h.152a31.208,31.208,0,0,1,20.022,7.273,1.26,1.26,0,0,1-1.609,1.94,28.72,28.72,0,0,0-5.721-3.738,1.233,1.233,0,0,0-1.093,2.211,26.256,26.256,0,0,1,5.229,3.417,3.688,3.688,0,0,0,2.376.858,3.722,3.722,0,0,0,2.4-6.577A33.676,33.676,0,0,0,139.44,0h-.163a33.7,33.7,0,0,0-21.424,7.833,3.727,3.727,0,1,0,4.8,5.7Z" transform="translate(-97.727)"/>
        <circle id="Elipse_9680" data-name="Elipse 9680" cx="1.247" cy="1.247" r="1.247" transform="translate(8.425 70.124)"/>
        <circle id="Elipse_9681" data-name="Elipse 9681" cx="1.247" cy="1.247" r="1.247" transform="translate(13.412 70.124)"/>
        <circle id="Elipse_9682" data-name="Elipse 9682" cx="1.247" cy="1.247" r="1.247" transform="translate(70.047 70.124)"/>
        <circle id="Elipse_9683" data-name="Elipse 9683" cx="1.247" cy="1.247" r="1.247" transform="translate(75.1 70.124)"/>
        <path id="Trazado_819262" data-name="Trazado 819262" d="M169.342,426.964a1.233,1.233,0,1,0,0,2.466h26.433a1.233,1.233,0,1,0,0-2.466Z" transform="translate(-140.837 -356.769)"/>
      </g>
    </g>
  </g>
</svg>
