<svg xmlns="http://www.w3.org/2000/svg" width="113" height="113" viewBox="0 0 113 113">
  <g id="Grupo_1072694" data-name="Grupo 1072694" transform="translate(-847 -5967)">
    <rect id="Rect치ngulo_381850" data-name="Rect치ngulo 381850" width="113" height="113" rx="7" transform="translate(847 5967)" fill="#fff"/>
    <g id="_05-Password" data-name="05-Password" transform="translate(862 5982)">
      <path id="Trazado_819230" data-name="Trazado 819230" d="M7.841,0H23.523a7.841,7.841,0,0,1,7.841,7.841v18.3a2.614,2.614,0,0,1-2.614,2.614H2.614A2.614,2.614,0,0,1,0,26.137V7.841A7.841,7.841,0,0,1,7.841,0Z" transform="translate(56.887 50.353) rotate(180)" fill="#ffb74d"/>
      <path id="Trazado_819231" data-name="Trazado 819231" d="M51.364,19.614v18.3a7.847,7.847,0,0,1-7.841,7.841H27.841A7.847,7.847,0,0,1,20,37.91V33.989a7.847,7.847,0,0,0,7.841,7.841h9.148a7.847,7.847,0,0,0,7.841-7.841V19.614A2.621,2.621,0,0,0,42.216,17h6.534a2.621,2.621,0,0,1,2.614,2.614Z" transform="translate(5.523 4.603)" fill="#ffa726"/>
      <path id="Trazado_819232" data-name="Trazado 819232" d="M9,14.762v1.307a2.614,2.614,0,0,0,2.614,2.614h0a2.614,2.614,0,0,0,2.614-2.614V14.762a6.534,6.534,0,0,1,6.534-6.534h0A6.534,6.534,0,0,1,27.3,14.762V21.3h5.227V14.762A11.762,11.762,0,0,0,20.762,3h0A11.762,11.762,0,0,0,9,14.762Z" transform="translate(2.148 0.307)" fill="#eee"/>
      <path id="Trazado_819233" data-name="Trazado 819233" d="M20.455,5a9.148,9.148,0,0,0-9.148,9.148v1.307A2.6,2.6,0,0,1,10,17.706a2.587,2.587,0,0,0,1.307.363,2.614,2.614,0,0,0,2.614-2.614V14.148a6.534,6.534,0,1,1,13.068,0v6.534H29.6V14.148A9.148,9.148,0,0,0,20.455,5Z" transform="translate(2.455 0.921)" fill="#e0e0e0"/>
      <rect id="Rect치ngulo_381922" data-name="Rect치ngulo 381922" width="76" height="21" rx="4" transform="translate(79 79) rotate(180)" fill="#64b5f6"/>
      <path id="Trazado_819234" data-name="Trazado 819234" d="M73.57,45H67.035a5.227,5.227,0,0,1,5.227,5.227v6.534a5.227,5.227,0,0,1-5.227,5.227H8.227A5.227,5.227,0,0,1,3,56.762v3.921A5.227,5.227,0,0,0,8.227,65.91H73.57A5.227,5.227,0,0,0,78.8,60.682V50.227A5.227,5.227,0,0,0,73.57,45Z" transform="translate(0.307 13.194)" fill="#42a5f5"/>
      <path id="Trazado_819235" data-name="Trazado 819235" d="M36.841,26.922a3.921,3.921,0,1,0-6.148,3.222L29,36.07h7.841l-1.693-5.926A3.913,3.913,0,0,0,36.841,26.922Z" transform="translate(8.285 6.443)" fill="#757575"/>
      <path id="Trazado_819236" data-name="Trazado 819236" d="M31.614,26.918a3.909,3.909,0,0,1,2.614-3.68,3.91,3.91,0,0,0-3.534,6.9L29,36.066h2.614l1.693-5.926a3.913,3.913,0,0,1-1.693-3.222Z" transform="translate(8.285 6.446)" fill="#616161"/>
      <path id="Trazado_819237" data-name="Trazado 819237" d="M13.762,20.3a3.925,3.925,0,0,0,3.921-3.921V15.068a5.227,5.227,0,1,1,10.455,0V20.3a3.925,3.925,0,0,0-3.921,3.921v18.3a9.159,9.159,0,0,0,9.148,9.148H49.046a9.159,9.159,0,0,0,9.148-9.148v-18.3A3.925,3.925,0,0,0,54.274,20.3h-18.3V15.068a13.068,13.068,0,1,0-26.137,0v1.307A3.925,3.925,0,0,0,13.762,20.3Zm41.819,3.921v18.3a6.542,6.542,0,0,1-6.534,6.534H33.364a6.542,6.542,0,0,1-6.534-6.534v-18.3a1.308,1.308,0,0,1,1.307-1.307H54.274a1.308,1.308,0,0,1,1.307,1.307ZM12.455,15.068a10.455,10.455,0,1,1,20.91,0V20.3H30.751V15.068a7.841,7.841,0,1,0-15.682,0v1.307a1.307,1.307,0,1,1-2.614,0ZM73.876,56.887H8.534A6.542,6.542,0,0,0,2,63.422V73.876a6.542,6.542,0,0,0,6.534,6.534H73.876a6.542,6.542,0,0,0,6.534-6.534V63.422a6.542,6.542,0,0,0-6.534-6.534ZM77.8,73.876A3.925,3.925,0,0,1,73.876,77.8H8.534a3.925,3.925,0,0,1-3.921-3.921V63.422A3.925,3.925,0,0,1,8.534,59.5H73.876A3.925,3.925,0,0,1,77.8,63.422ZM38.544,67.167l-2.566,1.482,2.566,1.482a1.307,1.307,0,1,1-1.307,2.264l-2.566-1.482v2.964a1.307,1.307,0,1,1-2.614,0V70.913l-2.566,1.482a1.307,1.307,0,1,1-1.307-2.264l2.566-1.482-2.566-1.482A1.307,1.307,0,0,1,29.491,64.9l2.566,1.482V63.422a1.307,1.307,0,1,1,2.614,0v2.964L37.238,64.9a1.307,1.307,0,0,1,1.307,2.264Zm-15.682,0L20.3,68.649l2.566,1.482a1.307,1.307,0,1,1-1.307,2.264l-2.566-1.482v2.964a1.307,1.307,0,1,1-2.614,0V70.913l-2.566,1.482A1.307,1.307,0,1,1,12.5,70.131l2.566-1.482L12.5,67.167A1.307,1.307,0,0,1,13.809,64.9l2.566,1.482V63.422a1.307,1.307,0,1,1,2.614,0v2.964L21.555,64.9a1.307,1.307,0,0,1,1.307,2.264Zm31.364,0L51.66,68.649l2.566,1.482a1.307,1.307,0,0,1-1.307,2.264l-2.566-1.482v2.964a1.307,1.307,0,1,1-2.614,0V70.913l-2.566,1.482a1.307,1.307,0,1,1-1.307-2.264l2.566-1.482-2.566-1.482A1.307,1.307,0,0,1,45.173,64.9l2.566,1.482V63.422a1.307,1.307,0,1,1,2.614,0v2.964L52.92,64.9a1.307,1.307,0,0,1,1.307,2.264Zm15.682,0-2.566,1.482,2.566,1.482A1.307,1.307,0,0,1,68.6,72.395l-2.566-1.482v2.964a1.307,1.307,0,1,1-2.614,0V70.913l-2.566,1.482a1.307,1.307,0,1,1-1.307-2.264l2.566-1.482-2.566-1.482A1.307,1.307,0,0,1,60.855,64.9l2.566,1.482V63.422a1.307,1.307,0,1,1,2.614,0v2.964L68.6,64.9a1.307,1.307,0,0,1,1.307,2.264ZM36.028,42.153a1.307,1.307,0,0,0,1.257,1.666h7.841a1.307,1.307,0,0,0,1.257-1.666L44.92,37.037a5.227,5.227,0,1,0-7.43,0Zm5.178-11.4a2.61,2.61,0,0,1,1.483,4.761,1.308,1.308,0,0,0-.513,1.434l1.217,4.26H39.018l1.218-4.26a1.308,1.308,0,0,0-.513-1.434,2.61,2.61,0,0,1,1.483-4.761Z"/>
    </g>
  </g>
</svg>
