<svg xmlns="http://www.w3.org/2000/svg" width="113" height="113" viewBox="0 0 113 113">
  <g id="Grupo_1072662" data-name="Grupo 1072662" transform="translate(-332 -1940)">
    <rect id="Rectángulo_381812" data-name="Rectángulo 381812" width="113" height="113" rx="7" transform="translate(332 1940)" fill="#fff"/>
    <g id="Grupo_57082" data-name="Grupo 57082" transform="translate(341 1965)">
      <line id="Línea_1699" data-name="Línea 1699" x2="11.941" transform="translate(3.922 21.889)" fill="none" stroke="#12263f" stroke-linecap="round" stroke-miterlimit="10" stroke-width="1.066"/>
      <line id="Línea_1700" data-name="Línea 1700" x2="11.94" transform="translate(75.562 6.212)" fill="none" stroke="#12263f" stroke-linecap="round" stroke-miterlimit="10" stroke-width="1.066"/>
      <line id="Línea_1701" data-name="Línea 1701" x2="11.94" transform="translate(49.958)" fill="none" stroke="#000" stroke-linecap="round" stroke-miterlimit="10" stroke-width="1.066"/>
      <line id="Línea_1702" data-name="Línea 1702" x2="2.974" transform="translate(8.406 13.371)" fill="none" stroke="#12263f" stroke-linecap="round" stroke-miterlimit="10" stroke-width="1.066"/>
      <line id="Línea_1703" data-name="Línea 1703" x2="2.975" transform="translate(76.122 39.354)" fill="none" stroke="#12263f" stroke-linecap="round" stroke-miterlimit="10" stroke-width="1.066"/>
      <line id="Línea_1704" data-name="Línea 1704" x2="2.973" transform="translate(83.967 48.693)" fill="none" stroke="#12263f" stroke-linecap="round" stroke-miterlimit="10" stroke-width="1.066"/>
      <line id="Línea_1705" data-name="Línea 1705" x2="2.974" transform="translate(74.635 15.783)" fill="none" stroke="#12263f" stroke-linecap="round" stroke-miterlimit="10" stroke-width="1.066"/>
      <line id="Línea_1706" data-name="Línea 1706" x2="7.842" transform="translate(87.762 31.823)" fill="none" stroke="#12263f" stroke-linecap="round" stroke-miterlimit="10" stroke-width="1.066"/>
      <line id="Línea_1707" data-name="Línea 1707" y1="0.001" x2="7.844" transform="translate(77.609 57.748)" fill="none" stroke="#12263f" stroke-linecap="round" stroke-miterlimit="10" stroke-width="1.066"/>
      <line id="Línea_1708" data-name="Línea 1708" x2="7.843" transform="translate(0 36.032)" fill="none" stroke="#12263f" stroke-linecap="round" stroke-miterlimit="10" stroke-width="1.066"/>
      <line id="Línea_1709" data-name="Línea 1709" x1="4.596" transform="translate(39.953 63.646)" fill="none" stroke="#12263f" stroke-linecap="round" stroke-miterlimit="10" stroke-width="1.066"/>
      <g id="Grupo_29101" data-name="Grupo 29101" transform="translate(15.592 3.812)">
        <path id="Trazado_69079" data-name="Trazado 69079" d="M5104.093,2957.8v3h.282c1.072,0,2.144,0,3.216,0a1.823,1.823,0,0,1,1.823.96,2.061,2.061,0,0,1,.2.819c.027.7.009,1.4.009,2.148h29.537a1.859,1.859,0,0,1,1.854,1.554,11.338,11.338,0,0,1,0,2.373,1.807,1.807,0,0,1-1.771,1.573c-.6.026-1.2,0-1.825,0v19.884a1.924,1.924,0,0,1-2.013,2.024q-4.05,0-8.1,0h-33.283c-2.117,0-4.234-.027-6.351.01a2.043,2.043,0,0,1-2.089-2.083c.024-6.463.012-12.927.012-19.391v-.438c-.528,0-1.034-.02-1.54,0a1.99,1.99,0,0,1-2.122-2.13c.031-.608-.016-1.224.063-1.825a1.876,1.876,0,0,1,1.852-1.562c1.766,0,3.532,0,5.3,0h.265v-.275c0-.6,0-1.2,0-1.8a1.762,1.762,0,0,1,1.826-1.844c.783-.009,1.568.017,2.353.023.441,0,.885,0,1.344,0V2957.8h-.315l-9.07,0a1.378,1.378,0,0,1-1.46-1.458q0-7.629,0-15.258a3.022,3.022,0,0,1,2.993-2.983c2.856-.012,5.714,0,8.571,0,.426,0,.851-.006,1.275,0,.163,0,.228-.045.28-.216a2.4,2.4,0,0,1,3.914-1.142,2.161,2.161,0,0,1,.706,1.135c.047.193.13.22.3.22q4.827-.007,9.653,0a3.054,3.054,0,0,1,3.133,2.6,2.584,2.584,0,0,1,.028.469c0,5.021-.01,10.042.014,15.063a1.524,1.524,0,0,1-1.589,1.582c-2.977-.031-5.953-.01-8.93-.01Zm31.555,18.4v-5.545c0-.405-.01-.416-.422-.416h-47.438c-.4,0-.412.011-.412.4v19.28c0,.447,0,.447.461.447h47.435c.376,0,.377,0,.377-.365q0-3.135,0-6.27c0-.088-.009-.177-.016-.283h-7.146a2.832,2.832,0,0,1-.359-.015.8.8,0,0,1-.715-.569.866.866,0,0,1,.179-.9,1.147,1.147,0,0,1,.943-.292q3.385,0,6.769,0h.333v-3.687h-.393q-5.921-.005-11.844-.01c-1.119,0-2.237.006-3.355.01a.94.94,0,0,1-.769-.313.844.844,0,0,1-.145-.932.859.859,0,0,1,.859-.535q3.119,0,6.238,0h9.42Zm-24.136-7.743h26.85c.214,0,.427-.009.639,0s.316-.079.311-.307c-.011-.425,0-.851,0-1.276,0-.356-.021-.377-.379-.377q-10.194,0-20.389,0l-25.325,0h-9.127c-.351,0-.372.022-.374.382s0,.74,0,1.11c0,.465,0,.466.452.466h27.348Zm1.656-12.442c.006-.114.013-.2.013-.279q0-7.253,0-14.506a1.276,1.276,0,0,0-1.352-1.355q-5.033,0-10.067.006a.5.5,0,0,0-.337.162,2.416,2.416,0,0,1-3.768.008.44.44,0,0,0-.392-.18c-.988.007-1.978,0-2.966,0h-6.962a1.306,1.306,0,0,0-1.472,1.487q0,7.142,0,14.284v.371Zm-10.858,1.9h-5.576v4.671h-5.521v2.058h16.616v-2.071h-5.519Zm-2.162-19.36a.622.622,0,1,0-.62.605A.607.607,0,0,0,5100.147,2938.56Z" transform="translate(-5081.934 -2936.133)" fill="#00223d"/>
        <path id="Trazado_69081" data-name="Trazado 69081" d="M5141.781,3485.378h-27.348c-.456,0-.454,0-.452-.466,0-.37,0-.74,0-1.109s.023-.382.374-.382h9.126q12.663,0,25.326,0,10.195,0,20.389,0c.357,0,.378.02.378.377,0,.425-.007.851,0,1.276.006.228-.084.319-.311.307s-.426,0-.638,0h-26.85Z" transform="translate(-5112.202 -3453.051)" fill="#6e40fb"/>
        <path id="Trazado_69083" data-name="Trazado 69083" d="M5260.251,3328.8v4.658h5.52v2.071h-16.616v-2.059h5.52V3328.8Z" transform="translate(-5239.876 -3307.013)" fill="#fff"/>
        <path id="Trazado_69084" data-name="Trazado 69084" d="M5389.03,2969a.622.622,0,0,1-1.244-.023.622.622,0,1,1,1.244.023Z" transform="translate(-5370.816 -2966.568)" fill="#6e40fb"/>
        <path id="Trazado_69085" data-name="Trazado 69085" d="M5184.546,3039.51h-11.538c-.735,0-1.059-.323-1.06-1.062q0-5.895,0-11.789a.877.877,0,0,1,.951-.947c1.83,0,3.66.019,5.49.018,2.874,0,5.748-.013,8.622-.015,3.023,0,6.046.008,9.07-.009a.994.994,0,0,1,1.066,1.077c-.019,3.911-.008,7.822-.008,11.732a.906.906,0,0,1-1,.994Zm10.817-12.011h-21.635v10.219h21.635Z" transform="translate(-5166.954 -3020.737)" fill="#00223d"/>
      </g>
    </g>
  </g>
</svg>
