<svg xmlns="http://www.w3.org/2000/svg" width="113" height="113" viewBox="0 0 113 113">
  <g id="Grupo_1072663" data-name="Grupo 1072663" transform="translate(-847 -1940)">
    <rect id="Rectángulo_381813" data-name="Rectángulo 381813" width="113" height="113" rx="7" transform="translate(847 1940)" fill="#fff"/>
    <g id="Grupo_57082" data-name="Grupo 57082" transform="translate(855 1964)">
      <line id="Línea_1699" data-name="Línea 1699" x2="12.22" transform="translate(4.013 22.4)" fill="none" stroke="#12263f" stroke-linecap="round" stroke-miterlimit="10" stroke-width="1.066"/>
      <line id="Línea_1700" data-name="Línea 1700" x2="12.219" transform="translate(77.327 6.357)" fill="none" stroke="#12263f" stroke-linecap="round" stroke-miterlimit="10" stroke-width="1.066"/>
      <line id="Línea_1701" data-name="Línea 1701" x2="12.219" transform="translate(51.125)" fill="none" stroke="#000" stroke-linecap="round" stroke-miterlimit="10" stroke-width="1.066"/>
      <line id="Línea_1702" data-name="Línea 1702" x2="3.043" transform="translate(8.602 13.683)" fill="none" stroke="#12263f" stroke-linecap="round" stroke-miterlimit="10" stroke-width="1.066"/>
      <line id="Línea_1703" data-name="Línea 1703" x2="3.045" transform="translate(77.9 40.273)" fill="none" stroke="#12263f" stroke-linecap="round" stroke-miterlimit="10" stroke-width="1.066"/>
      <line id="Línea_1704" data-name="Línea 1704" x2="3.043" transform="translate(85.928 49.831)" fill="none" stroke="#12263f" stroke-linecap="round" stroke-miterlimit="10" stroke-width="1.066"/>
      <line id="Línea_1705" data-name="Línea 1705" x2="3.044" transform="translate(76.378 16.152)" fill="none" stroke="#12263f" stroke-linecap="round" stroke-miterlimit="10" stroke-width="1.066"/>
      <line id="Línea_1706" data-name="Línea 1706" x2="8.026" transform="translate(89.812 32.566)" fill="none" stroke="#12263f" stroke-linecap="round" stroke-miterlimit="10" stroke-width="1.066"/>
      <line id="Línea_1707" data-name="Línea 1707" y1="0.001" x2="8.027" transform="translate(79.422 59.097)" fill="none" stroke="#12263f" stroke-linecap="round" stroke-miterlimit="10" stroke-width="1.066"/>
      <line id="Línea_1708" data-name="Línea 1708" x2="8.026" transform="translate(0 36.874)" fill="none" stroke="#12263f" stroke-linecap="round" stroke-miterlimit="10" stroke-width="1.066"/>
      <line id="Línea_1709" data-name="Línea 1709" x1="4.703" transform="translate(40.886 65.132)" fill="none" stroke="#12263f" stroke-linecap="round" stroke-miterlimit="10" stroke-width="1.066"/>
      <g id="Grupo_29092" data-name="Grupo 29092" transform="translate(20.679 3.378)">
        <path id="Trazado_68988" data-name="Trazado 68988" d="M-468.7,77.671c.333.1.675.184,1,.313a4.832,4.832,0,0,1,3.354,4.47c.108,2.4.089,4.81.028,7.213a4.979,4.979,0,0,1-3.729,4.794c-.292.09-.4.219-.378.516.025.441-.129.964.061,1.3.162.288.708.351,1.074.534a4.827,4.827,0,0,1,2.946,4.272c.094,2.454.087,4.916.017,7.372a4.963,4.963,0,0,1-3.681,4.665c-.3.091-.438.218-.417.544.027.423-.131.93.054,1.249.167.289.688.372,1.05.551a4.834,4.834,0,0,1,2.978,4.3c.09,2.49.093,4.988,0,7.478a5.018,5.018,0,0,1-4.939,4.744c-2.263.038-4.527.013-6.791.01-.6,0-.969-.326-.961-.82s.366-.783.989-.784c2.087,0,4.175-.045,6.26.014a3.664,3.664,0,0,0,3.88-3.872c-.081-2.066-.011-4.138-.023-6.207a3.5,3.5,0,0,0-3.731-3.711q-19.816,0-39.632,0a3.549,3.549,0,0,0-3.751,3.767q-.008,3.1,0,6.207a3.567,3.567,0,0,0,3.829,3.8q14.617,0,29.233,0a5.381,5.381,0,0,1,.583.009.738.738,0,0,1,.727.763.753.753,0,0,1-.673.817,2.272,2.272,0,0,1-.476.015q-14.7,0-29.393,0a5.141,5.141,0,0,1-5.436-5.412c0-1.928.068-3.858-.019-5.782a5.348,5.348,0,0,1,4.132-5.726v-1.75a15.173,15.173,0,0,1-1.765-.849,4.868,4.868,0,0,1-2.339-4.219c-.034-2.21-.015-4.421-.011-6.632a5.13,5.13,0,0,1,3.822-5.118c.085-.026.167-.057.281-.1v-1.85a5.248,5.248,0,0,1-3-1.864,4.962,4.962,0,0,1-1.1-3.14q-.014-3.342,0-6.685a5.119,5.119,0,0,1,4.213-5.119,1.648,1.648,0,0,0,.244-.091Zm-40.185,18.673h.691l8.807,0a2.5,2.5,0,0,1,.529.017.752.752,0,0,1,.662.826.743.743,0,0,1-.686.75,3.252,3.252,0,0,1-.53.013c-3.307,0-6.614,0-9.921,0a3.547,3.547,0,0,0-3.708,3.706q-.012,3.157,0,6.313a3.548,3.548,0,0,0,3.763,3.756q19.816,0,39.632,0A3.522,3.522,0,0,0-465.92,108q.01-3.13,0-6.26a4.763,4.763,0,0,0-.08-1,3.51,3.51,0,0,0-3.633-2.786q-12.813,0-25.625,0a4.274,4.274,0,0,1-.583-.011.745.745,0,0,1-.7-.79.748.748,0,0,1,.7-.791,3.618,3.618,0,0,1,.53-.01l24.617,0h.6V94.7h-38.79Zm19.4-3.29q9.944,0,19.888,0a3.5,3.5,0,0,0,3.67-3.617q.023-3.262,0-6.523a3.5,3.5,0,0,0-3.654-3.633q-19.888-.009-39.776,0a3.54,3.54,0,0,0-3.685,3.673q-.015,3.129,0,6.258a3.556,3.556,0,0,0,3.88,3.844Zm19.4,21.932v-1.624h-38.791v1.624Z" transform="translate(514.672 -77.671)" fill="#00223d"/>
        <path id="Trazado_68989" data-name="Trazado 68989" d="M-354.108,518.4h-13.256a3.757,3.757,0,0,1-.582-.018.748.748,0,0,1-.688-.8.759.759,0,0,1,.668-.773,1.985,1.985,0,0,1,.423-.013l26.883,0a2.66,2.66,0,0,1,.476.013.76.76,0,0,1,.688.809.746.746,0,0,1-.72.775,4.148,4.148,0,0,1-.477.013Z" transform="translate(384.161 -470.098)" fill="#00223d"/>
        <path id="Trazado_68990" data-name="Trazado 68990" d="M-354.066,485.5h13.306c.845,0,1.246.264,1.237.811s-.412.8-1.257.8l-26.613,0a3.612,3.612,0,0,1-.582-.018.791.791,0,0,1-.7-.858.749.749,0,0,1,.768-.728c.6-.021,1.2-.016,1.8-.016h12.034Z" transform="translate(384.199 -442.134)" fill="#00223d"/>
        <path id="Trazado_68991" data-name="Trazado 68991" d="M-461.193,481.215a3.282,3.282,0,0,1-3.262,3.276,3.282,3.282,0,0,1-3.27-3.317,3.265,3.265,0,0,1,3.285-3.243A3.266,3.266,0,0,1-461.193,481.215Zm-1.615-.01a1.666,1.666,0,0,0-1.642-1.66,1.675,1.675,0,0,0-1.663,1.643,1.668,1.668,0,0,0,1.671,1.686A1.665,1.665,0,0,0-462.809,481.2Z" transform="translate(472.717 -435.374)" fill="#00223d"/>
        <path id="Trazado_68994" data-name="Trazado 68994" d="M-421.361,414.983h-38.791v-1.624h38.791Z" transform="translate(465.949 -377.667)" fill="#fff"/>
        <path id="Trazado_68995" data-name="Trazado 68995" d="M-449.259,494.764a1.665,1.665,0,0,1-1.633,1.669,1.667,1.667,0,0,1-1.671-1.686A1.675,1.675,0,0,1-450.9,493.1,1.666,1.666,0,0,1-449.259,494.764Z" transform="translate(459.166 -448.933)" fill="#6e40fb"/>
        <path id="Trazado_68996" data-name="Trazado 68996" d="M-354.123,342.816h-13.254c-.177,0-.354.006-.53-.01a.793.793,0,0,1-.771-.785.808.808,0,0,1,.757-.808,3.658,3.658,0,0,1,.424-.007l26.72,0c.844,0,1.246.258,1.253.8s-.39.809-1.239.809Z" transform="translate(384.201 -313.182)" fill="#00223d"/>
        <path id="Trazado_68997" data-name="Trazado 68997" d="M-354.1,311.539h-13.307a2.4,2.4,0,0,1-.58-.029.756.756,0,0,1-.632-.852.724.724,0,0,1,.719-.716c.458-.028.918-.02,1.378-.02l25.82,0c.842,0,1.243.269,1.227.819s-.4.79-1.211.791H-354.1Z" transform="translate(384.156 -285.227)" fill="#00223d"/>
        <path id="Trazado_68998" data-name="Trazado 68998" d="M-467.729,305.579a3.271,3.271,0,0,1,3.324-3.261,3.274,3.274,0,0,1,3.208,3.324,3.275,3.275,0,0,1-3.3,3.236A3.275,3.275,0,0,1-467.729,305.579Zm1.612.042a1.675,1.675,0,0,0,1.662,1.645,1.673,1.673,0,0,0,1.642-1.716,1.662,1.662,0,0,0-1.685-1.615A1.673,1.673,0,0,0-466.117,305.621Z" transform="translate(472.72 -278.433)" fill="#00223d"/>
        <path id="Trazado_68999" data-name="Trazado 68999" d="M-354.125,167.2h-13.2c-.194,0-.39,0-.583-.01a.76.76,0,0,1-.758-.74.789.789,0,0,1,.708-.847,3.061,3.061,0,0,1,.476-.015l26.772,0a2.916,2.916,0,0,1,.476.016.807.807,0,0,1,.708.852.753.753,0,0,1-.763.736c-.653.021-1.307.017-1.961.017q-5.938,0-11.875,0Z" transform="translate(384.194 -156.232)" fill="#00223d"/>
        <path id="Trazado_69000" data-name="Trazado 69000" d="M-358.408,134.334h8.851c.177,0,.354-.005.53.011a.764.764,0,0,1,.744.756.8.8,0,0,1-.725.835,3.54,3.54,0,0,1-.477.011h-17.967a2.45,2.45,0,0,1-.476-.017.759.759,0,0,1-.685-.81.737.737,0,0,1,.718-.772,8.145,8.145,0,0,1,.847-.018h8.639Z" transform="translate(384.142 -128.304)" fill="#00223d"/>
        <path id="Trazado_69001" data-name="Trazado 69001" d="M-467.761,129.933a3.293,3.293,0,0,1,3.3-3.245,3.284,3.284,0,0,1,3.238,3.352,3.268,3.268,0,0,1-3.321,3.21A3.273,3.273,0,0,1-467.761,129.933Zm4.92.062a1.657,1.657,0,0,0-1.617-1.681,1.667,1.667,0,0,0-1.688,1.67,1.677,1.677,0,0,0,1.647,1.66A1.677,1.677,0,0,0-462.841,129.995Z" transform="translate(472.749 -121.477)" fill="#00223d"/>
        <path id="Trazado_69002" data-name="Trazado 69002" d="M-158.541,135.976c-.865,0-1.731,0-2.6,0-.621,0-.977-.295-.99-.788-.013-.516.346-.817,1-.819q2.6-.007,5.192,0c.619,0,.983.3,1,.783s-.378.824-1.013.826C-156.811,135.979-157.676,135.977-158.541,135.976Z" transform="translate(199.611 -128.336)" fill="#00223d"/>
        <path id="Trazado_69003" data-name="Trazado 69003" d="M-452.564,319.212a1.673,1.673,0,0,1,1.619-1.686,1.662,1.662,0,0,1,1.685,1.615,1.673,1.673,0,0,1-1.642,1.716A1.675,1.675,0,0,1-452.564,319.212Z" transform="translate(459.168 -292.023)" fill="#6e40fb"/>
        <path id="Trazado_69004" data-name="Trazado 69004" d="M-449.265,143.651a1.677,1.677,0,0,1-1.658,1.648,1.677,1.677,0,0,1-1.647-1.66,1.667,1.667,0,0,1,1.688-1.67A1.657,1.657,0,0,1-449.265,143.651Z" transform="translate(459.173 -135.133)" fill="#6e40fb"/>
      </g>
    </g>
  </g>
</svg>
