<svg xmlns="http://www.w3.org/2000/svg" width="85" height="85" viewBox="0 0 85 85">
  <g id="Grupo_1072652" data-name="Grupo 1072652" transform="translate(-180 -2293)">
    <rect id="Rectángulo_381814" data-name="Rectángulo 381814" width="85" height="85" rx="7" transform="translate(180 2293)" fill="#1e5af9"/>
    <g id="outline" transform="translate(173 2293)">
      <path id="Trazado_819192" data-name="Trazado 819192" d="M52.509,16a23.192,23.192,0,0,0-19.6,10.811V22.236a.891.891,0,0,0-.891-.891V16.891A.891.891,0,0,0,31.127,16H25.782a.891.891,0,0,0-.891.891v4.455a.891.891,0,0,0-.891.891v8.909a.891.891,0,0,0,.891.891h.891v4.454h-.891a.891.891,0,0,0-.891.891v3.564a.891.891,0,0,0,.891.891h.891v2.673a24.945,24.945,0,0,0,49.89,0V39.163A23.19,23.19,0,0,0,52.509,16ZM31.121,30.254H25.782V23.127h5.345V30.24ZM26.673,17.782h3.564v3.564H26.673Zm.891,14.254h1.782v4.454H27.564Zm-1.782,6.236h8.909v1.782H25.782Zm5.345,3.564h1.782v2.673a17.818,17.818,0,0,0,35.636,0V40.054a6.243,6.243,0,0,0-6.236-6.236H59.636V32.036h2.673a8.027,8.027,0,0,1,8.018,8.018v4.454a19.6,19.6,0,0,1-39.2,0ZM62.309,30.254H59.636v-.891a.891.891,0,0,0-.891-.891H49.836a.891.891,0,0,0-.891.891H44.491a.891.891,0,0,0-.891.891V35.6a.891.891,0,0,0,.891.891h4.455a.891.891,0,0,0,.891.891h8.909a.891.891,0,0,0,.891-.891V35.6h2.673a4.46,4.46,0,0,1,4.454,4.455v4.454a16.036,16.036,0,0,1-32.072,0V41.836h.891a.891.891,0,0,0,.891-.891V37.382a.891.891,0,0,0-.891-.891h-.691a17.819,17.819,0,0,1,34.4-3.3A9.77,9.77,0,0,0,62.309,30.254ZM48.945,34.709H45.382V31.145h3.564Zm1.782-4.454h7.127V35.6H50.727ZM73.89,44.509a23.163,23.163,0,1,1-46.327,0V41.836h1.782v2.673a21.382,21.382,0,1,0,42.763,0V39.163A19.6,19.6,0,0,0,33.091,36.49h-1.8a21.383,21.383,0,0,1,42.6,2.673Z" fill="#fff"/>
    </g>
  </g>
</svg>
