<svg xmlns="http://www.w3.org/2000/svg" xmlns:xlink="http://www.w3.org/1999/xlink" width="190" height="87.07" viewBox="0 0 190 87.07">
  <defs>
    <clipPath id="clip-path">
      <path id="path3726" d="M0-682.665H87.07v87.07H0Z" transform="translate(0 682.665)"/>
    </clipPath>
  </defs>
  <g id="Grupo_1072664" data-name="Grupo 1072664" transform="translate(-390 -3128)">
    <rect id="Rectángulo_381829" data-name="Rectángulo 381829" width="190" height="60" rx="7" transform="translate(390 3141)" fill="#1e5af9"/>
    <g id="g3720" transform="translate(441 3810.665)">
      <g id="g3722" transform="translate(0 -682.665)">
        <g id="g3724" clip-path="url(#clip-path)">
          <g id="g3730" transform="translate(1.701 1.701)">
            <path id="path3732" d="M-572.329-286.165a41.835,41.835,0,0,1-41.835,41.835A41.835,41.835,0,0,1-656-286.165,41.835,41.835,0,0,1-614.164-328a41.835,41.835,0,0,1,41.835,41.835" transform="translate(655.998 327.999)" fill="#fff"/>
          </g>
          <g id="g3734" transform="translate(28.262 19.617)">
            <path id="path3736" d="M-240.918-173.382a4.107,4.107,0,0,0-5.865.054l-3.916,4.068V-192a3.18,3.18,0,0,0-3.18-3.18h0a3.18,3.18,0,0,0-3.18,3.18v-3.553a3.18,3.18,0,0,0-3.18-3.18h0a3.18,3.18,0,0,0-3.18,3.18v3.86a3.18,3.18,0,0,0-3.18-3.18,3.18,3.18,0,0,0-3.18,3.18v5.035a3.18,3.18,0,0,0-3.18-3.18h0a3.18,3.18,0,0,0-3.18,3.18v23.684a12.3,12.3,0,0,0,12.3,12.3h4.973a12.3,12.3,0,0,0,10.153-5.36l8.284-12.127a4.107,4.107,0,0,0-.486-5.22" transform="translate(276.138 198.729)" fill="#ffdb8c"/>
          </g>
          <g id="g3738" transform="translate(39.281 17.917)">
            <path id="path3740" d="M-61.5-100.209a1.7,1.7,0,0,1-1.7-1.7v-17a4.886,4.886,0,0,1,4.881-4.88,4.886,4.886,0,0,1,4.88,4.88V-108a1.7,1.7,0,0,1-1.7,1.7,1.7,1.7,0,0,1-1.7-1.7v-10.908a1.481,1.481,0,0,0-1.479-1.479,1.481,1.481,0,0,0-1.479,1.479v17A1.7,1.7,0,0,1-61.5-100.209Z" transform="translate(63.196 123.786)"/>
          </g>
          <g id="g3742" transform="translate(32.921 21.776)">
            <path id="path3744" d="M-61.5-119.338a1.7,1.7,0,0,1-1.7-1.7v-15.344a4.886,4.886,0,0,1,4.88-4.881,4.886,4.886,0,0,1,4.881,4.881v13.137a1.7,1.7,0,0,1-1.7,1.7,1.7,1.7,0,0,1-1.7-1.7v-13.137a1.481,1.481,0,0,0-1.479-1.479,1.481,1.481,0,0,0-1.479,1.479v15.344A1.7,1.7,0,0,1-61.5-119.338Z" transform="translate(63.196 141.264)"/>
          </g>
          <g id="g3746" transform="translate(45.64 21.47)">
            <path id="path3748" d="M-61.5-32.4a1.7,1.7,0,0,1-1.7-1.7v-7.355a4.886,4.886,0,0,1,4.881-4.88,4.886,4.886,0,0,1,4.88,4.88v1.029a1.7,1.7,0,0,1-1.7,1.7,1.7,1.7,0,0,1-1.7-1.7v-1.029a1.481,1.481,0,0,0-1.479-1.479,1.481,1.481,0,0,0-1.479,1.479V-34.1A1.7,1.7,0,0,1-61.5-32.4Z" transform="translate(63.196 46.333)"/>
          </g>
          <g id="g3750" transform="translate(28.864 37.583)">
            <path id="path3752" d="M3.332-163.9H-1.642a14.039,14.039,0,0,1-11.373-5.837,1.7,1.7,0,0,1,.389-2.373,1.7,1.7,0,0,1,2.373.389A10.63,10.63,0,0,0-1.642-167.3H3.332a10.589,10.589,0,0,0,8.748-4.618l8.284-12.127a2.409,2.409,0,0,0-.285-3.058,2.388,2.388,0,0,0-1.725-.706,2.389,2.389,0,0,0-1.711.737l-3.916,4.068a1.7,1.7,0,0,1-1.861.4A1.7,1.7,0,0,1,9.8-184.187v-9.8a1.7,1.7,0,0,1,1.7-1.7,1.7,1.7,0,0,1,1.7,1.7v5.585l.991-1.029a5.764,5.764,0,0,1,4.13-1.779,5.765,5.765,0,0,1,4.163,1.7,5.812,5.812,0,0,1,.687,7.381L14.889-170A13.988,13.988,0,0,1,3.332-163.9Z" transform="translate(13.334 195.69)"/>
          </g>
          <g id="g3754" transform="translate(26.561 26.811)">
            <path id="path3756" d="M-61.5-122.625a1.7,1.7,0,0,1-1.7-1.7v-21.027a4.886,4.886,0,0,1,4.881-4.88,4.886,4.886,0,0,1,4.88,4.88v14.281a1.7,1.7,0,0,1-1.7,1.7,1.7,1.7,0,0,1-1.7-1.7v-14.281a1.481,1.481,0,0,0-1.479-1.479,1.481,1.481,0,0,0-1.479,1.479v21.027A1.7,1.7,0,0,1-61.5-122.625Z" transform="translate(63.196 150.233)"/>
          </g>
          <g id="g3758" transform="translate(1.701 1.701)">
            <path id="path3760" d="M-286.165-55.837a33.506,33.506,0,0,1,20.738,7.162L-312.675-1.427a33.506,33.506,0,0,1-7.162-20.738,33.71,33.71,0,0,1,33.672-33.672m33.672,33.672a33.71,33.71,0,0,1-33.672,33.672A33.506,33.506,0,0,1-306.9,4.345L-259.655-42.9a33.507,33.507,0,0,1,7.162,20.738m-33.672,41.835A41.835,41.835,0,0,0-244.33-22.165,41.835,41.835,0,0,0-286.165-64,41.835,41.835,0,0,0-328-22.165a41.835,41.835,0,0,0,41.835,41.835" transform="translate(327.999 64)" fill="#ff7e99"/>
          </g>
          <g id="g3762" transform="translate(0 0)">
            <path id="path3764" d="M-297.8,9.737A43.584,43.584,0,0,1-341.332-33.8a43.262,43.262,0,0,1,7.895-25.008,1.7,1.7,0,0,1,2.369-.413,1.7,1.7,0,0,1,.413,2.369A39.878,39.878,0,0,0-337.931-33.8,40.179,40.179,0,0,0-297.8,6.336,40.179,40.179,0,0,0-257.663-33.8,40.179,40.179,0,0,0-297.8-73.932a39.928,39.928,0,0,0-22.455,6.865,1.7,1.7,0,0,1-2.361-.456,1.7,1.7,0,0,1,.456-2.361A43.316,43.316,0,0,1-297.8-77.333,43.584,43.584,0,0,1-254.262-33.8,43.584,43.584,0,0,1-297.8,9.737Zm0-8.163A34.993,34.993,0,0,1-319.585-5.95a1.7,1.7,0,0,1-.648-1.236,1.7,1.7,0,0,1,.5-1.3l47.248-47.248a1.7,1.7,0,0,1,1.3-.5,1.7,1.7,0,0,1,1.236.648A34.993,34.993,0,0,1-262.425-33.8,35.412,35.412,0,0,1-297.8,1.574Zm-18.139-9.057A31.581,31.581,0,0,0-297.8-1.827,32.007,32.007,0,0,0-265.826-33.8a31.581,31.581,0,0,0-5.656-18.139Zm-8.371-3.877q-.051,0-.1,0a1.7,1.7,0,0,1-1.236-.648A34.993,34.993,0,0,1-333.17-33.8,35.412,35.412,0,0,1-297.8-69.17a34.993,34.993,0,0,1,21.787,7.524,1.7,1.7,0,0,1,.648,1.236,1.7,1.7,0,0,1-.5,1.3L-323.1-11.857A1.7,1.7,0,0,1-324.307-11.359Zm26.51-54.41A32.007,32.007,0,0,0-329.768-33.8a31.581,31.581,0,0,0,5.656,18.139l44.454-44.454A31.581,31.581,0,0,0-297.8-65.769Z" transform="translate(341.332 77.333)"/>
          </g>
          <g id="g3766" transform="translate(14.239 13.672)">
            <path id="path3768"/>
          </g>
        </g>
      </g>
    </g>
  </g>
</svg>
