<svg xmlns="http://www.w3.org/2000/svg" width="364" height="220" viewBox="0 0 364 220">
  <g id="Grupo_1071847" data-name="Grupo 1071847" transform="translate(-246.667 -673)">
    <rect id="Rectángulo_33789" data-name="Rectángulo 33789" width="364" height="220" rx="10" transform="translate(246.667 673)" fill="#e9e2fe"/>
    <path id="Trazado_133468" data-name="Trazado 133468" d="M2134.314,639.274l12.786,12.812a36.2,36.2,0,0,1,51.3,0l12.792-12.812a54.283,54.283,0,0,0-76.879,0Zm-21.035-23.322,12.791,12.79a66.277,66.277,0,0,1,93.8,0l12.769-12.79a84.287,84.287,0,0,0-119.357,0Zm59.489-56.66a117.634,117.634,0,0,0-83.4,34.586l12.784,12.791a99.752,99.752,0,0,1,141.2.022l12.784-12.812A117.626,117.626,0,0,0,2172.768,559.292Zm0,95.259a18.1,18.1,0,1,0,18.083,18.1A18.114,18.114,0,0,0,2172.768,654.551Z" transform="translate(-1743.698 157.709)" fill="#6e40fb"/>
  </g>
</svg>
