<svg xmlns="http://www.w3.org/2000/svg" xmlns:xlink="http://www.w3.org/1999/xlink" width="364" height="220" viewBox="0 0 364 220">
  <defs>
    <linearGradient id="linear-gradient" x1="-1.285" y1="0.494" x2="0.743" y2="0.501" gradientUnits="objectBoundingBox">
      <stop offset="0" stop-color="#fff"/>
      <stop offset="1" stop-color="#d2e6ee"/>
    </linearGradient>
    <linearGradient id="linear-gradient-2" x1="0.443" y1="0.5" x2="2.117" y2="0.497" xlink:href="#linear-gradient"/>
    <linearGradient id="linear-gradient-3" x1="0" y1="0.5" x2="1" y2="0.5" xlink:href="#linear-gradient"/>
    <linearGradient id="linear-gradient-4" x1="0.112" y1="1.088" x2="1.044" y2="-0.324" xlink:href="#linear-gradient"/>
    <linearGradient id="linear-gradient-5" x1="0.841" y1="-0.124" x2="0.271" y2="0.909" gradientUnits="objectBoundingBox">
      <stop offset="0" stop-color="#fff"/>
      <stop offset="1" stop-color="#231f20"/>
    </linearGradient>
    <linearGradient id="linear-gradient-6" x1="-0.155" y1="0.495" x2="0.605" y2="0.5" xlink:href="#linear-gradient"/>
    <linearGradient id="linear-gradient-9" x1="0.284" y1="0.739" x2="1.532" y2="-0.6" gradientUnits="objectBoundingBox">
      <stop offset="0" stop-color="#fff"/>
      <stop offset="1" stop-color="#e1d3e5"/>
    </linearGradient>
  </defs>
  <g id="Grupo_1071848" data-name="Grupo 1071848" transform="translate(1826 10622)">
    <rect id="Rectángulo_33796" data-name="Rectángulo 33796" width="364" height="220" rx="10" transform="translate(-1826 -10622)" fill="#e9e2fe"/>
    <g id="Grupo_1071850" data-name="Grupo 1071850" transform="translate(-2196.404 -11030.273)">
      <g id="Grupo_33036" data-name="Grupo 33036" transform="translate(456.404 423.273)">
        <g id="Grupo_32834" data-name="Grupo 32834" transform="translate(33.891 24.915)">
          <g id="Grupo_32828" data-name="Grupo 32828">
            <path id="Trazado_81100" data-name="Trazado 81100" d="M449.086,243.847l-.315-.343a1.3,1.3,0,0,1-.449,1.962L411.908,266.6a1.5,1.5,0,0,1-1.517-.01l-6.244-3.716a1.5,1.5,0,0,1-.273-2.364l-.813.514a5.239,5.239,0,0,0,.06,3.655l7.269,4.283a1.5,1.5,0,0,0,1.517.01L448.284,248A3.538,3.538,0,0,0,449.086,243.847Z" transform="translate(-389.724 -166.973)" fill="#e8e8e8"/>
            <g id="Grupo_32827" data-name="Grupo 32827">
              <path id="Trazado_81101" data-name="Trazado 81101" d="M491.7,124.658a1.806,1.806,0,0,1,.512.025A1.8,1.8,0,0,0,491.7,124.658Z" transform="translate(-422.76 -122.828)" fill="none"/>
              <path id="Trazado_81102" data-name="Trazado 81102" d="M407.658,255.552l-4.126,2.382a1.04,1.04,0,0,0-.012,1.794l7.192,4.281a1.041,1.041,0,0,0,1.052.007L448.9,242.578a1.04,1.04,0,0,0,.012-1.794l-7.475-4.449-.241-.144-2.107,1.217-26.777,15.46Z" transform="translate(-389.82 -164.257)" fill="#94c6c7"/>
              <path id="Trazado_81103" data-name="Trazado 81103" d="M385.113,209.837l0-1.693-.006-2.16-.006-2.265-.111-38.815a6.726,6.726,0,0,1,3.038-5.264l61.75-35.653a2.9,2.9,0,0,1,1.19-.406,1.805,1.805,0,0,1,.512.025h0a1.5,1.5,0,0,1,.465.173l-2.968-1.822a2.146,2.146,0,0,0-2.165.209L385.063,157.82a6.715,6.715,0,0,0-3.039,5.263l.109,38.815.008,2.264.005,2.16.005,1.692a2.127,2.127,0,0,0,.893,1.95c1.467.854,1.5.969,2.961,1.819A2.125,2.125,0,0,1,385.113,209.837Z" transform="translate(-382.024 -121.751)" fill="#b9dfe0"/>
              <path id="Trazado_81104" data-name="Trazado 81104" d="M494.867,196.876l0,0,0,0v0Z" transform="translate(-423.937 -149.653)" fill="#082c44"/>
              <path id="Trazado_81105" data-name="Trazado 81105" d="M463.406,223.32l.006,0,0,0,0,0Z" transform="translate(-412.251 -159.474)" fill="#082c44"/>
              <path id="Trazado_81106" data-name="Trazado 81106" d="M446.878,240.432l.207,3.708-29.8,17.2h0l29.8-17.206-.208-3.708-.005,0v0Z" transform="translate(-395.122 -165.831)" fill="#082c44"/>
              <path id="Trazado_81107" data-name="Trazado 81107" d="M410.756,251.967l-.291,6.169-.107,2.279-.078,1.659,4.4,2.558.185-3.933.14-2.969.4-8.449Z" transform="translate(-392.519 -169.119)" fill="#e1f1f2"/>
              <path id="Trazado_81108" data-name="Trazado 81108" d="M417.284,273.7h0Z" transform="translate(-395.12 -178.189)" fill="#134169"/>
              <path id="Trazado_81109" data-name="Trazado 81109" d="M446.876,234.077h0v0l-.141-2.52-.459-8.232v0l-28.266,16.32-.4,8.448-.14,2.969-.185,3.933h0l29.8-17.2Z" transform="translate(-395.12 -159.476)" fill="#b9dfe0"/>
              <path id="Trazado_81110" data-name="Trazado 81110" d="M454.7,170.051v0l-.008-2.159-.006-2.263-.109-38.816c0-1.2-.541-1.962-1.353-2.126h0a1.806,1.806,0,0,0-.512-.025,2.905,2.905,0,0,0-1.19.406l-61.75,35.653a6.726,6.726,0,0,0-3.038,5.264l.111,38.814.006,2.265.006,2.16.005,1.693a2.125,2.125,0,0,0,.892,1.947l.005,0,0,0a2.148,2.148,0,0,0,2.164-.206l12.089-6.98,4.652-2.686h0l28.266-16.32h0l0,0L451.672,177a6.715,6.715,0,0,0,3.036-5.261Z" transform="translate(-383.774 -122.828)" fill="#e1f1f2"/>
              <path id="Trazado_81111" data-name="Trazado 81111" d="M492.517,124.7h0Z" transform="translate(-423.063 -122.848)" fill="#134169"/>
              <path id="Trazado_81112" data-name="Trazado 81112" d="M446.7,223.317l-28.266,16.321h0l28.266-16.32Z" transform="translate(-395.549 -159.475)" fill="#134169"/>
              <path id="Trazado_81113" data-name="Trazado 81113" d="M453.586,131.894c0-1.158-.826-1.629-1.835-1.045l-59.288,34.228a4.034,4.034,0,0,0-1.824,3.159l.1,38.748a2.188,2.188,0,0,0,3.282,1.889l58.578-33.82a2.188,2.188,0,0,0,1.094-1.9Z" transform="translate(-385.224 -125.038)" fill="#90adcc"/>
            </g>
          </g>
          <g id="Grupo_32833" data-name="Grupo 32833" transform="translate(19.6 25.256)">
            <g id="Grupo_32829" data-name="Grupo 32829" transform="translate(16.29 30.605)">
              <path id="Trazado_81114" data-name="Trazado 81114" d="M441.548,210.955c1.347-.778,2.44-.15,2.444,1.393a5.352,5.352,0,0,1-2.428,4.21c-1.348.778-2.44.151-2.444-1.4A5.351,5.351,0,0,1,441.548,210.955Z" transform="translate(-439.121 -210.621)" fill="#1e5af9"/>
            </g>
            <g id="Grupo_32830" data-name="Grupo 32830" transform="translate(11.488 20.948)">
              <path id="Trazado_81115" data-name="Trazado 81115" d="M438.714,196.664c2.627-1.517,5.246-1.89,7.142-.714-.869,1.507-1.744,3.011-2.634,4.554-1.254-.637-2.758-.514-4.521.5a13.012,13.012,0,0,0-4.527,4.759c-.119-.053-.217-.094-.311-.143q-1.185-.654-2.38-1.3A20.414,20.414,0,0,1,438.714,196.664Z" transform="translate(-431.483 -195.257)" fill="#1e5af9"/>
            </g>
            <g id="Grupo_32831" data-name="Grupo 32831" transform="translate(5.844 10.606)">
              <path id="Trazado_81116" data-name="Trazado 81116" d="M435.322,181.322c4.641-2.68,9.332-3.389,12.9-1.307-.887,1.531-1.748,3.023-2.634,4.563-2.86-1.5-6.263-1.221-10.236,1.073a29.105,29.105,0,0,0-10.2,10.708c-.893-.514-1.768-1.012-2.643-1.511A36.4,36.4,0,0,1,435.322,181.322Z" transform="translate(-422.504 -178.804)" fill="#1e5af9"/>
            </g>
            <g id="Grupo_32832" data-name="Grupo 32832">
              <path id="Trazado_81117" data-name="Trazado 81117" d="M431.987,165.512c7.08-4.088,13.262-4.6,18.591-1.92-.925,1.612-1.79,3.121-2.656,4.624-4.33-2.524-10.157-1.717-16.015,1.664-5.79,3.343-11.612,9.2-16.049,16.853-.867-.509-1.734-1.023-2.653-1.56,4.451-7.567,9.806-13.677,16.078-17.956Q430.656,166.28,431.987,165.512Z" transform="translate(-413.206 -161.931)" fill="#1e5af9"/>
            </g>
          </g>
        </g>
        <g id="Grupo_32842" data-name="Grupo 32842" transform="translate(105.008)">
          <g id="Grupo_32836" data-name="Grupo 32836" transform="translate(31.269 63.167)" style="isolation: isolate">
            <path id="Trazado_81118" data-name="Trazado 81118" d="M563.339,183.3a3.548,3.548,0,0,0-3.578-.351l-9.206,5.35a3.548,3.548,0,0,1,3.578.351,11.04,11.04,0,0,1,5.011,8.679,3.518,3.518,0,0,1-1.467,3.224l9.205-5.35a3.517,3.517,0,0,0,1.466-3.224A11.039,11.039,0,0,0,563.339,183.3Z" transform="translate(-547.008 -182.608)" fill="#07192f"/>
            <g id="Grupo_32835" data-name="Grupo 32835" transform="translate(0 3.627)">
              <ellipse id="Elipse_3403" data-name="Elipse 3403" cx="4.105" cy="7.087" rx="4.105" ry="7.087" transform="translate(0 4.125) rotate(-30.163)" fill="#21c3fc"/>
            </g>
          </g>
          <g id="Grupo_32838" data-name="Grupo 32838" transform="translate(23.546 43.291)" style="isolation: isolate">
            <path id="Trazado_81119" data-name="Trazado 81119" d="M556.928,153.907c-5.354-3.091-10.735-3.9-14.712-1.59l-9.206,5.35c3.978-2.311,9.358-1.5,14.712,1.59a41.414,41.414,0,0,1,14.693,15.519l9.206-5.35A41.412,41.412,0,0,0,556.928,153.907Z" transform="translate(-532.767 -150.987)" fill="#07192f"/>
            <g id="Grupo_32837" data-name="Grupo 32837" transform="translate(0 5.35)">
              <path id="Trazado_81120" data-name="Trazado 81120" d="M547.579,162.417a41.418,41.418,0,0,1,14.693,15.518c-1.808,1.022-3.617,2.043-5.474,3.088a26.783,26.783,0,0,0-9.287-9.7c-3.662-2.1-6.752-2.353-9.377-.994-.241-.391-.439-.706-.629-1.026l-4.881-8.33C536.624,158.484,542.115,159.263,547.579,162.417Z" transform="translate(-532.624 -159.498)" fill="#21c3fc"/>
            </g>
          </g>
          <g id="Grupo_32841" data-name="Grupo 32841" style="isolation: isolate">
            <g id="Grupo_32839" data-name="Grupo 32839" transform="translate(11.981 27.242)">
              <path id="Trazado_81121" data-name="Trazado 81121" d="M540.74,130.655c9.571,5.525,19.223,15.222,26.531,27.984l-5.47,3.117c-5.859-9.877-12.858-17.391-21.058-22.13s-15.235-5.336-21.1-2.245c-1.829-3.172-3.626-6.285-5.418-9.395C521.241,123.716,530.948,125,540.74,130.655Z" transform="translate(-514.226 -125.453)" fill="#21c3fc"/>
            </g>
            <path id="Trazado_81122" data-name="Trazado 81122" d="M550.115,122.144c-9.659-5.575-19.235-6.9-26.227-2.84l-9.205,5.35c6.992-4.064,16.568-2.736,26.227,2.84,9.571,5.525,19.223,15.222,26.531,27.984l9.205-5.349C569.339,137.366,559.686,127.669,550.115,122.144Z" transform="translate(-502.414 -95.05)" fill="#07192f"/>
            <path id="Trazado_81123" data-name="Trazado 81123" d="M543.21,89.865q-2.743-1.583-5.575-2.921c-12.942-6.105-24.027-6.284-33.265-1.312l-9.205,5.35c9.238-4.973,20.323-4.794,33.265,1.312q2.831,1.336,5.575,2.921c14.61,8.435,27.325,22.076,38.251,40.266l9.205-5.35C570.536,111.941,557.82,98.3,543.21,89.865Z" transform="translate(-495.165 -82.115)" fill="#07192f"/>
            <g id="Grupo_32840" data-name="Grupo 32840" transform="translate(0 5.35)">
              <path id="Trazado_81124" data-name="Trazado 81124" d="M534,98.375c14.61,8.435,27.325,22.076,38.251,40.266-1.92,1.113-3.717,2.155-5.518,3.194-8.871-15.485-20.861-27.682-32.944-34.66-11.945-6.9-23.981-8.691-33.194-3.521-1.778-3.11-3.55-6.218-5.435-9.513,9.238-4.973,20.323-4.794,33.265,1.312Q531.261,96.79,534,98.375Z" transform="translate(-495.165 -90.625)" fill="#21c3fc"/>
            </g>
          </g>
        </g>
        <g id="Grupo_32938" data-name="Grupo 32938" transform="translate(0 134.872)">
          <g id="Grupo_32926" data-name="Grupo 32926">
            <g id="Grupo_32925" data-name="Grupo 32925">
              <g id="Grupo_32924" data-name="Grupo 32924">
                <path id="Trazado_81165" data-name="Trazado 81165" d="M329.729,327.859l53.083,30.634a8.73,8.73,0,0,0,7.894-.027l25.645-14.909a2.788,2.788,0,0,0,1.634-2.307c.008,1.445.016.723.025,2.167a2.788,2.788,0,0,1-1.633,2.307l-25.645,14.91a8.725,8.725,0,0,1-7.893.028l-53.083-30.634a2.767,2.767,0,0,1-1.621-2.263c-.009-1.446-.016-.723-.025-2.167A2.762,2.762,0,0,0,329.729,327.859Z" transform="translate(-328.108 -307.422)" fill="#e8e8e8"/>
                <g id="Grupo_32923" data-name="Grupo 32923">
                  <path id="Trazado_81166" data-name="Trazado 81166" d="M355.39,297.638a8.726,8.726,0,0,1,7.891-.024l53.082,30.632c2.169,1.252,2.16,3.308-.012,4.572l-25.645,14.909a8.73,8.73,0,0,1-7.894.027L329.729,317.12c-2.169-1.251-2.161-3.308.016-4.572Z" transform="translate(-328.107 -296.683)" fill="#fff"/>
                </g>
              </g>
            </g>
            <path id="Trazado_81167" data-name="Trazado 81167" d="M415.116,330.208,364.41,300.954a3.5,3.5,0,0,0-3.157.01l-6.371,3.7,1.491.895a.871.871,0,0,1-.009,1.5l-8.209,4.79a4.13,4.13,0,0,1-4.208-.026l-.678-.406-7.845,4.562a.966.966,0,0,0,0,1.827l50.7,29.254a3.493,3.493,0,0,0,3.157-.009l25.828-15.017A.968.968,0,0,0,415.116,330.208Z" transform="translate(-330.583 -298.131)" fill="#90adcc"/>
          </g>
          <g id="Grupo_32937" data-name="Grupo 32937" transform="translate(22.72 2.719)">
            <g id="Grupo_32931" data-name="Grupo 32931" style="isolation: isolate">
              <path id="Trazado_81168" data-name="Trazado 81168" d="M378.467,309.226q.429-.248.879-.485c.086-.045.176-.087.263-.131.216-.111.432-.223.656-.329.121-.058.248-.112.37-.168.195-.09.387-.181.586-.267.137-.06.278-.115.417-.173.189-.079.377-.16.57-.236l.006,0,.031-.012c.292-.114.59-.224.89-.333l.272-.095q.363-.126.734-.246l.245-.079c.3-.094.6-.187.913-.275l.047-.013q.6-.171,1.227-.325c.1-.024.2-.045.294-.068.321-.076.643-.15.97-.219l.131-.03c.134-.028.272-.051.407-.077.219-.043.437-.086.658-.125.187-.034.376-.064.566-.095.222-.036.443-.072.667-.106l.2-.031c.14-.02.282-.035.422-.053.2-.026.392-.052.589-.075.213-.025.427-.047.641-.068.2-.02.4-.041.6-.059.063-.005.126-.013.189-.018.158-.013.317-.021.476-.032.195-.014.389-.028.585-.04.225-.013.453-.023.68-.032.2-.008.392-.018.589-.023l.15-.006q.5-.012,1.012-.014l.03,10.325c-.39,0-.777.008-1.163.019-.2.006-.393.015-.589.023-.227.009-.454.018-.68.031-.2.011-.39.026-.585.04-.222.016-.444.031-.664.051-.2.018-.4.038-.6.058-.214.022-.428.043-.641.069s-.393.048-.59.074-.414.055-.619.085c-.224.033-.445.069-.666.1-.189.031-.379.062-.566.095-.221.04-.439.082-.658.125-.18.035-.36.07-.538.107-.327.069-.65.143-.97.219-.1.023-.2.044-.293.068q-.622.153-1.227.325-.487.138-.96.287l-.245.079q-.371.12-.734.246l-.272.1c-.3.107-.6.218-.891.333l-.03.011c-.2.079-.4.163-.592.245-.133.056-.27.109-.4.166-.2.087-.4.18-.595.271-.12.055-.243.109-.361.165-.223.106-.439.218-.656.329-.087.045-.177.087-.262.131q-.45.237-.88.485a18.626,18.626,0,0,0-4.979,4.033,11.791,11.791,0,0,0-1.549,2.336q-.087.173-.165.347a9.322,9.322,0,0,0-.507,1.418,8.642,8.642,0,0,0-.216,1.09,8.238,8.238,0,0,0-.07,1.109h0l-.03-10.324C370.962,315.586,373.824,311.907,378.467,309.226Z" transform="translate(-366.751 -302.45)" fill="#051933"/>
              <path id="Trazado_81169" data-name="Trazado 81169" d="M368.481,328.222l.03,10.324-4.23-.009-.029-10.325Z" transform="translate(-364.252 -311.113)" fill="#12263f"/>
              <g id="Grupo_32928" data-name="Grupo 32928">
                <g id="Grupo_32927" data-name="Grupo 32927">
                  <path id="Trazado_81170" data-name="Trazado 81170" d="M372.938,306.107c-5.614,3.241-8.417,7.28-8.686,12l4.229.01c-.018-3.973,2.844-7.652,7.487-10.333a36.646,36.646,0,0,1,17.926-4.338c-.006-.8-.012-1.594-.019-2.438a43.748,43.748,0,0,0-18.7,3.919Q373.992,305.5,372.938,306.107Z" transform="translate(-364.252 -301.009)" fill="#21c3fc"/>
                </g>
              </g>
              <path id="Trazado_81171" data-name="Trazado 81171" d="M391.9,314.713q.293-.169.593-.327c.064-.033.129-.065.193-.1.138-.07.275-.141.415-.208.082-.04.166-.076.248-.114.125-.058.249-.116.375-.171.091-.04.184-.076.276-.114.112-.046.223-.094.336-.139l.023-.008c.27-.106.546-.206.823-.3l.224-.074q.329-.108.666-.207c.049-.014.1-.031.145-.045l.094-.025c.167-.047.336-.091.5-.134.085-.021.169-.045.255-.065q.355-.086.717-.162l.055-.012h0q.374-.077.757-.144l.24-.038c.177-.03.353-.059.532-.084l.037-.006c.091-.013.184-.023.276-.035.157-.021.314-.042.473-.06.113-.013.228-.023.341-.035.153-.015.3-.031.46-.044l.079-.008c.082-.007.166-.011.248-.017.172-.013.344-.025.519-.035l.351-.017c.168-.008.337-.014.508-.019l.16-.006c.153,0,.307-.007.461-.008.006-.815.009-1.614.014-2.414l.03,10.324c-.005.8-.008,1.6-.014,2.414-.209,0-.415.008-.622.014q-.255.008-.508.02c-.117.005-.234.01-.351.017-.174.009-.347.022-.519.035l-.327.024c-.154.013-.306.029-.459.045-.114.011-.229.022-.341.035-.159.018-.316.039-.473.06-.1.014-.209.026-.312.041-.179.026-.356.055-.533.084-.079.013-.16.025-.239.038q-.382.066-.757.144l-.054.012q-.364.076-.721.163c-.085.021-.17.043-.255.065-.169.043-.338.087-.505.133l-.238.07q-.337.1-.667.207c-.075.025-.15.048-.224.074q-.417.142-.823.3c-.121.048-.24.1-.36.148-.092.038-.184.074-.275.113-.127.055-.251.114-.377.172-.082.038-.166.074-.247.113-.138.066-.273.136-.409.2-.066.034-.134.066-.2.1q-.3.158-.593.328c-3.148,1.819-4.69,4.044-4.794,6.6l-.03-10.324C387.21,318.757,388.753,316.532,391.9,314.713Z" transform="translate(-372.741 -304.178)" fill="#051933"/>
              <path id="Trazado_81172" data-name="Trazado 81172" d="M384.638,328.27l.03,10.324h-4.176l-.03-10.324C381.864,328.27,383.231,328.268,384.638,328.27Z" transform="translate(-370.273 -311.134)" fill="#12263f"/>
              <g id="Grupo_32930" data-name="Grupo 32930" transform="translate(10.189 5.361)">
                <g id="Grupo_32929" data-name="Grupo 32929">
                  <path id="Trazado_81173" data-name="Trazado 81173" d="M386.469,312.977c-3.678,2.123-6.023,5.062-6.007,8.335,1.4,0,2.769,0,4.176,0,.1-2.556,1.647-4.781,4.794-6.6a23.066,23.066,0,0,1,11.39-2.759c.006-.815.01-1.614.014-2.414A28.863,28.863,0,0,0,386.469,312.977Z" transform="translate(-380.462 -309.538)" fill="#21c3fc"/>
                </g>
              </g>
            </g>
            <g id="Grupo_32934" data-name="Grupo 32934" transform="translate(20.338 10.569)" style="isolation: isolate">
              <path id="Trazado_81174" data-name="Trazado 81174" d="M405.378,321.468q.261-.149.535-.28c.061-.029.125-.053.187-.081.118-.053.234-.107.356-.155l.021-.008.07-.026c.152-.058.307-.111.465-.162l.15-.047c.045-.013.089-.029.135-.042s.115-.027.172-.042c.138-.036.277-.071.417-.1.046-.01.089-.024.135-.033s.106-.017.158-.027c.123-.024.247-.045.373-.065.057-.009.112-.021.17-.03s.1-.01.145-.016c.129-.017.26-.031.392-.043.065-.007.129-.016.195-.022.04,0,.082,0,.123-.006.158-.012.319-.019.481-.026.07,0,.138-.009.21-.011l.176,0c.008-.1.018-.184.02-.268.019-.715.035-1.433.055-2.148l.029,10.325c-.019.715-.035,1.433-.055,2.147,0,.084-.011.167-.019.268-.131,0-.258.009-.386.015-.162.006-.323.014-.481.025-.108.008-.212.018-.318.028-.131.013-.263.027-.392.043-.106.014-.211.03-.315.046q-.189.029-.373.065c-.1.019-.2.039-.293.06-.141.031-.28.066-.418.1-.1.027-.205.053-.307.084l-.15.046q-.237.075-.465.162l-.069.025c-.128.05-.252.107-.377.162-.062.028-.126.052-.187.082q-.274.13-.535.28a3.641,3.641,0,0,0-2.135,2.9l-.029-10.324A3.641,3.641,0,0,1,405.378,321.468Z" transform="translate(-399.072 -317.824)" fill="#051933"/>
              <path id="Trazado_81175" data-name="Trazado 81175" d="M396.61,328.183l4.169-.006.029,10.324-4.168.006V338.5c0-.031,0-.062,0-.092l-.03-10.325C396.608,328.115,396.609,328.149,396.61,328.183Z" transform="translate(-396.608 -321.634)" fill="#12263f"/>
              <g id="Grupo_32933" data-name="Grupo 32933" transform="translate(0)">
                <g id="Grupo_32932" data-name="Grupo 32932">
                  <path id="Trazado_81176" data-name="Trazado 81176" d="M399.929,319.752c-2.081,1.2-3.375,2.852-3.319,4.62l4.169-.006a3.641,3.641,0,0,1,2.135-2.9,10.327,10.327,0,0,1,5.065-1.226c.008-.1.018-.184.02-.268.019-.715.035-1.433.055-2.148A16.184,16.184,0,0,0,399.929,319.752Z" transform="translate(-396.608 -317.824)" fill="#21c3fc"/>
                </g>
              </g>
            </g>
            <g id="Grupo_32936" data-name="Grupo 32936" transform="translate(28.749 15.436)" style="isolation: isolate">
              <path id="Trazado_81177" data-name="Trazado 81177" d="M410,328.158c0,.029.005.057.01.086s.011.047.018.069.014.055.023.082.018.045.028.067.025.057.04.085.024.04.036.06.04.063.063.095.029.037.045.055a1.612,1.612,0,0,0,.115.124c.015.014.029.03.045.044s.055.047.084.069.049.041.076.06.065.044.1.065.067.045.1.066a2.646,2.646,0,0,0,.257.13l.077.033c.07.029.141.057.214.081l.079.027c.046.014.093.027.14.04s.071.02.107.029.1.022.15.032l.1.021c.1.018.206.032.31.043.031,0,.064.006.1.008.061.005.123.009.184.013l.118,0h.149l.125,0c.046,0,.092,0,.137-.007l.126-.011.136-.015.122-.018c.048-.008.1-.016.144-.025l.113-.023c.057-.013.113-.026.169-.041l.093-.025c.1-.029.2-.062.292-.1l.038-.016a2.859,2.859,0,0,0,.37-.177,1.362,1.362,0,0,0,.8-1.123l.03,10.324a1.363,1.363,0,0,1-.8,1.123,2.956,2.956,0,0,1-.37.177l-.024.011-.014.005c-.095.036-.192.069-.292.1l-.024.008c-.023.007-.047.011-.07.018-.055.014-.112.029-.169.041l-.045.011c-.022.005-.045.008-.067.012l-.145.025-.058.01-.064.007-.136.015-.065.008-.06,0-.138.008-.07,0h-.055c-.05,0-.1,0-.148,0h-.075l-.044,0c-.061,0-.123-.007-.184-.013-.025,0-.05,0-.074,0l-.023,0c-.1-.011-.207-.025-.309-.043l-.015,0-.089-.019c-.05-.01-.1-.02-.149-.032l-.108-.029c-.047-.013-.094-.026-.14-.04l-.03-.008-.048-.018c-.073-.025-.145-.052-.214-.082l-.077-.033a2.816,2.816,0,0,1-.257-.13l-.033-.02c-.025-.016-.047-.032-.071-.047s-.067-.043-.1-.065-.051-.04-.076-.06-.057-.045-.084-.069l-.016-.014c-.011-.01-.018-.021-.028-.031a1.492,1.492,0,0,1-.116-.124c-.008-.009-.018-.018-.025-.027s-.012-.019-.019-.028c-.023-.031-.044-.063-.064-.095-.008-.013-.019-.026-.026-.04s-.006-.014-.01-.021c-.015-.028-.027-.057-.04-.085s-.017-.033-.023-.049a.181.181,0,0,0-.005-.018c-.009-.026-.016-.054-.023-.081s-.012-.036-.016-.055l0-.015c-.005-.028-.007-.057-.009-.086s-.006-.036-.006-.055V338.4l-.029-10.325C409.989,328.105,409.993,328.132,410,328.158Z" transform="translate(-409.989 -326.493)" fill="#12263f"/>
              <g id="Grupo_32935" data-name="Grupo 32935">
                <path id="Trazado_81178" data-name="Trazado 81178" d="M410.792,326.028a1.178,1.178,0,0,0-.013,2.23,4.241,4.241,0,0,0,3.851,0,1.178,1.178,0,0,0,.013-2.23A4.243,4.243,0,0,0,410.792,326.028Z" transform="translate(-409.988 -325.566)" fill="#21c3fc"/>
              </g>
            </g>
          </g>
        </g>
        <g id="Grupo_33035" data-name="Grupo 33035" transform="translate(58.95 5.35)">
          <g id="Grupo_33032" data-name="Grupo 33032" transform="translate(21.483 50.419)">
            <g id="Grupo_33019" data-name="Grupo 33019" transform="translate(59.386 78.001)">
              <path id="Trazado_81219" data-name="Trazado 81219" d="M592.038,294.929l-.046,16.076-41.448,24.087.046-16.076Z" transform="translate(-550.545 -294.929)" fill="url(#linear-gradient)"/>
            </g>
            <path id="Trazado_81220" data-name="Trazado 81220" d="M515.5,312.989l-.046,16.076-59.386-34.287.046-16.076Z" transform="translate(-456.068 -210.901)" fill="url(#linear-gradient-2)"/>
            <g id="Grupo_33020" data-name="Grupo 33020" transform="translate(3.15 73.956)">
              <path id="Trazado_81221" data-name="Trazado 81221" d="M514.21,319.075l-.036,8.469a.487.487,0,0,1-.73.42l-52.121-30.092a.487.487,0,0,1-.244-.424l.036-8.469a.487.487,0,0,1,.731-.419l52.121,30.092A.485.485,0,0,1,514.21,319.075Z" transform="translate(-461.079 -288.493)" fill="#21c3fc"/>
              <path id="Trazado_81222" data-name="Trazado 81222" d="M463.133,298.021l.024-5.5a.487.487,0,0,1,.73-.42l49.551,28.608a.487.487,0,0,1,.244.424l-.023,5.5a.488.488,0,0,1-.731.42l-49.551-28.608A.488.488,0,0,1,463.133,298.021Z" transform="translate(-461.842 -289.808)" fill="url(#linear-gradient-3)"/>
            </g>
            <g id="Grupo_33021" data-name="Grupo 33021" transform="translate(0.046 43.715)">
              <path id="Trazado_81223" data-name="Trazado 81223" d="M556.974,274.669l-41.448,24.087L456.14,264.47l41.447-24.087Z" transform="translate(-456.14 -240.383)" fill="url(#linear-gradient-4)"/>
            </g>
            <path id="Trazado_81224" data-name="Trazado 81224" d="M528.13,310.018a3.6,3.6,0,0,1,3.259,0,.993.993,0,0,1,0,1.882,3.6,3.6,0,0,1-3.259,0A.994.994,0,0,1,528.13,310.018Z" transform="translate(-482.583 -222.388)" fill="#6e40fb"/>
            <path id="Trazado_81225" data-name="Trazado 81225" d="M536.813,315a3.6,3.6,0,0,1,3.259,0,.994.994,0,0,1,0,1.882,3.6,3.6,0,0,1-3.259,0A.993.993,0,0,1,536.813,315Z" transform="translate(-485.808 -224.237)" fill="#6e40fb"/>
            <path id="Trazado_81226" data-name="Trazado 81226" d="M546.835,320.7a3.6,3.6,0,0,1,3.259,0,.993.993,0,0,1,0,1.882,3.6,3.6,0,0,1-3.259,0A.993.993,0,0,1,546.835,320.7Z" transform="translate(-489.53 -226.354)" fill="#6e40fb"/>
            <path id="Trazado_81227" data-name="Trazado 81227" d="M509.426,299.308a3.6,3.6,0,0,1,3.259,0,.993.993,0,0,1,0,1.882,3.6,3.6,0,0,1-3.259,0A.994.994,0,0,1,509.426,299.308Z" transform="translate(-475.636 -218.41)" fill="#ebf4fb"/>
            <path id="Trazado_81228" data-name="Trazado 81228" d="M518.109,304.287a3.6,3.6,0,0,1,3.259,0,.993.993,0,0,1,0,1.882,3.6,3.6,0,0,1-3.259,0A.993.993,0,0,1,518.109,304.287Z" transform="translate(-478.861 -220.259)" fill="#ebf4fb"/>
            <g id="Grupo_33024" data-name="Grupo 33024" transform="translate(80.294 23.591)">
              <path id="Trazado_81229" data-name="Trazado 81229" d="M590.319,291.557l7.669-4.632-4.633-2.675-7.96,4.539Z" transform="translate(-584.397 -236.553)" opacity="0.7" fill="url(#linear-gradient-5)" style="mix-blend-mode: multiply;isolation: isolate"/>
              <g id="Grupo_33023" data-name="Grupo 33023">
                <path id="Trazado_81230" data-name="Trazado 81230" d="M589.9,210.44a1.126,1.126,0,0,1-.6.906,2.984,2.984,0,0,1-1.2.4,4.04,4.04,0,0,1-.95,0l-.019,0a2.877,2.877,0,0,1-1.316-.467,1.093,1.093,0,0,1-.512-.83L583.808,262.3a1.333,1.333,0,0,0,.063.375c.009.03.019.06.03.091a1.774,1.774,0,0,0,.4.623c.028.028.063.055.094.082s.06.053.091.08a3.044,3.044,0,0,0,.435.309,4.023,4.023,0,0,0,.54.256c.055.022.112.041.169.062.146.052.295.1.448.137.058.014.115.031.174.044a6.014,6.014,0,0,0,.637.109l.04,0c.2.022.411.032.618.035.065,0,.129,0,.195,0,.166,0,.331-.012.5-.028.06-.006.121-.009.18-.017a5.7,5.7,0,0,0,.635-.109c.167-.039.326-.092.485-.145.062-.021.129-.035.189-.058a4.18,4.18,0,0,0,.612-.287,1.918,1.918,0,0,0,1.13-1.58S589.9,210.446,589.9,210.44Z" transform="translate(-583.808 -209.138)" fill="url(#linear-gradient-6)"/>
                <g id="Grupo_33022" data-name="Grupo 33022" transform="translate(1.464)">
                  <path id="Trazado_81231" data-name="Trazado 81231" d="M586.825,208.764a1.01,1.01,0,0,0-.009,1.911,3.638,3.638,0,0,0,3.3,0,1.01,1.01,0,0,0,.011-1.911A3.637,3.637,0,0,0,586.825,208.764Z" transform="translate(-586.137 -208.368)" fill="#21c3fc"/>
                </g>
              </g>
            </g>
            <g id="Grupo_33027" data-name="Grupo 33027" transform="translate(38.956)">
              <path id="Trazado_81232" data-name="Trazado 81232" d="M524.933,253.816l7.669-4.632-4.633-2.675-7.96,4.539Z" transform="translate(-518.772 -198.943)" opacity="0.7" fill="url(#linear-gradient-5)" style="mix-blend-mode: multiply;isolation: isolate"/>
              <g id="Grupo_33026" data-name="Grupo 33026">
                <path id="Trazado_81233" data-name="Trazado 81233" d="M524.132,172.909a1.127,1.127,0,0,1-.6.906,2.973,2.973,0,0,1-1.2.4,4,4,0,0,1-.95,0l-.019,0a2.891,2.891,0,0,1-1.316-.467,1.091,1.091,0,0,1-.512-.83l-1.492,51.844a1.344,1.344,0,0,0,.063.375c.009.03.019.06.03.09a1.772,1.772,0,0,0,.4.624c.028.028.063.054.093.082s.06.054.092.08a3.067,3.067,0,0,0,.434.309,4.246,4.246,0,0,0,.541.256c.055.022.112.041.169.062.145.052.294.1.448.136.058.015.114.031.174.045a6.025,6.025,0,0,0,.636.109l.041,0c.2.022.411.032.618.035.065,0,.13,0,.195,0,.166,0,.331-.013.5-.028.06-.006.12-.009.18-.017a6,6,0,0,0,.635-.109c.167-.039.326-.092.485-.146.062-.021.129-.035.189-.057a4.2,4.2,0,0,0,.612-.287,1.919,1.919,0,0,0,1.131-1.58S524.132,172.915,524.132,172.909Z" transform="translate(-518.042 -171.607)" fill="url(#linear-gradient-6)"/>
                <g id="Grupo_33025" data-name="Grupo 33025" transform="translate(1.464)">
                  <path id="Trazado_81234" data-name="Trazado 81234" d="M521.059,171.232a1.01,1.01,0,0,0-.009,1.911,3.634,3.634,0,0,0,3.3,0,1.01,1.01,0,0,0,.011-1.911A3.639,3.639,0,0,0,521.059,171.232Z" transform="translate(-520.371 -170.837)" fill="#21c3fc"/>
                </g>
              </g>
            </g>
            <g id="Grupo_33031" data-name="Grupo 33031" transform="translate(61.159 84.274)">
              <g id="Grupo_33028" data-name="Grupo 33028">
                <path id="Trazado_81235" data-name="Trazado 81235" d="M553.7,326.926a.333.333,0,0,1-.164-.622l37.606-21.352a.333.333,0,1,1,.329.578l-37.606,21.352A.327.327,0,0,1,553.7,326.926Z" transform="translate(-553.365 -304.908)" fill="#21c3fc"/>
              </g>
              <g id="Grupo_33029" data-name="Grupo 33029" transform="translate(0 2.552)">
                <path id="Trazado_81236" data-name="Trazado 81236" d="M553.7,330.986a.333.333,0,0,1-.164-.622l37.606-21.352a.332.332,0,1,1,.329.578l-37.606,21.353A.327.327,0,0,1,553.7,330.986Z" transform="translate(-553.365 -308.968)" fill="#21c3fc"/>
              </g>
              <g id="Grupo_33030" data-name="Grupo 33030" transform="translate(0 5.105)">
                <path id="Trazado_81237" data-name="Trazado 81237" d="M553.7,335.047a.333.333,0,0,1-.164-.622l37.606-21.352a.333.333,0,1,1,.329.578L553.862,335A.327.327,0,0,1,553.7,335.047Z" transform="translate(-553.365 -313.029)" fill="#21c3fc"/>
              </g>
            </g>
          </g>
          <g id="Grupo_33033" data-name="Grupo 33033" transform="translate(0 74.852)">
            <path id="Trazado_81238" data-name="Trazado 81238" d="M423.851,297.471a.41.41,0,0,1-.4-.339c-.077-.453-7.592-45.606,11.089-70.721,6.968-9.368,16.74-14.876,29.044-16.374,10.356-1.262,19.383,1.12,26.834,7.071,17.277,13.8,20.391,42.546,20.42,42.836a.408.408,0,1,1-.812.083c-.03-.286-3.113-28.7-20.121-42.282-7.273-5.809-16.1-8.127-26.222-6.9-12.075,1.47-21.659,6.87-28.488,16.051-18.474,24.838-11.017,69.645-10.939,70.094a.409.409,0,0,1-.333.473A.442.442,0,0,1,423.851,297.471Z" transform="translate(-421.891 -209.708)" fill="#21c3fc"/>
          </g>
          <g id="Grupo_33034" data-name="Grupo 33034" transform="translate(7.505)">
            <path id="Trazado_81239" data-name="Trazado 81239" d="M502.686,158.937c-1.676-18.73-5.017-33.886-9.934-45.047C486.574,99.862,477.875,92.12,466.9,90.877c-9.245-1.048-16.713,1.187-22.214,6.639-8.889,8.809-10.672,24.223-10.854,33.717.218-.08.44-.153.663-.223.2-9.4,1.994-24.442,10.658-33.025,5.352-5.3,12.643-7.471,21.673-6.451,10.727,1.216,19.246,8.826,25.322,22.62,4.888,11.094,8.212,26.18,9.881,44.835,2.846,31.8-.155,63.352-.186,63.666a.332.332,0,0,0,.3.361h.033a.331.331,0,0,0,.329-.3C502.529,222.4,505.536,190.8,502.686,158.937Z" transform="translate(-433.83 -90.625)" fill="#21c3fc"/>
          </g>
        </g>
        <path id="Trazado_81240" data-name="Trazado 81240" d="M351.791,314.077a.9.9,0,0,0,.82-.045l7.917-4.613-.332-.223a.734.734,0,0,0-.781-.023l-8.053,4.712Z" transform="translate(-336.745 -166.412)" fill="url(#linear-gradient-9)"/>
      </g>
    </g>
  </g>
</svg>
