<svg xmlns="http://www.w3.org/2000/svg" xmlns:xlink="http://www.w3.org/1999/xlink" width="1320.333" height="506.835" viewBox="0 0 1320.333 506.835">
  <defs>
    <clipPath id="clip-path">
      <path id="Rectangle_652" data-name="Rectangle 652" d="M20.787,0H1299.213C1310.693,0,1320,8.4,1320,18.772V488.063c0,10.367-9.307,18.772-20.787,18.772H20.787C9.307,506.835,0,498.431,0,488.063V18.772C0,8.4,9.307,0,20.787,0Z" transform="translate(-12615 -15689.174)" fill="#1e5af9"/>
    </clipPath>
    <clipPath id="clip-path-2">
      <rect id="Rectángulo_374093" data-name="Rectángulo 374093" width="1320" height="506" rx="20" transform="translate(140.333 81)" fill="#1e5af9"/>
    </clipPath>
    <clipPath id="clip-path-3">
      <rect id="Rectángulo_374380" data-name="Rectángulo 374380" width="98.561" height="98.561" transform="translate(0 69.693) rotate(-45)" fill="none"/>
    </clipPath>
  </defs>
  <g id="Grupo_1073326" data-name="Grupo 1073326" transform="translate(-140 -80.578)">
    <rect id="Rectángulo_373412" data-name="Rectángulo 373412" width="1320" height="506" rx="20" transform="translate(140.333 81)" fill="#1e5af9"/>
    <g id="Enmascarar_grupo_1059105" data-name="Enmascarar grupo 1059105" clip-path="url(#clip-path-2)">
      <g id="Grupo_1065366" data-name="Grupo 1065366">
        <g id="Grupo_1065365" data-name="Grupo 1065365" opacity="0.2">
          <line id="Línea_1731" data-name="Línea 1731" y2="507" transform="translate(360.333 80.5)" fill="none" stroke="#fff" stroke-width="1"/>
          <line id="Línea_1734" data-name="Línea 1734" y2="507" transform="translate(800.333 80.5)" fill="none" stroke="#fff" stroke-width="1"/>
          <line id="Línea_1732" data-name="Línea 1732" y2="507" transform="translate(580.333 80.5)" fill="none" stroke="#fff" stroke-width="1"/>
          <line id="Línea_1733" data-name="Línea 1733" y2="507" transform="translate(1020.333 80.5)" fill="none" stroke="#fff" stroke-width="1"/>
          <line id="Línea_1735" data-name="Línea 1735" y2="507" transform="translate(1240.333 80.5)" fill="none" stroke="#fff" stroke-width="1"/>
        </g>
        <g id="Elipse_8473" data-name="Elipse 8473" transform="translate(1340.333 -46)" fill="none" stroke="#fff" stroke-width="70" opacity="0.1">
          <circle cx="127" cy="127" r="127" stroke="none"/>
          <circle cx="127" cy="127" r="92" fill="none"/>
        </g>
        <g id="Elipse_8474" data-name="Elipse 8474" transform="translate(179.333 516)" fill="none" stroke="#fff" stroke-width="70" opacity="0.1">
          <circle cx="126.5" cy="126.5" r="126.5" stroke="none"/>
          <circle cx="126.5" cy="126.5" r="91.5" fill="none"/>
        </g>
        <g id="Elipse_8475" data-name="Elipse 8475" transform="translate(791.333 541)" fill="#1e5af9" stroke="#fff" stroke-width="2">
          <circle cx="9" cy="9" r="9" stroke="none"/>
          <circle cx="9" cy="9" r="8" fill="none"/>
        </g>
        <g id="Elipse_8478" data-name="Elipse 8478" transform="translate(351.333 108)" fill="#1e5af9" stroke="#fff" stroke-width="2">
          <circle cx="9" cy="9" r="9" stroke="none"/>
          <circle cx="9" cy="9" r="8" fill="none"/>
        </g>
        <g id="Elipse_8476" data-name="Elipse 8476" transform="translate(1231.333 127)" fill="#1e5af9" stroke="#fff" stroke-width="2">
          <circle cx="9" cy="9" r="9" stroke="none"/>
          <circle cx="9" cy="9" r="8" fill="none"/>
        </g>
        <g id="Grupo_1065953" data-name="Grupo 1065953" transform="translate(93.333 35.001)">
          <g id="Grupo_1065953-2" data-name="Grupo 1065953" clip-path="url(#clip-path-3)">
            <circle id="Elipse_8479" data-name="Elipse 8479" cx="64.275" cy="64.275" r="64.275" transform="translate(5.418 5.417)" fill="none" stroke="#fff" stroke-miterlimit="10" stroke-width="0.5"/>
            <circle id="Elipse_8480" data-name="Elipse 8480" cx="51.194" cy="51.194" r="51.194" transform="translate(18.5 18.499)" fill="none" stroke="#fff" stroke-miterlimit="10" stroke-width="0.5"/>
            <circle id="Elipse_8481" data-name="Elipse 8481" cx="38.113" cy="38.113" r="38.113" transform="translate(31.58 31.58)" fill="none" stroke="#fff" stroke-miterlimit="10" stroke-width="0.5"/>
            <circle id="Elipse_8482" data-name="Elipse 8482" cx="25.032" cy="25.032" r="25.032" transform="translate(44.661 44.66)" fill="none" stroke="#fff" stroke-miterlimit="10" stroke-width="0.5"/>
            <circle id="Elipse_8483" data-name="Elipse 8483" cx="11.951" cy="11.951" r="11.951" transform="translate(57.743 57.742)" fill="none" stroke="#fff" stroke-miterlimit="10" stroke-width="0.5"/>
          </g>
        </g>
        <g id="Grupo_1065954" data-name="Grupo 1065954" transform="translate(1367.333 494.001)">
          <g id="Grupo_1065953-3" data-name="Grupo 1065953" clip-path="url(#clip-path-3)">
            <circle id="Elipse_8479-2" data-name="Elipse 8479" cx="64.275" cy="64.275" r="64.275" transform="translate(5.418 5.417)" fill="none" stroke="#fff" stroke-miterlimit="10" stroke-width="0.5"/>
            <circle id="Elipse_8480-2" data-name="Elipse 8480" cx="51.194" cy="51.194" r="51.194" transform="translate(18.5 18.499)" fill="none" stroke="#fff" stroke-miterlimit="10" stroke-width="0.5"/>
            <circle id="Elipse_8481-2" data-name="Elipse 8481" cx="38.113" cy="38.113" r="38.113" transform="translate(31.58 31.58)" fill="none" stroke="#fff" stroke-miterlimit="10" stroke-width="0.5"/>
            <circle id="Elipse_8482-2" data-name="Elipse 8482" cx="25.032" cy="25.032" r="25.032" transform="translate(44.661 44.66)" fill="none" stroke="#fff" stroke-miterlimit="10" stroke-width="0.5"/>
            <circle id="Elipse_8483-2" data-name="Elipse 8483" cx="11.951" cy="11.951" r="11.951" transform="translate(57.743 57.742)" fill="none" stroke="#fff" stroke-miterlimit="10" stroke-width="0.5"/>
          </g>
        </g>
      </g>
    </g>
  </g>
</svg>
