<svg xmlns="http://www.w3.org/2000/svg" width="43" height="43" viewBox="0 0 43 43">
  <g id="Grupo_1073386" data-name="Grupo 1073386" transform="translate(-1041 -7896)">
    <circle id="Elipse_8597" data-name="Elipse 8597" cx="21.5" cy="21.5" r="21.5" transform="translate(1041 7896)" fill="#6e40fc"/>
    <path id="Trazado_819467" data-name="Trazado 819467" d="M12.949,0H1.043V-2.578L6.527-8.344q2.027-2.309,2.027-3.668a2.551,2.551,0,0,0-.48-1.676,1.715,1.715,0,0,0-1.395-.574,1.737,1.737,0,0,0-1.465.768,3.155,3.155,0,0,0-.562,1.916H.691a5.6,5.6,0,0,1,.785-2.9,5.506,5.506,0,0,1,2.18-2.08,6.475,6.475,0,0,1,3.117-.75,6.369,6.369,0,0,1,4.26,1.277,4.56,4.56,0,0,1,1.494,3.668,5.326,5.326,0,0,1-.375,1.963,8.608,8.608,0,0,1-1.166,2A29.372,29.372,0,0,1,8.438-5.59l-2.2,2.543h6.715Z" transform="translate(1055.309 7926.309)" fill="#fff"/>
  </g>
</svg>
