<svg xmlns="http://www.w3.org/2000/svg" xmlns:xlink="http://www.w3.org/1999/xlink" width="715" height="280.796" viewBox="0 0 715 280.796">
  <defs>
    <clipPath id="clip-path">
      <path id="Trazado_819175" data-name="Trazado 819175" d="M5.766,0H709.234C712.418,0,715,2.286,715,5.105V275.69c0,2.82-2.582,5.105-5.766,5.105H5.766C2.582,280.8,0,278.51,0,275.69V5.105C0,2.286,2.582,0,5.766,0Z" transform="translate(705 729.204)" fill="#e9e2fe"/>
    </clipPath>
    <clipPath id="clip-path-2">
      <path id="Trazado_819173" data-name="Trazado 819173" d="M0,0,56.656.175l.175,56.656L.175,56.656Z" transform="translate(0 39.938) rotate(-45)" fill="#6e40fb" stroke="#6e40fb" stroke-width="1"/>
    </clipPath>
    <clipPath id="clip-path-3">
      <path id="Trazado_819174" data-name="Trazado 819174" d="M0,0,56.656.175l.175,56.656L.175,56.656Z" transform="translate(0 39.938) rotate(-45)" fill="none" stroke="#6e40fb" stroke-width="1"/>
    </clipPath>
  </defs>
  <g id="Grupo_1072376" data-name="Grupo 1072376" transform="translate(-705 -729.204)">
    <g id="Enmascarar_grupo_1059109" data-name="Enmascarar grupo 1059109" clip-path="url(#clip-path)">
      <g id="Grupo_1072375" data-name="Grupo 1072375">
        <path id="Trazado_801366" data-name="Trazado 801366" d="M5.766,0H709.234C712.418,0,715,2.286,715,5.105V275.69c0,2.82-2.582,5.105-5.766,5.105H5.766C2.582,280.8,0,278.51,0,275.69V5.105C0,2.286,2.582,0,5.766,0Z" transform="translate(705 729.204)" fill="#e9e2fe"/>
        <g id="Grupo_1067144" data-name="Grupo 1067144" transform="translate(831.854 728.714)" opacity="0.2">
          <line id="Línea_1741" data-name="Línea 1741" y2="290.538" fill="none" stroke="#6e40fb" stroke-width="1"/>
          <line id="Línea_1742" data-name="Línea 1742" y2="290.538" transform="translate(253.71)" fill="none" stroke="#6e40fb" stroke-width="1"/>
          <line id="Línea_1743" data-name="Línea 1743" y2="290.538" transform="translate(126.855)" fill="none" stroke="#6e40fb" stroke-width="1"/>
          <line id="Línea_1744" data-name="Línea 1744" y2="290.538" transform="translate(380.565)" fill="none" stroke="#6e40fb" stroke-width="1"/>
          <line id="Línea_1747" data-name="Línea 1747" y2="290.538" transform="translate(634.274)" fill="none" stroke="#6e40fb" stroke-width="1"/>
          <line id="Línea_1745" data-name="Línea 1745" y2="290.538" transform="translate(507.419)" fill="none" stroke="#6e40fb" stroke-width="1"/>
          <line id="Línea_1746" data-name="Línea 1746" y2="290.538" transform="translate(761.129)" fill="none" stroke="#6e40fb" stroke-width="1"/>
        </g>
        <path id="Elipse_8499" data-name="Elipse 8499" d="M73.23,40.114A32.665,32.665,0,1,0,106.1,72.778,32.8,32.8,0,0,0,73.23,40.114M73.23,0c40.444,0,73.23,32.584,73.23,72.778s-32.786,72.778-73.23,72.778S0,112.972,0,72.778,32.786,0,73.23,0Z" transform="translate(1349.653 668.257)" fill="#6e40fb" opacity="0.1"/>
        <path id="Elipse_8500" data-name="Elipse 8500" d="M72.942,40.114A32.378,32.378,0,1,0,105.52,72.491,32.515,32.515,0,0,0,72.942,40.114M72.942,0c40.284,0,72.942,32.455,72.942,72.491s-32.657,72.491-72.942,72.491S0,112.527,0,72.491,32.657,0,72.942,0Z" transform="translate(727.488 946.761)" fill="#6e40fb" opacity="0.1"/>
        <g id="Grupo_1067146" data-name="Grupo 1067146" transform="translate(677.899 702.641)">
          <g id="Grupo_1067145" data-name="Grupo 1067145" transform="translate(0 0)" clip-path="url(#clip-path-2)">
            <path id="Elipse_8504" data-name="Elipse 8504" d="M36.956-.25A37.183,37.183,0,0,1,71.238,22.333,36.754,36.754,0,0,1,67.808,57.4a37.316,37.316,0,0,1-61.7,0,36.754,36.754,0,0,1,0-41.348A37.223,37.223,0,0,1,36.956-.25Zm0,73.666A36.9,36.9,0,0,0,70.973,51.008a36.469,36.469,0,0,0-3.4-34.795,37.027,37.027,0,0,0-61.226,0,36.469,36.469,0,0,0,0,41.027A36.934,36.934,0,0,0,36.956,73.416Z" transform="translate(3.23 3.212)" fill="#6e40fb"/>
            <path id="Elipse_8505" data-name="Elipse 8505" d="M29.413-.25A29.672,29.672,0,0,1,56.745,17.755a29.337,29.337,0,0,1-6.357,32.321,29.758,29.758,0,0,1-41.95,0A29.5,29.5,0,0,1,29.413-.25Zm0,58.674A29.383,29.383,0,0,0,56.48,40.593a29.051,29.051,0,0,0-6.3-32.006,29.468,29.468,0,0,0-41.542,0A29.211,29.211,0,0,0,29.413,58.424Z" transform="translate(10.773 10.708)" fill="#6e40fb"/>
            <path id="Elipse_8506" data-name="Elipse 8506" d="M21.871-.25A22.127,22.127,0,0,1,42.253,13.177a21.877,21.877,0,0,1-4.741,24.1,22.191,22.191,0,0,1-31.283,0A22,22,0,0,1,21.871-.25Zm0,43.682A21.839,21.839,0,0,0,41.987,30.18,21.592,21.592,0,0,0,37.308,6.392a21.9,21.9,0,0,0-30.876,0,21.71,21.71,0,0,0,15.438,37.04Z" transform="translate(18.316 18.204)" fill="#6e40fb"/>
            <path id="Elipse_8507" data-name="Elipse 8507" d="M14.328-.25A14.582,14.582,0,0,1,27.761,8.6a14.418,14.418,0,0,1-3.124,15.884,14.625,14.625,0,0,1-20.617,0A14.5,14.5,0,0,1,14.328-.25Zm0,28.69a14.294,14.294,0,0,0,13.167-8.674A14.132,14.132,0,0,0,24.432,4.2a14.335,14.335,0,0,0-20.209,0,14.21,14.21,0,0,0,10.1,24.244Z" transform="translate(25.858 25.7)" fill="#6e40fb"/>
            <path id="Elipse_8508" data-name="Elipse 8508" d="M6.785-.25A7.011,7.011,0,0,1,11.76,1.8a6.961,6.961,0,0,1,0,9.888,7.066,7.066,0,0,1-9.949,0,6.961,6.961,0,0,1,0-9.888A7.011,7.011,0,0,1,6.785-.25Zm0,13.7a6.724,6.724,0,0,0,4.771-1.964,6.676,6.676,0,0,0,0-9.483A6.777,6.777,0,0,0,2.014,2a6.676,6.676,0,0,0,0,9.483A6.724,6.724,0,0,0,6.785,13.447Z" transform="translate(33.401 33.196)" fill="#6e40fb"/>
          </g>
        </g>
        <g id="Grupo_1067148" data-name="Grupo 1067148" transform="translate(1369.435 959.367)">
          <g id="Grupo_1067147" data-name="Grupo 1067147" transform="translate(0 0)" clip-path="url(#clip-path-3)">
            <ellipse id="Elipse_8509" data-name="Elipse 8509" cx="37.062" cy="36.833" rx="37.062" ry="36.833" transform="translate(3.124 3.105)" fill="none" stroke="#6e40fb" stroke-miterlimit="10" stroke-width="0.5"/>
            <ellipse id="Elipse_8510" data-name="Elipse 8510" cx="29.519" cy="29.337" rx="29.519" ry="29.337" transform="translate(10.667 10.601)" fill="none" stroke="#6e40fb" stroke-miterlimit="10" stroke-width="0.5"/>
            <ellipse id="Elipse_8511" data-name="Elipse 8511" cx="21.976" cy="21.841" rx="21.976" ry="21.841" transform="translate(18.21 18.097)" fill="none" stroke="#6e40fb" stroke-miterlimit="10" stroke-width="0.5"/>
            <ellipse id="Elipse_8512" data-name="Elipse 8512" cx="14.434" cy="14.345" rx="14.434" ry="14.345" transform="translate(25.752 25.593)" fill="none" stroke="#6e40fb" stroke-miterlimit="10" stroke-width="0.5"/>
            <ellipse id="Elipse_8513" data-name="Elipse 8513" cx="6.891" cy="6.848" rx="6.891" ry="6.848" transform="translate(33.295 33.09)" fill="none" stroke="#6e40fb" stroke-miterlimit="10" stroke-width="0.5"/>
          </g>
        </g>
        <text id="En_otras_palabras:" data-name="En otras palabras:" transform="translate(705 688)" fill="#12263f" font-size="16" font-family="Roboto-Regular, Roboto"><tspan x="0" y="15">En otras palabras:</tspan></text>
      </g>
    </g>
  </g>
</svg>
